<svg width="32" height="32" viewBox="0 0 32 32" fill="none" xmlns="http://www.w3.org/2000/svg">
<g clip-path="url(#clip0_8641_4502)">
<path d="M16.9473 27.9512C9.76581 27.9511 3.94434 22.1288 3.94434 14.9473C3.94444 7.76587 9.76587 1.94445 16.9473 1.94434C24.1288 1.94434 29.9511 7.76579 29.9512 14.9473C29.9512 22.1288 24.1288 27.9512 16.9473 27.9512ZM21.0742 19.9961C21.963 19.9961 22.7316 19.851 23.3789 19.5596C24.0358 19.2587 24.533 18.8396 24.8711 18.3037C25.2188 17.7679 25.3926 17.1431 25.3926 16.4287C25.3926 15.47 25.1178 14.7414 24.5674 14.2432C24.0264 13.7355 23.3016 13.4815 22.3936 13.4814C22.0362 13.4814 21.6787 13.5238 21.3213 13.6084C20.9735 13.6836 20.6591 13.8054 20.3789 13.9746V11.6621H24.8135V9.89941H18.3359V14.9902L19.6836 15.709C19.983 15.4741 20.2876 15.3003 20.5967 15.1875C20.9056 15.0654 21.2435 15.004 21.6104 15.0039C22.1031 15.0039 22.4903 15.1309 22.7705 15.3848C23.0603 15.6386 23.2051 16.006 23.2051 16.4854C23.205 17.0304 23.0163 17.4489 22.6396 17.7402C22.2629 18.0316 21.7316 18.1767 21.0459 18.1768C20.1378 18.1768 19.3113 17.9332 18.5674 17.4443L17.8145 19.0234C18.1912 19.3336 18.6645 19.573 19.2344 19.7422C19.8042 19.9114 20.4175 19.9961 21.0742 19.9961ZM16.2168 19.7705V17.9092H11.5361V9.89941H9.40625V19.7705H16.2168Z" fill="white"/>
<path opacity="0.5" d="M16 30.8369C7.80605 30.8369 1.16309 24.1939 1.16309 16C1.1631 7.80607 7.80606 1.16309 16 1.16309C24.1939 1.16309 30.8369 7.80607 30.8369 16C30.8369 24.1939 24.1939 30.8369 16 30.8369ZM21.0742 19.9961C21.963 19.9961 22.7316 19.85 23.3789 19.5586C24.0357 19.2578 24.533 18.8395 24.8711 18.3037C25.2188 17.7679 25.3925 17.143 25.3926 16.4287C25.3926 15.4698 25.118 14.7405 24.5674 14.2422C24.0264 13.7346 23.3015 13.4815 22.3936 13.4814C22.0362 13.4814 21.6787 13.5238 21.3213 13.6084C20.9735 13.6836 20.6591 13.8054 20.3789 13.9746V11.6621H24.8135V9.89941H18.3359V14.9902L19.6836 15.709C19.983 15.474 20.2876 15.3003 20.5967 15.1875C20.9056 15.0654 21.2435 15.004 21.6104 15.0039C22.1031 15.0039 22.4903 15.1309 22.7705 15.3848C23.0601 15.6385 23.205 16.0052 23.2051 16.4844C23.2051 17.0296 23.0164 17.4488 22.6396 17.7402C22.2629 18.0315 21.7316 18.1767 21.0459 18.1768C20.1378 18.1768 19.3113 17.9322 18.5674 17.4434L17.8145 19.0234C18.1912 19.3335 18.6646 19.573 19.2344 19.7422C19.8042 19.9114 20.4175 19.9961 21.0742 19.9961ZM16.2168 19.7705V17.9092H11.5361V9.89941H9.40625V19.7705H16.2168Z" fill="white"/>
<path d="M16.2171 19.7706H9.40625V9.89932H11.5364V17.9091H16.2171V19.7706Z" fill="#0E141B"/>
<path d="M24.8133 9.89932V11.662H20.379V13.9747C20.6592 13.8055 20.9732 13.6833 21.321 13.6081C21.6784 13.5235 22.0359 13.4812 22.3933 13.4812C23.3014 13.4812 24.026 13.735 24.567 14.2427C25.1177 14.7409 25.393 15.4695 25.393 16.4285C25.393 17.1429 25.2191 17.7681 24.8713 18.304C24.5332 18.8399 24.0356 19.2582 23.3787 19.5591C22.7314 19.8505 21.9634 19.9962 21.0746 19.9962C20.4177 19.9962 19.8042 19.9116 19.2342 19.7424C18.6643 19.5732 18.1909 19.3334 17.8141 19.0232L18.5677 17.4438C19.3115 17.9326 20.1375 18.1771 21.0456 18.1771C21.7316 18.1771 22.2629 18.0314 22.6397 17.7399C23.0164 17.4485 23.2048 17.0301 23.2048 16.4849C23.2048 16.0054 23.0599 15.6388 22.7701 15.3849C22.4899 15.1311 22.1035 15.0042 21.6108 15.0042C21.2437 15.0042 20.9056 15.0653 20.5964 15.1875C20.2873 15.3003 19.983 15.4742 19.6835 15.7093L18.3358 14.9901V9.89932H24.8133Z" fill="#0E141B"/>
</g>
<defs>
<clipPath id="clip0_8641_4502">
<rect width="32" height="32" fill="white" transform="matrix(-1 0 0 -1 32 32)"/>
</clipPath>
</defs>
</svg>
