<svg width="32" height="32" viewBox="0 0 32 32" fill="none" xmlns="http://www.w3.org/2000/svg">
<path fill-rule="evenodd" clip-rule="evenodd" d="M29.1978 8.20551C29.8764 8.20551 30.4271 8.6688 30.4273 9.24066V23.0209C30.4271 23.5928 29.8764 24.0561 29.1978 24.0561H2.15973C1.48131 24.0559 0.931467 23.5927 0.931213 23.0209V18.7573C0.878069 13.409 10.7459 8.15903 19.7427 8.29535L29.1978 8.20551ZM11.0718 13.0883V20.601H16.1168V19.184H12.65V13.0883H11.0718ZM19.6382 13.0883L17.1705 14.312L17.6744 15.4926L19.2525 14.8266V19.2377H17.482V20.601H22.2789V19.2377H20.8511V13.0883H19.6382Z" fill="white"/>
<path d="M16.1161 20.6009H11.0718V13.0882H12.6495V19.1842H16.1161V20.6009Z" fill="#0E141B"/>
<path d="M20.8513 13.0882V19.2379H22.2787V20.6009H17.4813V19.2379H19.2521V14.8268L17.6745 15.4922L17.1701 14.3117L19.6385 13.0882H20.8513Z" fill="#0E141B"/>
</svg>
