<svg width="32" height="32" viewBox="0 0 32 32" fill="none" xmlns="http://www.w3.org/2000/svg">
<g clip-path="url(#clip0_8537_15766)">
<path fill-rule="evenodd" clip-rule="evenodd" d="M3.60355 1C2.28957 1 1.3322 2.24744 1.71976 3.50293C3.45322 9.11657 5.00002 11.4216 5.00004 14.5C5.00004 16.8295 2.78522 23.3671 1.30375 27.4795C0.651367 29.2904 1.81644 31.2531 3.73636 31.3906C4.62344 31.4542 5.57983 31.5 6.50004 31.5C25.063 31.5 29.8803 23.9384 30.877 4.09863C30.9617 2.40865 29.6004 1 27.9082 1H3.60355ZM20.1836 9.04395C21.2377 9.04397 22.0828 9.27461 22.7188 9.73633C23.3547 10.1981 23.6729 10.8562 23.6729 11.71C23.6728 12.3371 23.4899 12.9079 23.1241 13.4219C22.7581 13.9272 22.1955 14.4929 21.4375 15.1201L19.543 16.6885H23.9473V18.3486H17.1123V16.7539L19.752 14.5586L19.9746 14.3623C20.3752 14.0227 20.6797 13.7481 20.8887 13.5391C21.1065 13.33 21.2815 13.1082 21.4121 12.873C21.5428 12.6378 21.6075 12.3804 21.6075 12.1016C21.6074 11.6486 21.4424 11.3085 21.1114 11.082C20.789 10.8469 20.3704 10.7295 19.8565 10.7295C19.4732 10.7295 19.0983 10.7902 18.7325 10.9121C18.3754 11.0341 18.062 11.1872 17.792 11.3701L17.1387 9.95801C17.5394 9.67933 17.9969 9.45748 18.5108 9.29199C19.0335 9.12647 19.5912 9.04395 20.1836 9.04395ZM11.5293 9.2002V16.623H15.751V18.3486H9.60843V9.2002H11.5293Z" fill="white"/>
<path d="M15.7788 18.3589H9.63669V9.21111H11.5577V16.6339H15.7788V18.3589Z" fill="#0E141B"/>
<path d="M19.5713 16.6992H23.9753V18.3589H17.1406V16.7646L19.7804 14.5691L20.0025 14.3731C20.4033 14.0333 20.7082 13.7589 20.9173 13.5498C21.1351 13.3407 21.3093 13.1185 21.44 12.8833C21.5707 12.6481 21.636 12.391 21.636 12.1123C21.636 11.6592 21.4705 11.3195 21.1394 11.0929C20.8171 10.8577 20.3989 10.7401 19.8849 10.7401C19.5016 10.7401 19.1269 10.8011 18.761 10.923C18.4038 11.045 18.0902 11.1975 17.8201 11.3804L17.1667 9.96907C17.5675 9.69028 18.0249 9.46812 18.5389 9.30259C19.0616 9.13706 19.6192 9.05429 20.2116 9.05429C21.2658 9.05429 22.1109 9.28516 22.7468 9.74691C23.3828 10.2087 23.7008 10.8664 23.7008 11.7202C23.7008 12.3475 23.5179 12.9181 23.152 13.4322C22.786 13.9375 22.2241 14.5037 21.4662 15.131L19.5713 16.6992Z" fill="#0E141B"/>
</g>
<defs>
<clipPath id="clip0_8537_15766">
<rect width="32" height="32" fill="white"/>
</clipPath>
</defs>
</svg>
