<svg width="32" height="32" viewBox="0 0 32 32" fill="none" xmlns="http://www.w3.org/2000/svg">
<path fill-rule="evenodd" clip-rule="evenodd" d="M8.39093 31.4707C7.96677 31.4835 7.53487 31.4912 7.09503 31.4951L2.14093 25.1016C2.27424 24.7164 2.41072 24.3238 2.54523 23.9258L8.39093 31.4707ZM4.52082 31.4395C4.25535 31.4247 3.99307 31.409 3.73664 31.3906C1.81672 31.2531 0.651639 29.2904 1.30402 27.4795C1.31969 27.436 1.33408 27.3917 1.34992 27.3477L4.52082 31.4395ZM12.0501 31.2285C11.5535 31.2819 11.0441 31.3268 10.5218 31.3643L3.20539 21.9219C3.36733 21.4174 3.52581 20.915 3.67609 20.4209L12.0501 31.2285ZM15.4769 30.6875C14.9276 30.8056 14.3594 30.9093 13.7718 31.001L4.19367 18.6396C4.38008 17.9635 4.54186 17.3238 4.67121 16.7422L15.4769 30.6875ZM9.60871 18.1494V18.3486H9.763L18.6273 29.7891C18.0477 30.0019 17.442 30.1936 16.8089 30.3652L4.96418 15.0781C4.98687 14.8645 5.00031 14.671 5.00031 14.5C5.0003 13.5124 4.83924 12.6048 4.56574 11.6416L9.60871 18.1494ZM21.4486 28.4668C20.8647 28.8092 20.2474 29.1217 19.5931 29.4033L11.0277 18.3486H13.6087L21.4486 28.4668ZM17.1126 17.9053V18.3486H17.4554L23.9027 26.6689C23.3415 27.1789 22.7396 27.6468 22.0911 28.0713L14.5579 18.3486H15.7513V16.623H13.221L11.5296 14.4395V10.7002L17.1126 17.9053ZM26.1751 24.0439C25.6047 24.8801 24.9713 25.6392 24.2679 26.3252L18.0882 18.3486H21.763L26.1751 24.0439ZM27.9085 1C29.6005 1.00015 30.9619 2.40874 30.8773 4.09863C30.4297 13.0077 29.2097 19.4398 26.3226 23.8242L22.0794 18.3486H23.9476V16.6885H20.7933L20.304 16.0576L21.4378 15.1201C22.1956 14.4929 22.7584 13.9271 23.1243 13.4219C23.4901 12.908 23.6731 12.3371 23.6732 11.71C23.6732 10.8563 23.3549 10.1981 22.7191 9.73633C22.0832 9.27465 21.2379 9.04401 20.1839 9.04395C19.5916 9.04395 19.0337 9.12653 18.5111 9.29199C17.9973 9.45745 17.5396 9.67939 17.139 9.95801L17.7923 11.3701C18.0623 11.1873 18.3757 11.034 18.7327 10.9121C19.0985 10.7902 19.4736 10.7295 19.8568 10.7295C20.3706 10.7295 20.7894 10.8469 21.1116 11.082C21.4425 11.3085 21.6077 11.6487 21.6077 12.1016C21.6077 12.3803 21.5431 12.6379 21.4124 12.873C21.2818 13.1082 21.1067 13.3301 20.889 13.5391C20.68 13.7481 20.3754 14.0228 19.9749 14.3623L19.7523 14.5586L19.3812 14.8662L8.63703 1H27.9085ZM8.32062 1L19.1888 15.0264L17.1126 16.7539V17.0898L11.5296 9.88379V9.2002H10.9993L4.64484 1H8.32062ZM20.4769 16.6885H19.5433L20.1116 16.2178L20.4769 16.6885ZM12.2718 16.623H11.5296V15.6641L12.2718 16.623ZM9.60871 13.1855V16.5176L3.53546 8.67969C3.00634 7.28092 2.37664 5.62926 1.72003 3.50293C1.65701 3.29877 1.6322 3.09489 1.63605 2.89648L9.60871 13.1855ZM4.013 1L10.3665 9.2002H9.60871V11.96L1.88507 1.99219C2.21847 1.40827 2.85256 1 3.60382 1H4.013Z" fill="white"/>
<path d="M15.7528 18.3696H9.61075V9.22182H11.5318V16.6446H15.7528V18.3696Z" fill="#0E141B"/>
<path d="M19.5453 16.7099H23.9493V18.3696H17.1146V16.7753L19.7544 14.5798L19.9766 14.3838C20.3773 14.044 20.6823 13.7696 20.8913 13.5605C21.1092 13.3514 21.2834 13.1292 21.4141 12.894C21.5448 12.6588 21.6101 12.4018 21.6101 12.123C21.6101 11.6699 21.4446 11.3302 21.1135 11.1036C20.7912 10.8684 20.373 10.7508 19.859 10.7508C19.4756 10.7508 19.101 10.8118 18.7351 10.9338C18.3779 11.0557 18.0643 11.2082 17.7942 11.3911L17.1408 9.97978C17.5415 9.70099 17.9989 9.47883 18.5129 9.3133C19.0357 9.14777 19.5932 9.065 20.1857 9.065C21.2398 9.065 22.0849 9.29587 22.7209 9.75762C23.3569 10.2194 23.6749 10.8771 23.6749 11.7309C23.6749 12.3582 23.4919 12.9288 23.126 13.4429C22.7601 13.9482 22.1982 14.5145 21.4402 15.1417L19.5453 16.7099Z" fill="#0E141B"/>
</svg>
