<svg width="32" height="32" viewBox="0 0 32 32" fill="none" xmlns="http://www.w3.org/2000/svg">
<g clip-path="url(#clip0_8537_15557)">
<path fill-rule="evenodd" clip-rule="evenodd" d="M28.3964 1C29.7104 1 30.6678 2.24744 30.2802 3.50293C28.5468 9.11657 27 11.4216 27 14.5C27 16.8295 29.2148 23.3671 30.6963 27.4795C31.3486 29.2904 30.1836 31.2531 28.2636 31.3906C27.3766 31.4542 26.4202 31.5 25.5 31.5C6.937 31.5 2.11966 23.9384 1.12301 4.09863C1.03834 2.40865 2.3996 1 4.09176 1H28.3964ZM8.43844 9.47852V18.0615H10.2412V15.167H11.7246L13.4541 18.0615H15.4521L13.4297 14.8115C13.9526 14.5827 14.3575 14.2479 14.6435 13.8066C14.9377 13.3653 15.0849 12.8133 15.0849 12.1514C15.0849 11.3095 14.8067 10.6554 14.2509 10.1895C13.6951 9.71534 12.8284 9.47852 11.6513 9.47852H8.43844ZM19.5947 9.33105C19.0388 9.33105 18.5148 9.40816 18.0244 9.56348C17.5422 9.71878 17.1132 9.92792 16.7373 10.1895L17.3505 11.5137C17.6039 11.342 17.8982 11.1984 18.2334 11.084C18.5766 10.9696 18.9285 10.9131 19.288 10.9131C19.7702 10.9131 20.1624 11.0235 20.4648 11.2441C20.7753 11.4567 20.9306 11.7752 20.9306 12.2002C20.9306 12.4617 20.8696 12.7031 20.747 12.9238C20.6245 13.1444 20.461 13.3528 20.2568 13.5488C20.0607 13.745 19.7743 14.0026 19.3984 14.3213L19.1894 14.5049L16.7129 16.5654V18.0615H23.1259V16.5039H18.9931L20.7714 15.0322C21.4825 14.4437 22.0102 13.9125 22.3535 13.4385C22.6967 12.9563 22.8681 12.4205 22.8681 11.832C22.8681 11.0311 22.5693 10.4137 21.9726 9.98047C21.376 9.54747 20.5834 9.33112 19.5947 9.33105ZM11.541 11.0107C12.105 11.0107 12.5141 11.1166 12.7675 11.3291C13.0291 11.5335 13.1591 11.8449 13.1591 12.2617C13.1591 12.6866 13.0245 13.0214 12.7548 13.2666C12.4933 13.5037 12.1254 13.6221 11.6513 13.6221H10.2412V11.0107H11.541Z" fill="white"/>
<path d="M15.4525 18.0611H13.4539L11.7251 15.1674H11.5166H10.2414V18.0611H8.43901V9.47807H11.6515C12.8286 9.47807 13.6951 9.71512 14.2509 10.1892C14.8068 10.6552 15.0847 11.3091 15.0847 12.1511C15.0847 12.8132 14.9376 13.3649 14.6433 13.8064C14.3572 14.2478 13.9526 14.5829 13.4294 14.8118L15.4525 18.0611ZM10.2414 11.0107V13.6224H11.6515C12.1256 13.6224 12.4935 13.5039 12.755 13.2669C13.0248 13.0216 13.1597 12.6865 13.1597 12.2614C13.1597 11.8445 13.0289 11.5339 12.7673 11.3295C12.5139 11.117 12.1052 11.0107 11.5412 11.0107H10.2414Z" fill="#0E141B"/>
<path d="M18.9936 16.5039H23.1257V18.0611H16.7129V16.5652L19.1898 14.5053L19.3982 14.3213C19.7742 14.0025 20.0603 13.745 20.2565 13.5489C20.4609 13.3527 20.6243 13.1442 20.747 12.9235C20.8696 12.7028 20.9309 12.4617 20.9309 12.2001C20.9309 11.775 20.7756 11.4562 20.4649 11.2437C20.1625 11.023 19.7701 10.9127 19.2878 10.9127C18.9282 10.9127 18.5767 10.9699 18.2334 11.0843C17.8982 11.1988 17.6039 11.3418 17.3505 11.5135L16.7375 10.1892C17.1135 9.92766 17.5426 9.71921 18.0249 9.5639C18.5154 9.40859 19.0385 9.33093 19.5944 9.33093C20.5835 9.33093 21.3764 9.54755 21.9731 9.98079C22.5698 10.414 22.8682 11.0312 22.8682 11.8323C22.8682 12.4208 22.6965 12.9562 22.3532 13.4385C22.0099 13.9126 21.4826 14.444 20.7715 15.0325L18.9936 16.5039Z" fill="#0E141B"/>
</g>
<defs>
<clipPath id="clip0_8537_15557">
<rect width="32" height="32" fill="white"/>
</clipPath>
</defs>
</svg>
