<svg width="32" height="32" viewBox="0 0 32 32" fill="none" xmlns="http://www.w3.org/2000/svg">
<g clip-path="url(#clip0_8641_4494)">
<path d="M15.0527 29.9512C22.2342 29.9511 28.0557 24.1288 28.0557 16.9473C28.0556 9.76587 22.2341 3.94445 15.0527 3.94434C7.87124 3.94434 2.04893 9.76579 2.04883 16.9473C2.04883 24.1288 7.87118 29.9512 15.0527 29.9512ZM5.86035 21.7812V11.7949H9.72949C11.1472 11.7949 12.1909 12.0704 12.8604 12.6221C13.5297 13.1641 13.8641 13.9249 13.8643 14.9043C13.8643 15.6747 13.6874 16.3175 13.333 16.8311C12.9885 17.3446 12.5011 17.7347 11.8711 18.001L14.3076 21.7812H11.9004L9.81836 18.4141H8.03125V21.7812H5.86035ZM20.4775 21.7812V19.5127H15.6035V18.1436L20.6689 11.7949H22.6777V17.9004H24.1689V19.5127H22.6777V21.7812H20.4775ZM9.72949 16.6172C10.3005 16.6172 10.7436 16.4789 11.0586 16.2031C11.3835 15.9178 11.5459 15.5278 11.5459 15.0332C11.5459 14.5482 11.3882 14.187 11.0732 13.9492C10.7681 13.7019 10.2759 13.5781 9.59668 13.5781H8.03125V16.6172H9.72949ZM20.5654 17.9004V14.291L17.7158 17.9004H20.5654Z" fill="white"/>
<path d="M14.3074 21.7813H11.9003L9.81809 18.4143H9.56704H8.03121V21.7813H5.86038L5.86038 11.7947H9.72948C11.1472 11.7947 12.1907 12.0705 12.8602 12.6221C13.5297 13.1643 13.8644 13.9251 13.8644 14.9048C13.8644 15.6752 13.6872 16.3172 13.3328 16.8308C12.9882 17.3444 12.5009 17.7343 11.8708 18.0006L14.3074 21.7813ZM8.03121 13.578V16.6168H9.72948C10.3005 16.6168 10.7435 16.4789 11.0586 16.203C11.3834 15.9177 11.5459 15.5278 11.5459 15.0332C11.5459 14.5481 11.3884 14.1867 11.0733 13.9489C10.7681 13.7016 10.2759 13.578 9.59657 13.578H8.03121Z" fill="#0E141B"/>
<path d="M22.6776 11.7947V17.9008H24.1691V19.5129H22.6776V21.7813H20.4772V19.5129H15.6039V18.1433L20.6692 11.7947L22.6776 11.7947ZM20.5658 14.2913L17.7157 17.9008H20.5658V14.2913Z" fill="#0E141B"/>
<path opacity="0.5" d="M16 30.8369C24.1939 30.8369 30.8369 24.1939 30.8369 16C30.8369 7.80607 24.1939 1.16309 16 1.16309C7.80606 1.16309 1.1631 7.80607 1.16309 16C1.16309 24.1939 7.80605 30.8369 16 30.8369ZM5.86035 21.7812V11.7949H9.72949C11.1472 11.7949 12.1909 12.0704 12.8604 12.6221C13.5297 13.1641 13.8641 13.9249 13.8643 14.9043C13.8643 15.6747 13.6874 16.3175 13.333 16.8311C12.9885 17.3446 12.5011 17.7347 11.8711 18.001L14.3076 21.7812H11.9004L9.81836 18.4141H8.03125V21.7812H5.86035ZM20.4775 21.7812V19.5127H15.6035V18.1436L20.6689 11.7949H22.6777V17.9004H24.1689V19.5127H22.6777V21.7812H20.4775ZM9.72949 16.6172C10.3005 16.6172 10.7436 16.4789 11.0586 16.2031C11.3835 15.9178 11.5459 15.5278 11.5459 15.0332C11.5459 14.5482 11.3882 14.187 11.0732 13.9492C10.7681 13.7019 10.2759 13.5781 9.59668 13.5781H8.03125V16.6172H9.72949ZM20.5654 17.9004V14.291L17.7158 17.9004H20.5654Z" fill="white"/>
</g>
<defs>
<clipPath id="clip0_8641_4494">
<rect width="32" height="32" fill="white" transform="matrix(1 0 0 -1 0 32)"/>
</clipPath>
</defs>
</svg>
