<svg width="32" height="32" viewBox="0 0 32 32" fill="none" xmlns="http://www.w3.org/2000/svg">
<g clip-path="url(#clip0_8641_4510)">
<path d="M15.0527 27.9512C22.2342 27.9511 28.0557 22.1288 28.0557 14.9473C28.0556 7.76587 22.2341 1.94445 15.0527 1.94434C7.87124 1.94434 2.04893 7.76579 2.04883 14.9473C2.04883 22.1288 7.87118 27.9512 15.0527 27.9512ZM6.6123 19.7852V9.9043H10.0957C11.3715 9.90436 12.3105 10.1771 12.9131 10.7227C13.5157 11.259 13.8174 12.0122 13.8174 12.9814C13.8174 13.7435 13.6578 14.3786 13.3389 14.8867C13.0287 15.3949 12.5896 15.7805 12.0225 16.0439L14.2158 19.7852H12.0498L10.1748 16.4541H8.56641V19.7852H6.6123ZM18.6533 20.0107C18.0507 20.0107 17.4877 19.9262 16.9648 19.7568C16.4421 19.5875 16.0077 19.3476 15.6621 19.0371L16.3535 17.4561C17.0359 17.9454 17.7939 18.1895 18.627 18.1895C19.2561 18.1894 19.7433 18.0436 20.0889 17.752C20.4344 17.4603 20.6074 17.0418 20.6074 16.4961C20.6074 16.0162 20.4748 15.6486 20.209 15.3945C19.952 15.1405 19.5973 15.0137 19.1455 15.0137C18.8088 15.0137 18.4984 15.075 18.2148 15.1973C17.9313 15.3102 17.6517 15.4845 17.377 15.7197L16.1406 15V9.9043H22.083V11.6689H18.0156V13.9834C18.2725 13.8142 18.5601 13.6915 18.8789 13.6162C19.2068 13.5315 19.5354 13.4893 19.8633 13.4893C20.6962 13.4893 21.3612 13.7438 21.8574 14.252C22.3623 14.7507 22.6142 15.4799 22.6143 16.4395C22.6143 17.1546 22.4547 17.7801 22.1357 18.3164C21.8256 18.8528 21.3692 19.2721 20.7666 19.5732C20.1729 19.8649 19.4685 20.0107 18.6533 20.0107ZM10.0957 14.6748C10.6095 14.6747 11.0085 14.5384 11.292 14.2656C11.5843 13.9834 11.7304 13.5975 11.7305 13.1084C11.7305 12.6285 11.5883 12.2704 11.3047 12.0352C11.0299 11.7907 10.5868 11.6689 9.97559 11.6689H8.56641V14.6748H10.0957Z" fill="white"/>
<path d="M14.2162 19.7849H12.0494L10.175 16.4536H9.94905H8.56656V19.7849H6.61246V9.90405H10.0953C11.3714 9.90405 12.3108 10.177 12.9134 10.7228C13.5161 11.2591 13.8174 12.012 13.8174 12.9812C13.8174 13.7435 13.6579 14.3787 13.3388 14.8868C13.0286 15.395 12.59 15.7808 12.0228 16.0443L14.2162 19.7849ZM8.56656 11.6685V14.6751H10.0953C10.6093 14.6751 11.0081 14.5386 11.2917 14.2657C11.5841 13.9834 11.7303 13.5976 11.7303 13.1083C11.7303 12.6283 11.5885 12.2707 11.305 12.0355C11.0302 11.7908 10.5871 11.6685 9.97564 11.6685H8.56656Z" fill="#0E141B"/>
<path d="M22.083 9.90405V11.6685H18.0153V13.9834C18.2723 13.814 18.5603 13.6917 18.8793 13.6164C19.2072 13.5317 19.5351 13.4894 19.863 13.4894C20.6961 13.4894 21.3607 13.7435 21.857 14.2516C22.3621 14.7504 22.6147 15.4797 22.6147 16.4395C22.6147 17.1547 22.4552 17.7805 22.1362 18.3169C21.826 18.8533 21.3696 19.272 20.767 19.5732C20.1732 19.8649 19.4687 20.0107 18.6533 20.0107C18.0507 20.0107 17.488 19.926 16.9651 19.7567C16.4422 19.5873 16.008 19.3473 15.6624 19.0368L16.3536 17.4558C17.036 17.9452 17.7937 18.1898 18.6268 18.1898C19.256 18.1898 19.7434 18.044 20.089 17.7523C20.4346 17.4605 20.6074 17.0418 20.6074 16.496C20.6074 16.0161 20.4745 15.6491 20.2086 15.395C19.9516 15.1409 19.5972 15.0139 19.1452 15.0139C18.8084 15.0139 18.4983 15.075 18.2147 15.1974C17.9311 15.3103 17.6519 15.4844 17.3772 15.7196L16.1409 14.9997V9.90405H22.083Z" fill="#0E141B"/>
<path opacity="0.5" d="M16 30.8369C24.1939 30.8369 30.8369 24.1939 30.8369 16C30.8369 7.80607 24.1939 1.16309 16 1.16309C7.80606 1.16309 1.1631 7.80607 1.16309 16C1.16309 24.1939 7.80605 30.8369 16 30.8369ZM6.6123 19.7852V9.9043H10.0957C11.3715 9.90436 12.3105 10.1771 12.9131 10.7227C13.5157 11.259 13.8174 12.0122 13.8174 12.9814C13.8174 13.7435 13.6578 14.3786 13.3389 14.8867C13.0287 15.3949 12.5896 15.7805 12.0225 16.0439L14.2158 19.7852H12.0498L10.1748 16.4541H8.56641V19.7852H6.6123ZM18.6533 20.0107C18.0507 20.0107 17.4877 19.9262 16.9648 19.7568C16.4421 19.5875 16.0077 19.3476 15.6621 19.0371L16.3535 17.4561C17.0359 17.9454 17.7939 18.1895 18.627 18.1895C19.2561 18.1894 19.7433 18.0436 20.0889 17.752C20.4344 17.4603 20.6074 17.0418 20.6074 16.4961C20.6074 16.0162 20.4748 15.6486 20.209 15.3945C19.952 15.1405 19.5973 15.0137 19.1455 15.0137C18.8088 15.0137 18.4984 15.075 18.2148 15.1973C17.9313 15.3102 17.6517 15.4845 17.377 15.7197L16.1406 15V9.9043H22.083V11.6689H18.0156V13.9834C18.2725 13.8142 18.5601 13.6915 18.8789 13.6162C19.2068 13.5315 19.5354 13.4893 19.8633 13.4893C20.6962 13.4893 21.3612 13.7438 21.8574 14.252C22.3623 14.7507 22.6142 15.4799 22.6143 16.4395C22.6143 17.1546 22.4547 17.7801 22.1357 18.3164C21.8256 18.8528 21.3692 19.2721 20.7666 19.5732C20.1729 19.8649 19.4685 20.0107 18.6533 20.0107ZM10.0957 14.6748C10.6095 14.6747 11.0085 14.5384 11.292 14.2656C11.5843 13.9834 11.7304 13.5975 11.7305 13.1084C11.7305 12.6285 11.5883 12.2704 11.3047 12.0352C11.0299 11.7907 10.5868 11.6689 9.97559 11.6689H8.56641V14.6748H10.0957Z" fill="white"/>
</g>
<defs>
<clipPath id="clip0_8641_4510">
<rect width="32" height="32" fill="white" transform="matrix(1 0 0 -1 0 32)"/>
</clipPath>
</defs>
</svg>
