<svg width="32" height="32" viewBox="0 0 32 32" fill="none" xmlns="http://www.w3.org/2000/svg">
<g clip-path="url(#clip0_8547_743)">
<path d="M15.7122 30.6065C13.1331 31.3612 9.65421 31.2028 6.62531 30.8038C6.29749 30.7606 5.97988 30.6928 5.67316 30.6065H15.7122ZM19.4691 27.6075C19.1808 28.1016 18.8969 28.5218 18.6204 28.8565H2.73468C2.36812 28.4798 2.04647 28.0601 1.77277 27.6075H19.4691ZM20.9398 24.6075C20.7099 25.1389 20.4808 25.6404 20.2552 26.1075H1.08624C0.928761 25.6259 0.81781 25.1236 0.760071 24.6075H20.9398ZM22.1526 21.6085C21.9223 22.2117 21.6912 22.7962 21.4632 23.3575H0.724915C0.734548 23.1692 0.749157 22.9799 0.772766 22.7901C0.820432 22.4069 0.870615 22.0126 0.92218 21.6085H22.1526ZM23.2591 18.6085C23.0155 19.2874 22.7723 19.9563 22.5296 20.6085H1.05109C1.13556 19.9606 1.22452 19.2921 1.31769 18.6085H23.2591ZM4.6839 15.6094V17.0001H11.264V15.6094H11.9612C12.3409 16.0631 12.787 16.4203 13.3021 16.6778C14.0299 17.0323 14.8148 17.21 15.6546 17.21C16.4569 17.2099 17.1948 17.0787 17.8665 16.8174C18.5381 16.5468 19.0941 16.1881 19.5325 15.7403V15.6094H24.3177C24.0544 16.3628 23.7898 17.1151 23.5257 17.8585H1.4212C1.52334 17.1216 1.63033 16.3699 1.74152 15.6094H4.6839ZM25.4944 12.2501C25.164 13.1905 24.8277 14.1487 24.4925 15.1094H19.5325V12.2501H25.4944ZM15.1644 12.2501V12.9122H17.5726V14.7178C17.3767 14.883 17.1558 15.0121 16.9124 15.1094H14.6419C14.318 14.9693 14.0304 14.7592 13.7786 14.4796C13.3127 13.9433 13.0684 13.2003 13.0413 12.2501H15.1644ZM10.8538 12.2501C10.8625 13.3407 11.0847 14.2571 11.5237 14.9981C11.5468 15.0362 11.5723 15.0724 11.596 15.1094H6.74249V12.2501H10.8538ZM4.6839 12.2501V15.1094H1.81378C1.95385 14.1633 2.1024 13.2063 2.25519 12.2501H4.6839ZM10.6409 0.989319C22.908 0.946879 33.652 0.80919 31.0003 1.00006C29.5679 1.10349 27.6394 6.15813 25.5823 12.0001H19.5325V11.2598H15.1644V12.0001H13.0384C13.0501 10.9993 13.3046 10.2293 13.806 9.69147C14.3286 9.14103 15.0198 8.86627 15.8782 8.86627C16.7738 8.86638 17.5861 9.11313 18.3138 9.60748L19.3226 8.09576C18.8934 7.76919 18.384 7.50322 17.7962 7.29791C17.2084 7.0833 16.5407 6.9757 15.7943 6.97565C14.8704 6.97565 14.035 7.177 13.2884 7.57819C12.5418 7.97016 11.9487 8.55794 11.5101 9.34186C11.0958 10.0822 10.8788 10.9683 10.8558 12.0001H6.74249V7.20026H4.6839V12.0001H2.29523C2.56869 10.3008 2.85964 8.60777 3.16827 6.98932C3.8467 3.43262 7.02009 1.00185 10.6409 0.989319Z" fill="white"/>
<path d="M11.2638 16.9998H4.68377V7.19985H6.74177V15.1518H11.2638V16.9998ZM15.7937 6.97585C16.5403 6.97585 17.2077 7.08318 17.7957 7.29785C18.3837 7.50318 18.8923 7.76918 19.3217 8.09585L18.3137 9.60785C17.5857 9.11318 16.7737 8.86585 15.8777 8.86585C15.019 8.86585 14.3283 9.14118 13.8057 9.69185C13.2923 10.2425 13.0357 11.0358 13.0357 12.0718C13.0357 13.1078 13.283 13.9105 13.7777 14.4798C14.2817 15.0398 14.9303 15.3198 15.7237 15.3198C16.4797 15.3198 17.0957 15.1192 17.5717 14.7178V12.9118H15.1637V11.2598H19.5317V15.7398C19.093 16.1878 18.5377 16.5472 17.8657 16.8178C17.1937 17.0792 16.4563 17.2098 15.6537 17.2098C14.8137 17.2098 14.0297 17.0325 13.3017 16.6778C12.5737 16.3138 11.981 15.7538 11.5237 14.9978C11.0757 14.2418 10.8517 13.3038 10.8517 12.1838C10.8517 11.0732 11.071 10.1258 11.5097 9.34185C11.9483 8.55785 12.541 7.96985 13.2877 7.57785C14.0343 7.17651 14.8697 6.97585 15.7937 6.97585Z" fill="#0E141B"/>
</g>
<defs>
<clipPath id="clip0_8547_743">
<rect width="32" height="32" fill="white"/>
</clipPath>
</defs>
</svg>
