<svg width="32" height="32" viewBox="0 0 32 32" fill="none" xmlns="http://www.w3.org/2000/svg">
<g clip-path="url(#clip0_8547_758)">
<path d="M16.2864 30.606C18.8657 31.3611 22.3457 31.2024 25.3752 30.8033C25.7042 30.7599 26.0226 30.6927 26.3303 30.606H16.2864ZM12.5305 27.607C12.8188 28.1013 13.1035 28.5212 13.3801 28.856H29.2658C29.6323 28.4794 29.9531 28.0594 30.2268 27.607H12.5305ZM11.0598 24.607C11.2897 25.1385 11.5197 25.6398 11.7453 26.107H30.9143C31.0718 25.6254 31.1827 25.1231 31.2405 24.607H11.0598ZM9.8469 21.608C10.0773 22.2113 10.3093 22.7956 10.5373 23.357H31.2756C31.266 23.1688 31.2523 22.9793 31.2287 22.7896C31.1811 22.4064 31.1299 22.0121 31.0783 21.608H9.8469ZM8.74046 18.608C8.98402 19.2869 9.22724 19.9558 9.46995 20.608H30.9494C30.865 19.9601 30.776 19.2916 30.6828 18.608H8.74046ZM7.68186 15.6089C7.94511 16.3623 8.20971 17.1146 8.47385 17.858H30.5793C30.4772 17.1211 30.3702 16.3694 30.259 15.6089H28.4006V15.7398C27.9621 16.1877 27.4063 16.5473 26.7346 16.8179C26.0627 17.0792 25.3242 17.2095 24.5217 17.2095C23.682 17.2095 22.898 17.0318 22.1701 16.6773C21.655 16.4197 21.2091 16.0627 20.8293 15.6089H18.9582L19.8244 16.9996H17.5422L16.7112 15.6089H13.8742V16.9996H11.8157V15.6089H7.68186ZM28.4006 15.1089H30.1867C30.0467 14.1628 29.8981 13.2058 29.7453 12.2496H28.4006V15.1089ZM21.9104 12.2496C21.9373 13.2 22.1797 13.9437 22.6457 14.48C22.8971 14.7594 23.1845 14.969 23.508 15.1089H25.7815C26.0245 15.0117 26.245 14.8823 26.4407 14.7173V12.9117H24.0324V12.2496H21.9104ZM18.8235 12.2496C18.5025 12.6999 18.0671 13.0475 17.5139 13.2896L18.6467 15.1089H20.4641C20.4404 15.0719 20.4149 15.0357 20.3918 14.9976C19.9527 14.2566 19.7306 13.3403 19.7219 12.2496H18.8235ZM13.8742 15.1089H16.4123L15.5676 13.6958H13.8742V15.1089ZM6.50608 12.2496C6.83653 13.1899 7.17189 14.1483 7.50706 15.1089H11.8157V12.2496H6.50608ZM21.3596 0.988817C9.09195 0.946375 -1.65273 0.808651 1.00022 0.999559C2.4326 1.10333 4.36125 6.15783 6.41819 11.9996H11.8157V7.19975H15.4836C16.8275 7.1998 17.8178 7.46999 18.4524 8.01128C19.0869 8.54322 19.4035 9.2904 19.4035 10.2515C19.4035 10.9385 19.2631 11.5207 18.9856 11.9996H19.7239C19.747 10.968 19.9639 10.0816 20.3782 9.34136C20.8168 8.55758 21.4099 7.96961 22.1565 7.57768C22.903 7.17653 23.7385 6.97514 24.6623 6.97514C25.4088 6.97519 26.0764 7.08279 26.6643 7.29741C27.2522 7.50273 27.7614 7.76865 28.1907 8.09526L27.1819 9.60796C26.454 9.1134 25.6421 8.86585 24.7463 8.86577C23.8878 8.86577 23.1967 9.14145 22.674 9.69194C22.1729 10.2297 21.9182 10.9991 21.9065 11.9996H24.0324V11.2593H28.4006V11.9996H29.7053C29.4318 10.3004 29.1418 8.60717 28.8332 6.98882C28.1548 3.43229 24.9803 1.00149 21.3596 0.988817ZM13.8742 11.9312H15.4836C16.0248 11.9311 16.4458 11.7965 16.7444 11.5259C17.0521 11.246 17.2063 10.8627 17.2063 10.3775C17.2062 9.90182 17.0564 9.5473 16.758 9.31401C16.4687 9.07139 16.0015 8.94979 15.3576 8.94975H13.8742V11.9312Z" fill="white"/>
<path d="M19.8236 16.9998H17.5416L15.5676 13.6958H15.3296H13.8736V16.9998H11.8156V7.19985H15.4836C16.8276 7.19985 17.817 7.47051 18.4516 8.01185C19.0863 8.54385 19.4036 9.29051 19.4036 10.2518C19.4036 11.0078 19.2356 11.6378 18.8996 12.1418C18.573 12.6458 18.111 13.0285 17.5136 13.2898L19.8236 16.9998ZM13.8736 8.94985V11.9318H15.4836C16.025 11.9318 16.445 11.7965 16.7436 11.5258C17.0516 11.2458 17.2056 10.8632 17.2056 10.3778C17.2056 9.90185 17.0563 9.54718 16.7576 9.31385C16.4683 9.07118 16.0016 8.94985 15.3576 8.94985H13.8736ZM24.6619 6.97585C25.4085 6.97585 26.0759 7.08318 26.6639 7.29785C27.2519 7.50318 27.7605 7.76918 28.1899 8.09585L27.1819 9.60785C26.4539 9.11318 25.6419 8.86585 24.7459 8.86585C23.8872 8.86585 23.1965 9.14118 22.6739 9.69185C22.1605 10.2425 21.9039 11.0358 21.9039 12.0718C21.9039 13.1078 22.1512 13.9105 22.6459 14.4798C23.1499 15.0398 23.7985 15.3198 24.5919 15.3198C25.3479 15.3198 25.9639 15.1192 26.4399 14.7178V12.9118H24.0319V11.2598H28.3999V15.7398C27.9612 16.1878 27.4059 16.5472 26.7339 16.8178C26.0619 17.0792 25.3245 17.2098 24.5219 17.2098C23.6819 17.2098 22.8979 17.0325 22.1699 16.6778C21.4419 16.3138 20.8492 15.7538 20.3919 14.9978C19.9439 14.2418 19.7199 13.3038 19.7199 12.1838C19.7199 11.0732 19.9392 10.1258 20.3779 9.34185C20.8165 8.55785 21.4092 7.96985 22.1559 7.57785C22.9025 7.17651 23.7379 6.97585 24.6619 6.97585Z" fill="#0E141B"/>
</g>
<defs>
<clipPath id="clip0_8547_758">
<rect width="32" height="32" fill="white" transform="matrix(-1 0 0 1 32 0)"/>
</clipPath>
</defs>
</svg>
