<svg width="32" height="32" viewBox="0 0 32 32" fill="none" xmlns="http://www.w3.org/2000/svg">
<g clip-path="url(#clip0_8530_1077)">
<path fill-rule="evenodd" clip-rule="evenodd" d="M3.60355 1C2.28957 1 1.3322 2.24744 1.71976 3.50293C3.45322 9.11657 5.00002 11.4216 5.00004 14.5C5.00004 16.8295 2.78522 23.3671 1.30375 27.4795C0.651367 29.2904 1.81644 31.2531 3.73636 31.3906C4.62344 31.4542 5.57983 31.5 6.50004 31.5C25.063 31.5 29.8803 23.9384 30.877 4.09863C30.9617 2.40865 29.6004 1 27.9082 1H3.60355ZM20.1836 9.04395C21.2377 9.04397 22.0828 9.27461 22.7188 9.73633C23.3547 10.1981 23.6729 10.8562 23.6729 11.71C23.6728 12.3371 23.4899 12.9079 23.1241 13.4219C22.7581 13.9272 22.1955 14.4929 21.4375 15.1201L19.543 16.6885H23.9473V18.3486H17.1123V16.7539L19.752 14.5586L19.9746 14.3623C20.3752 14.0227 20.6797 13.7481 20.8887 13.5391C21.1065 13.33 21.2815 13.1082 21.4121 12.873C21.5428 12.6378 21.6075 12.3804 21.6075 12.1016C21.6074 11.6486 21.4424 11.3085 21.1114 11.082C20.789 10.8469 20.3704 10.7295 19.8565 10.7295C19.4732 10.7295 19.0983 10.7902 18.7325 10.9121C18.3754 11.0341 18.062 11.1872 17.792 11.3701L17.1387 9.95801C17.5394 9.67933 17.9969 9.45748 18.5108 9.29199C19.0335 9.12647 19.5912 9.04395 20.1836 9.04395ZM11.5293 9.2002V16.623H15.751V18.3486H9.60843V9.2002H11.5293Z" fill="white"/>
</g>
<defs>
<clipPath id="clip0_8530_1077">
<rect width="32" height="32" fill="white"/>
</clipPath>
</defs>
</svg>
