<svg width="32" height="32" viewBox="0 0 32 32" fill="none" xmlns="http://www.w3.org/2000/svg">
<g clip-path="url(#clip0_8641_4469)">
<path d="M16.9473 27.9512C9.76581 27.9511 3.94434 22.1288 3.94434 14.9473C3.94444 7.76587 9.76587 1.94445 16.9473 1.94434C24.1288 1.94434 29.9511 7.76579 29.9512 14.9473C29.9512 22.1288 24.1288 27.9512 16.9473 27.9512ZM21.0742 19.9961C21.963 19.9961 22.7316 19.851 23.3789 19.5596C24.0358 19.2587 24.533 18.8396 24.8711 18.3037C25.2188 17.7679 25.3926 17.1431 25.3926 16.4287C25.3926 15.47 25.1178 14.7414 24.5674 14.2432C24.0264 13.7355 23.3016 13.4815 22.3936 13.4814C22.0362 13.4814 21.6787 13.5238 21.3213 13.6084C20.9735 13.6836 20.6591 13.8054 20.3789 13.9746V11.6621H24.8135V9.89941H18.3359V14.9902L19.6836 15.709C19.983 15.4741 20.2876 15.3003 20.5967 15.1875C20.9056 15.0654 21.2435 15.004 21.6104 15.0039C22.1031 15.0039 22.4903 15.1309 22.7705 15.3848C23.0603 15.6386 23.2051 16.006 23.2051 16.4854C23.205 17.0304 23.0163 17.4489 22.6396 17.7402C22.2629 18.0316 21.7316 18.1767 21.0459 18.1768C20.1378 18.1768 19.3113 17.9332 18.5674 17.4443L17.8145 19.0234C18.1912 19.3336 18.6645 19.573 19.2344 19.7422C19.8042 19.9114 20.4175 19.9961 21.0742 19.9961ZM16.2168 19.7705V17.9092H11.5361V9.89941H9.40625V19.7705H16.2168Z" fill="white"/>
<path opacity="0.5" d="M16 30.8369C7.80605 30.8369 1.16309 24.1939 1.16309 16C1.1631 7.80607 7.80606 1.16309 16 1.16309C24.1939 1.16309 30.8369 7.80607 30.8369 16C30.8369 24.1939 24.1939 30.8369 16 30.8369ZM21.0742 19.9961C21.963 19.9961 22.7316 19.85 23.3789 19.5586C24.0357 19.2578 24.533 18.8395 24.8711 18.3037C25.2188 17.7679 25.3925 17.143 25.3926 16.4287C25.3926 15.4698 25.118 14.7405 24.5674 14.2422C24.0264 13.7346 23.3015 13.4815 22.3936 13.4814C22.0362 13.4814 21.6787 13.5238 21.3213 13.6084C20.9735 13.6836 20.6591 13.8054 20.3789 13.9746V11.6621H24.8135V9.89941H18.3359V14.9902L19.6836 15.709C19.983 15.474 20.2876 15.3003 20.5967 15.1875C20.9056 15.0654 21.2435 15.004 21.6104 15.0039C22.1031 15.0039 22.4903 15.1309 22.7705 15.3848C23.0601 15.6385 23.205 16.0052 23.2051 16.4844C23.2051 17.0296 23.0164 17.4488 22.6396 17.7402C22.2629 18.0315 21.7316 18.1767 21.0459 18.1768C20.1378 18.1768 19.3113 17.9322 18.5674 17.4434L17.8145 19.0234C18.1912 19.3335 18.6646 19.573 19.2344 19.7422C19.8042 19.9114 20.4175 19.9961 21.0742 19.9961ZM16.2168 19.7705V17.9092H11.5361V9.89941H9.40625V19.7705H16.2168Z" fill="white"/>
</g>
<defs>
<clipPath id="clip0_8641_4469">
<rect width="32" height="32" fill="white" transform="matrix(-1 0 0 -1 32 32)"/>
</clipPath>
</defs>
</svg>
