<svg width="32" height="32" viewBox="0 0 32 32" fill="none" xmlns="http://www.w3.org/2000/svg">
<g clip-path="url(#clip0_8641_4453)">
<path d="M16.9473 29.9512C9.76581 29.9511 3.94434 24.1288 3.94434 16.9473C3.94444 9.76587 9.76587 3.94445 16.9473 3.94434C24.1288 3.94434 29.9511 9.76579 29.9512 16.9473C29.9512 24.1288 24.1288 29.9512 16.9473 29.9512ZM24.6904 21.8291V19.5518H26.1729V17.9326H24.6904V11.8008H22.6953L17.6631 18.1768V19.5518H22.5049V21.8291H24.6904ZM16.3545 21.8291V19.9385H11.6152V11.8008H9.45898V21.8291H16.3545ZM19.7607 17.9326L22.5928 14.3086V17.9326H19.7607Z" fill="white"/>
<path opacity="0.5" d="M16 30.8369C7.80605 30.8369 1.16309 24.1939 1.16309 16C1.1631 7.80607 7.80606 1.16309 16 1.16309C24.1939 1.16309 30.8369 7.80607 30.8369 16C30.8369 24.1939 24.1939 30.8369 16 30.8369ZM24.6904 21.8291V19.5518H26.1729V17.9326H24.6904V11.8008H22.6953L17.6631 18.1768V19.5518H22.5049V21.8291H24.6904ZM16.3545 21.8291V19.9385H11.6152V11.8008H9.45898V21.8291H16.3545ZM19.7607 17.9326L22.5928 14.3086V17.9326H19.7607Z" fill="white"/>
</g>
<defs>
<clipPath id="clip0_8641_4453">
<rect width="32" height="32" fill="white" transform="matrix(-1 0 0 -1 32 32)"/>
</clipPath>
</defs>
</svg>
