<svg width="32" height="32" viewBox="0 0 32 32" fill="none" xmlns="http://www.w3.org/2000/svg">
<g clip-path="url(#clip0_8530_970)">
<path d="M28.3966 1C29.7106 1 30.668 2.24744 30.2804 3.50293C28.5469 9.11657 27.0001 11.4216 27.0001 14.5C27.0001 16.8295 29.2149 23.3671 30.6964 27.4795C31.3488 29.2904 30.1837 31.2531 28.2638 31.3906C27.3767 31.4542 26.4203 31.5 25.5001 31.5C6.93715 31.5 2.11982 23.9384 1.12317 4.09863C1.03849 2.40865 2.39976 1 4.09192 1H28.3966ZM8.4386 9.47852V18.0615H10.2413V15.167H11.7247L13.4542 18.0615H15.4523L13.4298 14.8115C13.9527 14.5827 14.3577 14.2479 14.6437 13.8066C14.9379 13.3653 15.085 12.8133 15.0851 12.1514C15.0851 11.3095 14.8068 10.6554 14.2511 10.1895C13.6952 9.71534 12.8286 9.47852 11.6515 9.47852H8.4386ZM19.5948 9.33105C19.039 9.33105 18.515 9.40816 18.0245 9.56348C17.5423 9.71878 17.1134 9.92792 16.7374 10.1895L17.3507 11.5137C17.6041 11.342 17.8984 11.1984 18.2335 11.084C18.5768 10.9696 18.9286 10.9131 19.2882 10.9131C19.7703 10.9131 20.1626 11.0235 20.465 11.2441C20.7754 11.4567 20.9308 11.7752 20.9308 12.2002C20.9308 12.4617 20.8698 12.7031 20.7472 12.9238C20.6246 13.1444 20.4612 13.3528 20.257 13.5488C20.0608 13.745 19.7745 14.0026 19.3986 14.3213L19.1896 14.5049L16.713 16.5654V18.0615H23.1261V16.5039H18.9933L20.7716 15.0322C21.4827 14.4437 22.0104 13.9125 22.3536 13.4385C22.6968 12.9563 22.8683 12.4205 22.8683 11.832C22.8682 11.0311 22.5694 10.4137 21.9728 9.98047C21.3762 9.54747 20.5835 9.33112 19.5948 9.33105ZM11.5411 11.0107C12.1052 11.0107 12.5143 11.1166 12.7677 11.3291C13.0293 11.5335 13.1593 11.8449 13.1593 12.2617C13.1592 12.6866 13.0246 13.0214 12.755 13.2666C12.4934 13.5037 12.1256 13.6221 11.6515 13.6221H10.2413V11.0107H11.5411Z" fill="white"/>
</g>
<defs>
<clipPath id="clip0_8530_970">
<rect width="32" height="32" fill="white"/>
</clipPath>
</defs>
</svg>
