<svg width="32" height="32" viewBox="0 0 32 32" fill="none" xmlns="http://www.w3.org/2000/svg">
<path d="M29.4543 23.9258C29.5889 24.3241 29.7252 24.7171 29.8586 25.1025L24.9045 31.4951C24.4646 31.4912 24.0327 31.4835 23.6086 31.4707L29.4543 23.9258ZM30.6964 27.4795C31.3488 29.2903 30.1836 31.253 28.2638 31.3906C28.0072 31.409 27.7444 31.4247 27.4787 31.4395L30.6496 27.3477C30.6654 27.3918 30.6807 27.4359 30.6964 27.4795ZM28.3224 20.4209C28.4726 20.9147 28.6313 21.4167 28.7931 21.9209L21.4767 31.3643C20.9544 31.3268 20.4451 31.282 19.9484 31.2285L28.3224 20.4209ZM27.3283 16.7412C27.4577 17.3233 27.6183 17.9639 27.8048 18.6406L18.2277 31.001C17.6398 30.9092 17.0712 30.8057 16.5216 30.6875L27.3283 16.7412ZM27.4328 11.6436C27.1597 12.606 27.0002 13.5131 27.0002 14.5C27.0002 14.6709 27.0126 14.8645 27.0353 15.0781L15.1906 30.3652C14.5575 30.1936 13.9518 30.0019 13.3722 29.7891L22.4601 18.0615H23.1261V17.2012L27.4328 11.6436ZM21.1945 18.0615L12.4054 29.4033C11.7512 29.1216 11.1338 28.8092 10.55 28.4668L18.6125 18.0615H21.1945ZM20.1759 11.0801C20.2797 11.1257 20.3766 11.1796 20.465 11.2441C20.7754 11.4567 20.9308 11.7753 20.9308 12.2002C20.9308 12.4617 20.8698 12.7032 20.7472 12.9238C20.6247 13.1444 20.4611 13.3528 20.257 13.5488C20.0609 13.745 19.7744 14.0026 19.3986 14.3213L19.1896 14.5049L16.7131 16.5654V18.0615H17.6642L9.90739 28.0713C9.25919 27.6469 8.65772 27.1788 8.09684 26.6689L14.7668 18.0615H15.4523L15.1466 17.5703L20.1759 11.0801ZM13.4543 18.0615H14.1349L7.73161 26.3252C7.02795 25.6389 6.39394 24.8796 5.8234 24.043L12.1496 15.8789L13.4543 18.0615ZM15.0548 11.7227C14.9738 11.0845 14.7085 10.5729 14.2511 10.1895C13.6953 9.71537 12.8285 9.47854 11.6515 9.47852H8.43864V18.0615H10.1437L5.67692 23.8242C2.78992 19.4398 1.57075 13.0076 1.12321 4.09863C1.03853 2.40865 2.3998 1 4.09196 1H23.3634L15.0548 11.7227ZM12.0119 15.6484L10.2414 17.9346V15.167H11.7248L12.0119 15.6484ZM20.797 9.46191C20.4349 9.37629 20.0346 9.3311 19.5949 9.33105C19.0391 9.33105 18.515 9.4082 18.0246 9.56348C17.5424 9.71876 17.1134 9.92796 16.7375 10.1895L17.3507 11.5137C17.6041 11.3421 17.8985 11.1984 18.2336 11.084C18.5767 10.9696 18.9287 10.9131 19.2882 10.9131C19.4167 10.9131 19.5388 10.9208 19.6545 10.9365L14.8654 17.1182L13.4298 14.8115C13.9527 14.5827 14.3577 14.2479 14.6437 13.8066C14.9379 13.3653 15.0851 12.8133 15.0851 12.1514C15.0851 12.1324 15.0825 12.1135 15.0822 12.0947L23.6798 1H27.3556L20.797 9.46191ZM30.3625 2.89648C30.3663 3.09488 30.3434 3.29878 30.2804 3.50293C29.6242 5.62792 28.9939 7.27855 28.465 8.67676L22.4015 16.5039H19.8195L21.3517 14.5254C21.7767 14.1343 22.1116 13.7727 22.3537 13.4385C22.5005 13.2321 22.6135 13.015 22.6974 12.7891L30.3625 2.89648ZM11.5412 11.0107C12.1051 11.0108 12.5144 11.1166 12.7677 11.3291C13.0292 11.5335 13.1593 11.8449 13.1593 12.2617C13.1593 12.6865 13.0246 13.0214 12.755 13.2666C12.4935 13.5036 12.1255 13.622 11.6515 13.6221H10.2414V11.0107H11.5412ZM28.3966 1C29.1477 1.00007 29.781 1.40844 30.1144 1.99219L22.8341 11.3877C22.7409 10.7991 22.4539 10.3298 21.9728 9.98047C21.7729 9.8354 21.5497 9.71754 21.3058 9.62109L27.9865 1H28.3966Z" fill="white"/>
</svg>
