<svg width="32" height="32" viewBox="0 0 32 32" fill="none" xmlns="http://www.w3.org/2000/svg">
<path fill-rule="evenodd" clip-rule="evenodd" d="M2.15981 8.20544C1.48118 8.20544 0.930525 8.66874 0.930323 9.2406V23.0209C0.930582 23.5927 1.48122 24.056 2.15981 24.056H29.1979C29.8764 24.0559 30.4262 23.5926 30.4264 23.0209V18.7572C30.4796 13.409 20.6126 8.15916 11.6159 8.29529L2.15981 8.20544ZM20.1266 13.0004V19.2269H21.5153V20.6068H16.8473V19.2269H18.57V14.7601L17.0358 15.434L16.5446 14.2386L18.9459 13.0004H20.1266ZM12.2975 13.0004C13.2998 13.0004 14.0381 13.2101 14.5114 13.6302C14.9845 14.0431 15.2213 14.6227 15.2213 15.3685C15.2213 15.9553 15.096 16.4451 14.8454 16.8363C14.6017 17.2274 14.2566 17.5241 13.8112 17.7269L15.5338 20.6068H13.8327L12.36 18.0424H11.0963V20.6068H9.56216V13.0004H12.2975ZM11.0963 14.3588V16.6732H12.2975C12.7011 16.6732 13.0142 16.5678 13.237 16.3578C13.4666 16.1405 13.5816 15.8436 13.5817 15.4672C13.5817 15.0978 13.4703 14.8221 13.2477 14.641C13.032 14.4527 12.6839 14.3588 12.2038 14.3588H11.0963Z" fill="white"/>
</svg>
