<svg width="32" height="32" viewBox="0 0 32 32" fill="none" xmlns="http://www.w3.org/2000/svg">
<g clip-path="url(#clip0_8547_712)">
<path d="M15.7142 30.6065C13.1348 31.3617 9.65488 31.2029 6.62531 30.8037C6.29738 30.7605 5.97998 30.6928 5.67316 30.6065H15.7142ZM19.4691 27.6075C19.1808 28.1016 18.8969 28.5218 18.6204 28.8565H2.73468C2.36807 28.4798 2.04653 28.0601 1.77277 27.6075H19.4691ZM20.9407 24.6075C20.7108 25.139 20.4808 25.6403 20.2552 26.1075H1.08624C0.928697 25.6258 0.817847 25.1236 0.760071 24.6075H20.9407ZM22.1526 21.6084C21.9223 22.2117 21.6912 22.7962 21.4632 23.3575H0.723938C0.733567 23.1692 0.748182 22.9799 0.77179 22.7901C0.819459 22.4069 0.870611 22.0126 0.92218 21.6084H22.1526ZM23.2591 18.6084C23.0155 19.2874 22.7723 19.9563 22.5296 20.6084H1.05109C1.13556 19.9605 1.22452 19.2921 1.31769 18.6084H23.2591ZM4.6839 15.6094V17H11.264V15.6094H11.9612C12.341 16.0632 12.7869 16.4202 13.3021 16.6778C14.0299 17.0323 14.8138 17.21 15.6536 17.21C16.4561 17.21 17.1937 17.0796 17.8655 16.8184C18.5374 16.5478 19.0929 16.1881 19.5316 15.7403V15.6094H24.3187C24.0554 16.3629 23.7899 17.115 23.5257 17.8584H1.42023C1.52236 17.1216 1.62935 16.3698 1.74054 15.6094H4.6839ZM25.4944 12.25C25.164 13.1904 24.8286 14.1488 24.4935 15.1094H19.5316V12.25H25.4944ZM15.1634 12.25V12.9121H17.5716V14.7178C17.3758 14.8829 17.1555 15.0121 16.9124 15.1094H14.6419C14.3177 14.9692 14.0295 14.7594 13.7776 14.4795C13.3119 13.9433 13.0684 13.2001 13.0413 12.25H15.1634ZM10.8538 12.25C10.8625 13.3407 11.0846 14.2571 11.5237 14.9981C11.5468 15.0362 11.5723 15.0723 11.596 15.1094H6.74152V12.25H10.8538ZM4.6839 12.25V15.1094H1.81281C1.95288 14.1632 2.10239 13.2063 2.25519 12.25H4.6839ZM10.6409 0.989296C22.9082 0.946854 33.6525 0.809151 31.0003 1.00004C29.5679 1.1031 27.6394 6.15786 25.5823 12H19.5316V11.2598H15.1634V12H13.0374C13.0492 10.9994 13.3047 10.2302 13.806 9.69242C14.3286 9.14177 15.0196 8.86625 15.8782 8.86625C16.774 8.86635 17.5859 9.11387 18.3138 9.60844L19.3216 8.09574C18.8924 7.76925 18.3839 7.50316 17.7962 7.29789C17.2084 7.08328 16.5407 6.97568 15.7943 6.97562C14.8703 6.97562 14.0341 7.17686 13.2874 7.57816C12.541 7.97012 11.9487 8.55808 11.5101 9.34183C11.0958 10.0822 10.8788 10.9683 10.8558 12H6.74152V7.20023H4.6839V12H2.29523C2.56868 10.3008 2.85867 8.6077 3.1673 6.9893C3.84571 3.43257 7.02007 1.00182 10.6409 0.989296Z" fill="white"/>
</g>
<defs>
<clipPath id="clip0_8547_712">
<rect width="32" height="32" fill="white"/>
</clipPath>
</defs>
</svg>
