<svg width="32" height="32" viewBox="0 0 32 32" fill="none" xmlns="http://www.w3.org/2000/svg">
<g clip-path="url(#clip0_8547_813)">
<path d="M16.2854 30.6063C18.8647 31.3616 22.3447 31.2027 25.3742 30.8036C25.7031 30.7602 26.0217 30.693 26.3293 30.6063H16.2854ZM12.5305 27.6073C12.8187 28.1014 13.1026 28.5216 13.3791 28.8563H29.2658C29.6323 28.4797 29.9531 28.0597 30.2268 27.6073H12.5305ZM11.0588 24.6073C11.2887 25.1388 11.5187 25.6401 11.7444 26.1073H30.9133C31.0708 25.6256 31.1817 25.1235 31.2395 24.6073H11.0588ZM9.8469 21.6083C10.0773 22.2115 10.3083 22.796 10.5364 23.3573H31.2756C31.266 23.1691 31.2514 22.9796 31.2278 22.7899C31.1801 22.4067 31.1289 22.0124 31.0774 21.6083H9.8469ZM8.74046 18.6083C8.98403 19.2872 9.22724 19.9561 9.46995 20.6083H30.9494C30.865 19.9603 30.776 19.2919 30.6828 18.6083H8.74046ZM7.68089 15.6092C7.94417 16.3627 8.20967 17.1148 8.47385 17.8583H30.5793C30.4772 17.1214 30.3702 16.3697 30.259 15.6092H28.3996V15.7401C27.961 16.1879 27.4054 16.5466 26.7336 16.8172C26.0617 17.0785 25.3242 17.2098 24.5217 17.2098C23.6818 17.2098 22.8971 17.0322 22.1692 16.6776C21.6543 16.42 21.2088 16.063 20.8293 15.6092H18.9573L19.8235 16.9999H17.5412L16.7112 15.6092H13.8733V16.9999H11.8157V15.6092H7.68089ZM28.3996 15.1092H30.1867C30.0467 14.1631 29.8981 13.2061 29.7453 12.2499H28.3996V15.1092ZM21.9094 12.2499C21.9365 13.2 22.18 13.9431 22.6457 14.4793C22.8978 14.7594 23.1865 14.9693 23.511 15.1092H25.7805C26.0237 15.0121 26.2438 14.8827 26.4397 14.7176V12.912H24.0315V12.2499H21.9094ZM18.8235 12.2499C18.5023 12.7001 18.0662 13.0478 17.5129 13.2899L18.6457 15.1092H20.4641C20.4404 15.0722 20.4148 15.0359 20.3918 14.9979C19.9528 14.2569 19.7306 13.3405 19.7219 12.2499H18.8235ZM13.8733 15.1092H16.4123L15.5676 13.6952H13.8733V15.1092ZM6.5051 12.2499C6.83555 13.1902 7.17091 14.1486 7.50608 15.1092H11.8157V12.2499H6.5051ZM21.3596 0.988136C9.09294 0.945698 -1.65131 0.809015 0.999245 0.999855C2.43163 1.10292 4.36015 6.1578 6.41721 11.9999H11.8157V7.20005H15.4836C16.8273 7.20009 17.8168 7.47044 18.4514 8.01157C19.086 8.54354 19.4035 9.29057 19.4035 10.2518C19.4035 10.9388 19.2631 11.5209 18.9856 11.9999H19.7248C19.7478 10.9683 19.963 10.082 20.3772 9.34165C20.8158 8.55778 21.409 7.96998 22.1555 7.57798C22.902 7.17672 23.7376 6.97551 24.6614 6.97544C25.4078 6.97544 26.0754 7.08317 26.6633 7.29771C27.2512 7.50299 27.7604 7.76899 28.1897 8.09556L27.1819 9.60728C26.4539 9.11275 25.6412 8.86607 24.7453 8.86607C23.8869 8.86618 23.1956 9.1407 22.6731 9.69126C22.1718 10.229 21.9172 10.9993 21.9055 11.9999H24.0315V11.2596H28.3996V11.9999H29.7053C29.4318 10.3007 29.1409 8.60749 28.8323 6.98911C28.1538 3.43256 24.9803 1.00079 21.3596 0.988136ZM13.8733 11.9315H15.4836C16.0248 11.9314 16.4448 11.7958 16.7434 11.5252C17.0512 11.2453 17.2053 10.8629 17.2053 10.3778C17.2053 9.90188 17.0557 9.54663 16.7571 9.31333C16.4677 9.07104 16.001 8.95009 15.3576 8.95005H13.8733V11.9315Z" fill="white"/>
</g>
<defs>
<clipPath id="clip0_8547_813">
<rect width="32" height="32" fill="white" transform="matrix(-1 0 0 1 32 0)"/>
</clipPath>
</defs>
</svg>
