<?xml version="1.0"?>
<svg xmlns="http://www.w3.org/2000/svg" viewBox="0 0 24 24" fill="none">
  <path fill="" fill-rule="evenodd" clip-rule="evenodd" d="M16.5074 9.71331C16.0849 10.3253 15.8234 11.0515 15.7827 11.8345L15.777 12.0501L15.7827 12.2656C15.8979 14.4811 17.7786 16.243 20.0817 16.243C21.2082 16.2429 22.2328 15.8204 23 15.1304V20H1V5H15.7999L16.5074 9.71331ZM4.78841 17.8571H17.9884L14.2931 13.7012L12.7484 15.4367L9.83724 12.1429L4.78841 17.8571ZM5.21667 7.5C4.68181 7.5 4.16902 7.7071 3.79082 8.07547C3.41262 8.44385 3.2 8.94333 3.2 9.46429C3.2 9.85274 3.31862 10.2322 3.54017 10.5552C3.76174 10.8782 4.07622 11.1306 4.44466 11.2793C4.81307 11.4279 5.21872 11.4666 5.60983 11.3909C6.00103 11.3151 6.36048 11.1278 6.64251 10.8531C6.92455 10.5784 7.11685 10.2283 7.19466 9.84724C7.2724 9.46629 7.23268 9.07118 7.08008 8.71233C6.92743 8.35346 6.66832 8.04715 6.33672 7.83133C6.0051 7.61554 5.61548 7.5 5.21667 7.5Z"/>
  <path fill="" d="M18.6944 8.77897L18 4H22L21.3294 8.77897H18.6944Z"/>
  <path fill="" d="M20.0133 14C20.954 14 21.7166 13.2324 21.7166 12.2855C21.7166 11.3387 20.954 10.5711 20.0133 10.5711C19.0726 10.5711 18.3101 11.3387 18.3101 12.2855C18.3101 13.2324 19.0726 14 20.0133 14Z"/>
</svg>
