<?xml version="1.0"?>
<svg xmlns="http://www.w3.org/2000/svg" viewBox="0 0 36 36" fill="none">
  <path fill="currentColor" d="M17.68 4C21.2151 4 24.6516 5.16662 27.4562 7.31865C28.8604 8.39614 30.0662 9.691 31.0358 11.1436L33.3601 10.1298L32.6946 16.0357L27.9126 12.5063L30.0764 11.5622C29.187 10.2646 28.0941 9.10583 26.8293 8.13534C24.2045 6.12126 20.9885 5.02941 17.68 5.02941C14.3715 5.02941 11.1555 6.12126 8.53073 8.13534C7.26591 9.10588 6.17264 10.2645 5.28326 11.5622L7.44744 12.5063L2.6655 16.0357L2 10.1298L4.32382 11.1436C5.2935 9.69085 6.49993 8.39621 7.90424 7.31865C10.7088 5.16664 14.145 4 17.68 4Z"/>
  <path fill="currentColor" d="M6.5625 21.0884C6.5625 19.1554 8.1295 17.5884 10.0625 17.5884H25.2978C27.2308 17.5884 28.7978 19.1554 28.7978 21.0884V21.0884C28.7978 23.0214 27.2308 24.5884 25.2978 24.5884H10.0625C8.1295 24.5884 6.5625 23.0214 6.5625 21.0884V21.0884Z"/>
  <path fill="currentColor" d="M11.0918 23.353H24.2683V32.0001H11.0918V23.353Z"/>
</svg>
