<?xml version="1.0"?>
<svg xmlns="http://www.w3.org/2000/svg" viewBox="0 0 402 192" fill="none">
  <path fill="currentColor" d="M199.064 34.9453C201.684 34.9453 203.813 32.8164 203.813 30.197C203.813 27.5776 201.684 25.4487 199.064 25.4487C196.445 25.4487 194.316 27.5776 194.316 30.197C194.316 32.8164 196.445 34.9453 199.064 34.9453Z"/>
  <path fill="currentColor" d="M162.236 28.3158H171.647C172.795 28.3158 173.725 27.3853 173.725 26.2374C173.725 25.0896 172.795 24.1187 171.647 24.1187H162.236C161.088 24.1187 160.158 25.0491 160.158 26.197C160.158 27.3449 161.088 28.3158 162.236 28.3158Z"/>
  <path fill="currentColor" d="M193.659 92.8247C192.734 86.2458 187.04 81.2852 180.405 81.2852C179.778 81.2852 179.146 81.3307 178.519 81.4166L155.475 84.653C151.93 85.1536 148.79 86.9993 146.636 89.8614C144.482 92.7185 143.572 96.2481 144.067 99.7929L147.304 122.837C148.229 129.415 153.923 134.376 160.557 134.376C161.184 134.376 161.816 134.331 162.444 134.245L185.487 131.008C192.804 129.982 197.922 123.191 196.895 115.873L193.659 92.8297V92.8247Z"/>
  <path fill="currentColor" d="M89.9397 84.6583L66.896 81.422C66.2689 81.336 65.6368 81.2905 65.0098 81.2905C58.3804 81.2905 52.6814 86.2512 51.756 92.8301L48.5197 115.874C47.4932 123.191 52.6106 129.982 59.9278 131.009L82.9714 134.245C83.5985 134.331 84.2306 134.376 84.8576 134.376C91.487 134.376 97.186 129.416 98.1114 122.837L101.348 99.7932C101.848 96.2484 100.933 92.7239 98.7789 89.8617C96.6247 87.0047 93.4844 85.1539 89.9397 84.6533V84.6583Z"/>
  <path fill="currentColor" d="M73.768 28.3158H83.1787C84.3265 28.3158 85.257 27.3853 85.257 26.2374C85.257 25.0896 84.3265 24.1187 83.1787 24.1187H73.768C72.6201 24.1187 71.6897 25.0491 71.6897 26.197C71.6897 27.3449 72.6201 28.3158 73.768 28.3158Z"/>
  <path fill="currentColor" d="M186.049 47.9614C188.668 47.9614 190.797 45.8325 190.797 43.2131C190.797 40.5937 188.668 38.4648 186.049 38.4648C183.429 38.4648 181.3 40.5937 181.3 43.2131C181.3 45.8325 183.429 47.9614 186.049 47.9614Z"/>
  <path fill="currentColor" d="M127.279 39.6277C127.279 38.7074 126.53 37.959 125.61 37.959C124.69 37.959 123.941 38.7074 123.941 39.6277C123.941 40.548 124.69 41.2964 125.61 41.2964C126.53 41.2964 127.279 40.548 127.279 39.6277Z"/>
  <path fill="currentColor" d="M31.9435 47.0663H37.6829C40.1102 47.0663 42.0823 49.0385 42.0823 51.4657V57.8929C42.0823 58.1103 42.2593 58.2873 42.4767 58.2873H50.2743C50.4917 58.2873 50.6687 58.1103 50.6687 57.8929V51.4657C50.6687 49.0385 52.6408 47.0663 55.0681 47.0663H60.8075C61.0249 47.0663 61.2019 46.8893 61.2019 46.6719V40.2599C61.2019 40.0425 61.0249 39.8655 60.8075 39.8655H55.0681C52.6408 39.8655 50.6687 37.8934 50.6687 35.4661V29.039C50.6687 28.8215 50.4917 28.6445 50.2743 28.6445H42.4767C42.2593 28.6445 42.0823 28.8215 42.0823 29.039V35.4661C42.0823 37.8934 40.1102 39.8655 37.6829 39.8655H31.9435C31.7261 39.8655 31.5491 40.0425 31.5491 40.2599V46.6719C31.5491 46.8893 31.7261 47.0663 31.9435 47.0663Z"/>
  <path fill="currentColor" d="M129.145 104.582H116.27C114.768 104.582 113.545 105.806 113.545 107.308C113.545 108.809 114.768 110.084 116.27 110.084H129.145C130.647 110.084 131.87 108.86 131.87 107.358C131.87 105.856 130.647 104.582 129.145 104.582Z"/>
  <path fill="currentColor" d="M159.146 53.6504C154.595 53.6504 150.889 57.3519 150.889 61.903C150.889 66.4541 154.59 70.1607 159.146 70.1607C163.703 70.1607 167.404 66.4592 167.404 61.903C167.404 57.3469 163.703 53.6504 159.146 53.6504Z"/>
  <path fill="currentColor" d="M222.027 33.4029C220.075 28.2349 217.325 24.2148 213.153 21.0897C212.905 20.5284 212.591 19.957 212.197 19.3856C208.157 13.5501 192.784 8.4579 181.786 10.961C180.845 11.1734 179.996 11.5071 179.237 11.9117C165.275 10.7284 146.939 10.4402 122.712 10.4402C98.4855 10.4402 80.1497 10.7284 66.188 11.9117C65.4244 11.5122 64.5749 11.1784 63.6394 10.961C52.6409 8.4579 37.2683 13.5501 33.228 19.3856C32.8336 19.957 32.52 20.5284 32.2723 21.0897C28.1055 24.2148 25.3496 28.2349 23.3976 33.4029C14.9427 55.7841 0 109.285 0 140.409C0 171.533 8.86451 188.322 32.8235 188.322C38.4213 188.322 41.7031 186.006 44.1961 182.239C48.9292 175.093 50.5525 155.514 60.489 150.735C64.7569 148.682 66.5268 147.954 122.707 147.954C178.888 147.954 180.663 148.682 184.926 150.735C194.862 155.514 196.486 175.098 201.219 182.239C203.717 186.006 206.994 188.322 212.591 188.322C236.55 188.322 245.415 171.533 245.415 140.409C245.415 109.285 230.472 55.7841 222.022 33.4029H222.027ZM212.081 35.4307C216.379 35.4307 219.863 38.9148 219.863 43.213C219.863 47.5113 216.379 50.9954 212.081 50.9954C207.782 50.9954 204.298 47.5113 204.298 43.213C204.298 38.9148 207.782 35.4307 212.081 35.4307ZM206.847 56.2291C206.847 60.5274 203.363 64.0115 199.065 64.0115C194.766 64.0115 191.282 60.5274 191.282 56.2291C191.282 51.9309 194.766 48.4468 199.065 48.4468C203.363 48.4468 206.847 51.9309 206.847 56.2291ZM199.065 22.4196C203.363 22.4196 206.847 25.9037 206.847 30.202C206.847 34.5002 203.363 37.9843 199.065 37.9843C194.766 37.9843 191.282 34.5002 191.282 30.202C191.282 25.9037 194.766 22.4196 199.065 22.4196ZM186.048 35.4307C190.347 35.4307 193.831 38.9148 193.831 43.213C193.831 47.5113 190.347 50.9954 186.048 50.9954C181.75 50.9954 178.266 47.5113 178.266 43.213C178.266 38.9148 181.75 35.4307 186.048 35.4307ZM162.236 21.0846H171.647C174.463 21.0846 176.759 23.3804 176.759 26.197C176.759 29.0136 174.463 31.3499 171.647 31.3499H162.236C159.42 31.3499 157.124 29.0541 157.124 26.2375C157.124 23.4209 159.42 21.0846 162.236 21.0846ZM122.707 23.4866C124.214 23.4866 125.438 24.7103 125.438 26.2173C125.438 27.7242 124.214 28.9479 122.707 28.9479C121.201 28.9479 119.977 27.7242 119.977 26.2173C119.977 24.7103 121.201 23.4866 122.707 23.4866ZM122.692 33.0742C127.567 33.0742 131.521 37.0286 131.521 41.9033C131.521 46.7781 127.567 50.7324 122.692 50.7324C118.652 50.7324 115.244 48.017 114.197 44.3104L117.58 45.7111C117.807 46.8539 118.819 47.7186 120.032 47.7186C121.413 47.7186 122.53 46.596 122.53 45.2206C122.53 45.1801 122.53 45.1397 122.53 45.1043L125.534 42.9602C125.534 42.9602 125.585 42.9602 125.61 42.9602C127.446 42.9602 128.942 41.4685 128.942 39.6278C128.942 37.7871 127.451 36.2954 125.61 36.2954C123.769 36.2954 122.278 37.7871 122.278 39.6278C122.278 39.643 122.278 39.6581 122.278 39.6733L120.174 42.7225C120.128 42.7225 120.083 42.7225 120.032 42.7225C119.512 42.7225 119.026 42.8843 118.627 43.1574L113.893 41.2004C114.253 36.6544 118.055 33.0793 122.692 33.0793V33.0742ZM120.488 43.926L119.365 43.4608C119.795 43.299 120.29 43.2889 120.745 43.481C121.206 43.6732 121.57 44.0373 121.757 44.4975C121.949 44.9627 121.949 45.4684 121.757 45.9336C121.357 46.8893 120.26 47.3394 119.304 46.9449C118.864 46.7629 118.531 46.4241 118.338 46.0246L119.421 46.4746C120.123 46.7679 120.933 46.4342 121.226 45.7313C121.519 45.0284 121.185 44.2193 120.482 43.926H120.488ZM123.385 39.6278C123.385 38.4041 124.381 37.4079 125.605 37.4079C126.829 37.4079 127.825 38.4041 127.825 39.6278C127.825 40.8515 126.829 41.8477 125.605 41.8477C124.381 41.8477 123.385 40.8515 123.385 39.6278ZM73.7681 21.0846H83.1787C85.9953 21.0846 88.2911 23.3804 88.2911 26.197C88.2911 29.0136 85.9953 31.3499 83.1787 31.3499H73.7681C70.9515 31.3499 68.6557 29.0541 68.6557 26.2375C68.6557 23.4209 70.9515 21.0846 73.7681 21.0846ZM28.5151 40.2599C28.5151 38.3687 30.0473 36.8314 31.9436 36.8314H37.683C38.4365 36.8314 39.0483 36.2195 39.0483 35.4661V29.0389C39.0483 27.1477 40.5805 25.6104 42.4768 25.6104H50.2743C52.1656 25.6104 53.7028 27.1426 53.7028 29.0389V35.4661C53.7028 36.2195 54.3147 36.8314 55.0682 36.8314H60.8076C62.6988 36.8314 64.2361 38.3636 64.2361 40.2599V46.6719C64.2361 48.5631 62.7039 50.1003 60.8076 50.1003H55.0682C54.3147 50.1003 53.7028 50.7122 53.7028 51.4657V57.8928C53.7028 59.784 52.1706 61.3213 50.2743 61.3213H42.4768C40.5856 61.3213 39.0483 59.7891 39.0483 57.8928V51.4657C39.0483 50.7122 38.4365 50.1003 37.683 50.1003H31.9436C30.0523 50.1003 28.5151 48.5682 28.5151 46.6719V40.2599ZM103.598 100.112L100.362 123.155C99.2592 130.988 92.5489 136.652 84.8576 136.652C84.1294 136.652 83.3962 136.601 82.6579 136.495L59.6142 133.259C51.0379 132.055 45.0659 124.126 46.2694 115.55L49.5057 92.5064C50.6081 84.6734 57.3184 79.0099 65.0098 79.0099C65.7379 79.0099 66.4712 79.0604 67.2095 79.1666L90.2531 82.403C98.8294 83.6065 104.801 91.5355 103.598 100.112ZM129.145 113.118H116.27C113.095 113.118 110.511 110.534 110.511 107.358C110.511 104.182 113.095 101.548 116.27 101.548H129.145C132.32 101.548 134.904 104.132 134.904 107.308C134.904 110.483 132.32 113.118 129.145 113.118ZM185.806 133.259L162.762 136.495C162.024 136.601 161.285 136.652 160.562 136.652C152.871 136.652 146.156 130.988 145.058 123.155L141.822 100.112C140.618 91.5355 146.591 83.6115 155.167 82.403L178.21 79.1666C178.949 79.0604 179.687 79.0099 180.41 79.0099C188.101 79.0099 194.817 84.6734 195.914 92.5064L199.151 115.55C200.354 124.126 194.382 132.05 185.806 133.259ZM218.74 148.738C216.945 129.345 214.761 109.765 209.78 90.9185C208.885 87.7378 207.868 84.5925 206.554 81.6141C205.573 79.4549 204.46 77.2956 202.766 75.6825C201.618 74.6307 200.293 73.5738 198.984 72.7294C196.946 71.4905 194.655 70.7471 192.314 70.2414C189.153 69.5082 185.846 69.1896 182.564 68.8407C180.076 68.684 177.583 68.5474 175.096 68.4159C172.527 74.6964 166.352 79.1262 159.146 79.1262C151.941 79.1262 145.175 74.2565 142.849 67.4906C136.138 67.4198 129.423 67.4046 122.707 67.4349C115.992 67.4046 109.277 67.4198 102.566 67.4906C100.245 74.2616 93.8283 79.1262 86.2734 79.1262C78.7186 79.1262 72.8983 74.7015 70.3295 68.4261C67.8365 68.5525 65.3435 68.684 62.8556 68.8407C59.5737 69.1896 56.2666 69.5082 53.1061 70.2414C50.7649 70.7421 48.4792 71.4905 46.4363 72.7294C45.1215 73.5738 43.8017 74.6257 42.6538 75.6825C40.9547 77.2956 39.8473 79.4549 38.8663 81.6141C37.5515 84.5925 36.5351 87.7378 35.6401 90.9185C30.6642 109.77 28.4797 129.35 26.6795 148.738C26.5935 149.643 25.2737 149.562 25.3243 148.672C25.3496 148.181 26.5986 128.025 29.6832 110.069C31.3873 100.172 33.142 90.1499 37.0357 80.805C38.0926 78.4435 39.3265 76.0163 41.2683 74.1756C42.229 73.2856 43.1999 72.4866 44.2416 71.7028C49.5512 67.9052 56.3981 67.4248 62.6584 66.7068C64.9693 66.5247 67.2802 66.373 69.5962 66.2415C69.2372 64.856 69.0451 63.4047 69.0451 61.9028C69.0451 52.386 76.7566 44.6744 86.2734 44.6744C95.7903 44.6744 103.502 52.386 103.502 61.9028C103.502 63.076 103.386 64.2188 103.163 65.3212C109.681 65.2757 116.199 65.2656 122.712 65.2201C129.226 65.2656 135.744 65.2757 142.262 65.3212C142.039 64.2188 141.923 63.076 141.923 61.9028C141.923 52.386 149.635 44.6744 159.152 44.6744C168.668 44.6744 176.38 52.386 176.38 61.9028C176.38 63.3996 176.188 64.8509 175.829 66.2314C178.14 66.368 180.451 66.5247 182.762 66.7068C189.022 67.4248 195.869 67.9052 201.178 71.7028C202.225 72.4866 203.191 73.2907 204.152 74.1756C206.093 76.0163 207.322 78.4435 208.384 80.805C212.283 90.155 214.038 100.172 215.737 110.069C218.826 128.025 220.07 148.181 220.096 148.672C220.141 149.557 218.826 149.638 218.74 148.738Z"/>
  <path fill="currentColor" d="M159.146 47.7085C151.319 47.7085 144.952 54.075 144.952 61.9028C144.952 69.7307 151.319 76.0972 159.146 76.0972C166.974 76.0972 173.341 69.7307 173.341 61.9028C173.341 54.075 166.974 47.7085 159.146 47.7085ZM159.146 73.1946C152.911 73.1946 147.855 68.1378 147.855 61.9028C147.855 55.6678 152.911 50.6161 159.146 50.6161C165.381 50.6161 170.438 55.6729 170.438 61.9028C170.438 68.1328 165.381 73.1946 159.146 73.1946Z"/>
  <path fill="currentColor" d="M212.081 47.9614C214.7 47.9614 216.829 45.8325 216.829 43.2131C216.829 40.5937 214.7 38.4648 212.081 38.4648C209.461 38.4648 207.333 40.5937 207.333 43.2131C207.333 45.8325 209.461 47.9614 212.081 47.9614Z"/>
  <path fill="currentColor" d="M199.064 51.481C196.445 51.481 194.316 53.6099 194.316 56.2293C194.316 58.8487 196.445 60.9776 199.064 60.9776C201.684 60.9776 203.813 58.8487 203.813 56.2293C203.813 53.6099 201.684 51.481 199.064 51.481Z"/>
  <path fill="currentColor" d="M86.2684 53.6504C81.7174 53.6504 78.0107 57.3519 78.0107 61.903C78.0107 66.4541 81.7123 70.1607 86.2684 70.1607C90.8246 70.1607 94.5261 66.4592 94.5261 61.903C94.5261 57.3469 90.8246 53.6504 86.2684 53.6504Z"/>
  <path fill="currentColor" d="M86.2683 47.7085C78.4404 47.7085 72.074 54.075 72.074 61.9028C72.074 69.7307 78.4404 76.0972 86.2683 76.0972C94.0962 76.0972 100.463 69.7307 100.463 61.9028C100.463 54.075 94.0962 47.7085 86.2683 47.7085ZM86.2683 73.1946C80.0333 73.1946 74.9766 68.1378 74.9766 61.9028C74.9766 55.6678 80.0333 50.6161 86.2683 50.6161C92.5033 50.6161 97.5601 55.6729 97.5601 61.9028C97.5601 68.1328 92.5033 73.1946 86.2683 73.1946Z"/>
  <path stroke="currentColor" d="M362.252 157.065C362.252 146.379 353.59 137.717 342.904 137.717H303.964C299.878 137.717 296.566 134.404 296.566 130.319C296.566 126.233 299.848 122.921 303.934 122.921C321.284 122.921 365.27 122.921 392.181 122.921C395.952 122.921 399 119.863 399 116.092C399 112.32 395.943 109.263 392.171 109.263H304.533C300.133 109.263 296.566 105.696 296.566 101.296C296.566 96.8956 300.133 93.3286 304.533 93.3286H392.171C395.943 93.3286 399 90.2711 399 86.4996C399 82.7281 395.971 79.6707 392.2 79.6707C385.279 79.6707 373.977 79.6707 362.579 79.6707C342.464 79.6707 326.158 63.3644 326.158 43.2496V5.69043" stroke-width="4.55263"/>
  <rect fill="currentColor" x="312.5" width="27.3158" height="6.82895"/>
  <path fill="currentColor" d="M383.066 166.171C388.095 166.171 392.171 170.248 392.171 175.276V182.105C392.17 187.134 388.095 191.21 383.066 191.21H339.816C334.787 191.21 330.711 187.133 330.711 182.104V175.276C330.711 170.248 334.787 166.171 339.816 166.171H383.066ZM351.564 172.878C350.352 172.878 349.369 173.861 349.369 175.073C349.369 176.285 350.352 177.269 351.564 177.269C352.776 177.268 353.758 176.285 353.759 175.073C353.759 173.861 352.776 172.878 351.564 172.878ZM361.441 172.878C360.229 172.878 359.246 173.861 359.246 175.073C359.246 176.285 360.229 177.269 361.441 177.269C362.653 177.268 363.635 176.285 363.635 175.073C363.635 173.861 362.653 172.878 361.441 172.878ZM370.22 172.878C369.008 172.878 368.025 173.861 368.025 175.073C368.025 176.285 369.008 177.269 370.22 177.269C371.433 177.269 372.416 176.285 372.416 175.073C372.416 173.861 371.433 172.878 370.22 172.878Z"/>
  <rect fill="currentColor" x="358.027" y="157.066" width="9.10526" height="9.10526"/>
</svg>
