<?xml version="1.0"?>
<svg xmlns="http://www.w3.org/2000/svg" viewBox="0 0 813 153" fill="none">
  <rect fill="#55FF00" opacity="0.8" x="214.988" y="1.30371" width="45" height="45" rx="30" transform="rotate(5.20229 214.988 1.30371)" fill-opacity="0.3">
    <animate attributeName="fill-opacity" values="0.27;0;0.27" dur="2s" repeatCount="indefinite" calcMode="spline" keySplines="0.4 0 0.6 1; 0.4 0 0.6 1"/>
  </rect>
  <path stroke="currentColor" d="M812.892 111.646C577.731 105.411 697.091 46.3291 460.003 46.3291" stroke-width="5.76327"/>
  <path fill="currentColor" d="M422.911 42.4865C421.85 42.4865 420.989 43.3466 420.989 44.4076L420.989 48.2498C420.99 49.3108 421.85 50.1709 422.911 50.1709L436.358 50.1709C437.419 50.1709 438.279 49.3108 438.279 48.2498L438.279 44.4076C438.279 43.3466 437.419 42.4865 436.358 42.4865L422.911 42.4865Z"/>
  <rect stroke="currentColor" fill="currentColor" x="2.88163" y="2.88163" width="9.60544" height="27.043" transform="matrix(8.78456e-08 -1 -1 -2.17505e-08 465.767 54.0142)" stroke-width="5.76327"/>
  <path fill="#1A9FFF" d="M363.918 47.6875C363.168 46.9373 363.168 45.7209 363.918 44.9707L376.144 32.745C376.894 31.9947 378.111 31.9947 378.861 32.745C379.611 33.4952 379.611 34.7115 378.861 35.4618L367.993 46.3291L378.861 57.1964C379.611 57.9467 379.611 59.163 378.861 59.9133C378.111 60.6635 376.894 60.6635 376.144 59.9133L363.918 47.6875ZM401.777 46.3291V48.2502H365.277V46.3291V44.408H401.777V46.3291Z"/>
  <path fill="currentColor" d="M94.6276 91.6852C67.2768 104.21 43.2679 115.199 6.54441 115.199C4.40733 115.199 2.22586 115.161 0 115.085C1.57903 136.285 16.4625 152.88 50.3767 152.88C100.252 152.88 146.818 113.436 183.96 113.436C195.039 113.436 201.139 115.022 203.511 115.022C205.882 115.022 209.808 113.367 211.989 110.951C215.154 107.45 219.517 79.852 221.597 72.071C222.954 66.9978 224.019 62.7807 224.989 59.2295C161.422 61.1066 125.973 77.3344 94.6339 91.6852H94.6276Z"/>
  <path fill="currentColor" d="M156.717 12.6005H158.638V14.8074C158.727 14.8074 158.816 14.8074 158.905 14.8074C168.024 15.0039 176.401 15.2069 184.068 15.4288V12.5942H186.065C189.876 12.5942 192.996 10.1083 192.996 6.29709C192.996 2.48586 189.876 0 186.065 0H156.717C152.906 0 149.786 2.48586 149.786 6.29709C149.786 10.1083 152.906 12.5942 156.717 12.5942V12.6005Z"/>
  <path fill="currentColor" d="M46.5336 56.0146C58.3794 50.3643 69.8258 46.5848 77.6195 44.0165C79.2493 43.4775 80.6571 43.0145 81.9 42.5896C108.388 33.5213 129.804 28.6257 136.684 27.1481C132.131 25.1062 126.874 24.5862 121.724 26.0447L50.9853 46.0965C47.2882 47.1428 45.1194 51.0238 46.1658 54.7209L46.5336 56.0082V56.0146Z"/>
  <path fill="currentColor" d="M237.418 67.6451C235.44 67.3344 233.429 68.1017 232.193 69.6808C231.711 70.2895 231.362 70.8539 231.153 71.3042C227.462 79.2881 226.416 87.6208 227.963 96.7779C229.961 108.617 236.962 116.893 241.711 121.3C247.254 117.635 242.028 107.711 243.404 95.9218C245.611 76.9608 249.835 76.2886 244.983 70.7588C243.569 69.1417 240.83 68.1778 237.418 67.6451Z"/>
  <path fill="currentColor" d="M225.148 97.2524C223.505 87.5055 224.621 78.6274 228.566 70.1045C228.857 69.4767 229.371 68.6713 230.081 67.7962C230.316 67.5108 230.119 67.0859 229.751 67.0859C229.46 67.0859 229.162 67.0859 228.864 67.0859C228.147 67.0859 227.424 67.0986 226.695 67.1176C226.219 67.1303 225.813 67.4537 225.693 67.9103C225.287 69.4513 224.862 71.0811 224.399 72.8123C223.765 75.184 222.896 79.5469 221.888 84.5948C219.611 96.0031 217.994 103.473 216.504 107.995C218.362 108.223 220.081 108.591 221.4 109.181C227.018 111.692 231.115 122.758 236.404 122.758C236.505 122.758 236.607 122.758 236.708 122.745C237.45 122.688 238.116 122.587 238.725 122.46C233.728 117.596 227.158 109.187 225.141 97.2587L225.148 97.2524Z"/>
  <path fill="currentColor" d="M234.393 61.4494C236.2 55.4694 238.692 47.9103 241.965 42.4313C242.244 41.9747 242.523 41.5562 242.802 41.1694C243.043 40.8333 242.7 40.3894 242.313 40.5415C239.371 41.702 236.422 43.3318 234.184 45.602C230.854 48.9821 229.332 54.0362 226.828 63.5801C226.739 63.9226 226.999 64.2587 227.354 64.2523C227.868 64.246 228.375 64.2397 228.87 64.2397C230.531 64.2397 232.072 64.284 233.505 64.3728C233.81 64.3918 234.07 64.1509 234.063 63.8465C234.05 63.0601 234.152 62.2548 234.393 61.4557V61.4494Z"/>
  <path fill="currentColor" d="M256.798 37.7324C248.706 39.4066 246.785 40.0344 244.407 43.909C241.299 49.1027 238.883 56.4525 237.127 62.2739C237.127 62.2803 237.127 62.293 237.12 62.2993C236.765 63.4978 237.583 64.7535 238.814 64.9818C242.771 65.7174 245.491 66.9983 247.14 68.8754C248.116 69.9915 248.808 71.0062 249.271 71.9764C252.619 70.2832 255.574 66.0154 257.197 55.2349C258.149 48.8934 258.732 43.3637 257.8 39.7871C257.597 39.0007 257.248 38.3222 256.804 37.7324H256.798Z"/>
  <path fill="currentColor" d="M190.918 20.6672C190.918 20.9208 191.146 21.1111 191.393 21.054C192.725 20.7433 196.219 20.0457 199.327 20.0711C201.73 20.0901 204.267 20.3374 206.454 20.9398C206.702 21.0096 206.943 20.832 206.949 20.5784C206.993 19.3608 207.856 18.1876 209.574 17.2998C207.754 15.8349 203.816 14.8203 199.244 14.8203C194.672 14.8203 190.372 15.9364 188.686 17.5091C190.62 18.6189 190.924 19.9442 190.924 20.6735L190.918 20.6672Z"/>
  <path fill="currentColor" d="M211.095 21.6184C215.832 23.3686 221.349 23.0769 226.289 22.3984C227.773 22.094 229.631 21.7579 230.544 20.5974C230.563 20.1471 229.777 19.5637 229.276 19.2657C224.647 16.7164 218.781 16.7798 213.752 18.0861C212.363 18.5174 210.879 19.0501 209.922 20.0583C209.674 20.3374 209.624 20.5593 209.662 20.591C209.877 20.9462 210.55 21.3901 211.095 21.612V21.6184Z"/>
  <path fill="currentColor" d="M205.622 22.7795C201.475 21.2702 196.719 21.4097 192.565 22.8049C187.448 24.7834 187.289 27.1551 192.775 28.6137C196.098 29.7107 208.153 29.8312 209.535 26.039C209.592 24.6946 207.538 23.4707 205.629 22.7732L205.622 22.7795Z"/>
  <path fill="currentColor" d="M168.759 21.6184C173.496 23.3686 179.013 23.0769 183.953 22.3984C185.437 22.094 187.295 21.7579 188.208 20.5974C188.227 20.1471 187.441 19.5637 186.94 19.2657C182.311 16.7164 176.445 16.7798 171.416 18.0861C170.027 18.5174 168.543 19.0501 167.586 20.0583C167.338 20.3374 167.288 20.5593 167.326 20.591C167.541 20.9462 168.214 21.3901 168.759 21.612V21.6184Z"/>
  <path fill="currentColor" d="M246.456 22.5699C244.16 21.6821 239.861 21.0099 233.253 20.4519C233.253 20.5026 233.272 20.547 233.278 20.5977C233.132 23.7114 229.543 24.967 227.108 25.785C222.51 27.1041 217.703 26.9519 213.112 25.7597C212.783 25.6709 212.472 25.5758 212.167 25.4743C212.212 25.6582 212.243 25.8485 212.263 26.0514C212.218 29.2285 208.959 30.9534 206.441 31.9236C201.672 33.6104 196.51 33.4582 191.76 31.8982C187.455 30.4334 185.482 27.7699 186.04 25.3538C185.603 25.5187 185.178 25.6646 184.785 25.7977C180.187 27.1168 175.38 26.9646 170.789 25.7724C164.663 24.1236 162.977 20.2933 166.318 17.8772C163.497 17.7948 160.935 17.725 158.81 17.6743C158.176 17.6616 157.58 17.6553 157.009 17.6553C150.135 17.6553 147.738 18.7714 143.248 24.1553C142.849 24.6372 142.202 25.5377 141.555 26.4699L154.206 23.7621C155.405 23.5402 155.792 25.3285 154.58 25.6011C154.58 25.6011 110.577 35.8109 82.7758 45.3041C64.3538 51.5758 5.46687 67.9115 0.0322266 112.226C39.9011 113.596 64.8231 102.2 93.4359 89.092C125.169 74.5637 161.093 58.1202 225.795 56.3573C227.558 50.371 229.201 46.5344 232.099 43.5983C239.67 35.9124 253.913 34.8978 253.913 34.8978C253.913 34.8978 253.463 25.2904 246.456 22.5763V22.5699Z"/>
  <rect fill="#55FF00" x="232.551" y="18.2051" width="7.71962" height="3.85981" rx="1.9299" transform="rotate(5.20229 232.551 18.2051)">
    <animate attributeName="fill-opacity" values="1;0;1" dur="2s" repeatCount="indefinite" calcMode="spline" keySplines="0.4 0 0.6 1; 0.4 0 0.6 1"/>
  </rect>
</svg>
