<?xml version="1.0"?>
<svg xmlns="http://www.w3.org/2000/svg" viewBox="0 0 1792 679" fill="none">
  <path fill="white" d="M656.938 231.113H679.645C681.316 231.113 682.681 229.753 682.681 228.087C682.681 226.42 681.316 225.06 679.645 225.06H656.938C655.268 225.06 653.903 226.42 653.903 228.087C653.903 229.753 655.268 231.113 656.938 231.113ZM682.402 286.917C682.402 274.088 692.873 263.648 705.74 263.648C718.606 263.648 729.078 274.088 729.078 286.917C729.078 299.746 718.606 310.187 705.74 310.187C692.873 310.187 682.402 299.746 682.402 286.917ZM689.021 286.917C689.021 296.118 696.503 303.578 705.731 303.578C714.958 303.578 722.44 296.118 722.44 286.917C722.44 277.717 714.958 270.256 705.731 270.256C696.503 270.256 689.021 277.717 689.021 286.917ZM662.657 322.506C662.657 320.914 661.367 319.628 659.77 319.628C658.173 319.628 656.883 320.914 656.883 322.506C656.883 324.098 658.173 325.385 659.77 325.385C661.367 325.385 662.657 324.098 662.657 322.506ZM705.731 298.024C711.876 298.024 716.87 293.045 716.87 286.917C716.87 280.79 711.876 275.81 705.731 275.81C699.585 275.81 694.591 280.79 694.591 286.917C694.591 293.045 699.585 298.024 705.731 298.024ZM705.666 394.573H705.703C705.703 394.573 708.933 392.092 712.164 391.018C715.394 389.945 723.573 387.594 725.281 385.789C726.998 383.984 727.295 382.031 726.85 379.347C726.413 376.662 722.886 368.749 721.271 363.334C721.215 363.158 721.159 362.973 721.103 362.779C714.076 366.611 706.659 369.647 698.954 371.849C696.81 394.138 705.016 394.573 705.666 394.573ZM712.693 395.267C710.836 396.054 708.905 397.368 708.246 397.868C707.569 398.395 706.733 398.701 705.87 398.738H705.666C704.709 398.738 701.386 398.469 698.555 394.943C695.157 390.722 693.867 383.364 694.674 372.979C686.143 375.061 677.306 376.126 668.292 376.126C644.341 376.126 621.561 368.582 602.669 354.624C602.929 355.143 603.189 355.652 603.431 356.161C624.188 399.895 641.77 519 690.339 519C708.005 519 732.29 506.116 726.023 464.325C726.023 464.325 718.959 428.986 712.693 395.267ZM651.229 272.293C651.916 272.293 652.483 271.737 652.483 271.043V258.316C652.483 257.631 651.926 257.067 651.229 257.067H639.811C635.235 257.067 631.521 253.355 631.521 248.801V236.047C631.521 235.362 630.964 234.797 630.268 234.797H614.747C614.06 234.797 613.493 235.352 613.493 236.047V248.801C613.493 253.364 609.771 257.067 605.204 257.067H593.785C593.098 257.067 592.532 257.622 592.532 258.316V271.043C592.532 271.728 593.089 272.293 593.785 272.293H605.204C609.78 272.293 613.493 276.004 613.493 280.558V293.313C613.493 293.998 614.05 294.563 614.747 294.563H630.268C630.955 294.563 631.521 294.007 631.521 293.313V280.558C631.521 275.995 635.244 272.293 639.811 272.293H651.229ZM668.292 371.96C609.585 371.96 562 324.515 562 265.98C562 207.446 609.585 160 668.292 160C726.998 160 774.584 207.455 774.584 265.98C774.584 304.365 754.124 337.973 723.48 356.577C722.264 357.318 721.029 358.03 719.785 358.706C713.398 362.251 706.603 365.148 699.492 367.314C698.044 367.768 696.587 368.175 695.12 368.554C686.552 370.776 677.556 371.96 668.292 371.96ZM705.731 258.094C689.764 258.094 676.823 270.997 676.823 286.917C676.823 302.837 689.764 315.74 705.731 315.74C721.698 315.74 734.638 302.837 734.638 286.917C734.638 270.997 721.698 258.094 705.731 258.094ZM663.186 206.372C663.186 209.186 665.47 211.463 668.292 211.463C671.114 211.463 673.397 209.186 673.397 206.372C673.397 203.558 671.114 201.281 668.292 201.281C665.47 201.281 663.186 203.558 663.186 206.372ZM648.333 228.087C648.333 232.826 652.186 236.667 656.938 236.667H679.645C684.398 236.667 688.25 232.826 688.25 228.087C688.25 223.347 684.398 219.506 679.645 219.506H656.938C652.186 219.506 648.333 223.347 648.333 228.087ZM639.811 277.846H651.229C654.998 277.846 658.052 274.801 658.052 271.043V258.316C658.052 254.558 654.998 251.513 651.229 251.513H639.811C638.307 251.513 637.091 250.301 637.091 248.801V236.047C637.091 232.289 634.037 229.244 630.268 229.244H614.747C610.978 229.244 607.924 232.289 607.924 236.047V248.801C607.924 250.301 606.708 251.513 605.204 251.513H593.785C590.016 251.513 586.962 254.558 586.962 258.316V271.043C586.962 274.801 590.016 277.846 593.785 277.846H605.204C606.708 277.846 607.924 279.059 607.924 280.558V293.313C607.924 297.071 610.978 300.116 614.747 300.116H630.268C634.037 300.116 637.091 297.071 637.091 293.313V280.558C637.091 279.059 638.307 277.846 639.811 277.846ZM670 326.431C670 318.017 663.158 311.205 654.729 311.205C646.3 311.205 640.136 317.369 639.505 325.209L647.693 328.587C648.389 328.115 649.224 327.838 650.125 327.838C650.208 327.838 650.283 327.838 650.366 327.838L654.005 322.58C654.005 322.58 654.005 322.534 654.005 322.506C654.005 319.341 656.586 316.758 659.77 316.758C662.954 316.758 665.525 319.331 665.525 322.506C665.525 325.681 662.945 328.254 659.77 328.254C659.723 328.254 659.686 328.254 659.64 328.254L654.451 331.947C654.451 332.012 654.451 332.086 654.451 332.151C654.451 334.53 652.51 336.464 650.125 336.464C648.036 336.464 646.281 334.974 645.882 333.002L640.025 330.587C641.835 336.982 647.73 341.666 654.72 341.666C663.158 341.666 669.991 334.844 669.991 326.44L670 326.431ZM652.195 333.03C651.684 334.243 650.292 334.817 649.066 334.317L647.191 333.548C647.525 334.243 648.101 334.817 648.862 335.131C650.515 335.816 652.418 335.039 653.105 333.391C653.439 332.595 653.439 331.716 653.105 330.92C652.77 330.124 652.148 329.494 651.35 329.161C650.552 328.828 649.707 328.846 648.955 329.124L650.895 329.92C652.111 330.429 652.687 331.818 652.186 333.039L652.195 333.03ZM659.761 326.338C661.877 326.338 663.594 324.626 663.594 322.515C663.594 320.405 661.877 318.693 659.761 318.693C657.644 318.693 655.927 320.405 655.927 322.515C655.927 324.626 657.653 326.338 659.761 326.338Z"/>
  <path fill="white" d="M1109.44 228.598C1109.44 226.935 1110.8 225.576 1112.48 225.576H1135.18C1136.85 225.576 1138.22 226.935 1138.22 228.598C1138.22 230.261 1136.85 231.619 1135.18 231.619H1112.48C1110.8 231.619 1109.44 230.261 1109.44 228.598ZM1145.27 322.851C1145.27 321.262 1143.98 319.978 1142.39 319.978C1140.79 319.978 1139.5 321.262 1139.5 322.851C1139.5 324.441 1140.79 325.725 1142.39 325.725C1143.98 325.725 1145.27 324.441 1145.27 322.851ZM1086.39 276.145C1080.24 276.145 1075.25 281.116 1075.25 287.233C1075.25 293.349 1080.24 298.32 1086.39 298.32C1092.54 298.32 1097.53 293.349 1097.53 287.233C1097.53 281.116 1092.54 276.145 1086.39 276.145ZM1147.37 272.819C1151.63 272.819 1155.09 269.372 1155.09 265.131C1155.09 260.89 1151.63 257.444 1147.37 257.444C1143.11 257.444 1139.65 260.89 1139.65 265.131C1139.65 269.372 1143.11 272.819 1147.37 272.819ZM1169.61 250.681C1173.87 250.681 1177.34 247.234 1177.34 242.993C1177.34 238.752 1173.87 235.306 1169.61 235.306C1165.35 235.306 1161.89 238.752 1161.89 242.993C1161.89 247.234 1165.35 250.681 1169.61 250.681ZM1109.72 287.325C1109.72 300.131 1099.25 310.554 1086.38 310.554C1073.51 310.554 1063.04 300.131 1063.04 287.325C1063.04 274.519 1073.51 264.097 1086.38 264.097C1099.25 264.097 1109.72 274.519 1109.72 287.325ZM1103.1 287.233C1103.1 278.048 1095.62 270.601 1086.39 270.601C1077.16 270.601 1069.68 278.048 1069.68 287.233C1069.68 296.417 1077.16 303.864 1086.39 303.864C1095.62 303.864 1103.1 296.417 1103.1 287.233ZM1097 368.819C1095.53 368.44 1094.08 368.033 1092.63 367.581C1085.52 365.419 1078.72 362.527 1072.34 358.988C1071.09 358.313 1069.86 357.602 1068.64 356.863C1038 338.291 1017.54 304.742 1017.54 266.425C1017.54 208.003 1065.13 160.631 1123.83 160.631C1182.53 160.631 1230.12 208.003 1230.12 266.425C1230.12 324.847 1182.54 372.219 1123.83 372.219C1114.56 372.219 1105.57 371.036 1097 368.819ZM1152.62 326.769C1152.62 318.37 1145.77 311.57 1137.35 311.57C1128.92 311.57 1122.75 317.723 1122.12 325.549L1130.31 328.922C1131 328.451 1131.84 328.174 1132.74 328.174C1132.82 328.174 1132.9 328.174 1132.98 328.174L1136.62 322.925C1136.62 322.925 1136.62 322.879 1136.62 322.851C1136.62 319.692 1139.2 317.114 1142.39 317.114C1145.57 317.114 1148.14 319.682 1148.14 322.851C1148.14 326.021 1145.56 328.589 1142.39 328.589C1142.34 328.589 1142.3 328.589 1142.26 328.589L1137.07 332.276C1137.07 332.341 1137.07 332.415 1137.07 332.479C1137.07 334.854 1135.13 336.785 1132.74 336.785C1130.65 336.785 1128.9 335.297 1128.5 333.329L1122.64 330.918C1124.45 337.302 1130.35 341.978 1137.34 341.978C1145.77 341.978 1152.61 335.168 1152.61 326.778L1152.62 326.769ZM1134.82 333.357C1134.31 334.567 1132.92 335.14 1131.69 334.641L1129.82 333.874C1130.15 334.567 1130.73 335.14 1131.49 335.454C1133.14 336.138 1135.04 335.362 1135.73 333.717C1136.06 332.923 1136.06 332.045 1135.73 331.25C1135.4 330.456 1134.77 329.827 1133.98 329.495C1133.18 329.162 1132.33 329.181 1131.58 329.458L1133.52 330.252C1134.74 330.761 1135.31 332.147 1134.81 333.366L1134.82 333.357ZM1142.39 326.677C1144.5 326.677 1146.22 324.967 1146.22 322.861C1146.22 320.754 1144.5 319.045 1142.39 319.045C1140.27 319.045 1138.55 320.754 1138.55 322.861C1138.55 324.967 1140.28 326.677 1142.39 326.677ZM1182.91 287.27C1182.91 279.961 1176.96 274.038 1169.61 274.038C1162.27 274.038 1156.32 279.961 1156.32 287.27C1156.32 294.578 1162.27 300.501 1169.61 300.501C1176.96 300.501 1182.91 294.578 1182.91 287.27ZM1191.86 251.891C1184.51 251.891 1178.56 257.814 1178.56 265.122C1178.56 272.431 1184.51 278.353 1191.86 278.353C1199.2 278.353 1205.15 272.431 1205.15 265.122C1205.15 257.814 1199.2 251.891 1191.86 251.891ZM1156.31 242.984C1156.31 250.293 1162.26 256.215 1169.6 256.215C1176.95 256.215 1182.9 250.293 1182.9 242.984C1182.9 235.675 1176.95 229.753 1169.6 229.753C1162.26 229.753 1156.31 235.675 1156.31 242.984ZM1147.37 251.891C1140.03 251.891 1134.08 257.814 1134.08 265.122C1134.08 272.431 1140.03 278.353 1147.37 278.353C1154.71 278.353 1160.66 272.431 1160.66 265.122C1160.66 257.814 1154.71 251.891 1147.37 251.891ZM1118.72 206.922C1118.72 209.73 1121.01 212.003 1123.83 212.003C1126.65 212.003 1128.93 209.73 1128.93 206.922C1128.93 204.113 1126.65 201.84 1123.83 201.84C1121.01 201.84 1118.72 204.113 1118.72 206.922ZM1103.87 228.598C1103.87 233.328 1107.72 237.163 1112.48 237.163H1135.18C1139.94 237.163 1143.79 233.328 1143.79 228.598C1143.79 223.867 1139.94 220.033 1135.18 220.033H1112.48C1107.72 220.033 1103.87 223.867 1103.87 228.598ZM1115.29 287.325C1115.29 271.433 1102.35 258.553 1086.38 258.553C1070.41 258.553 1057.47 271.433 1057.47 287.325C1057.47 303.217 1070.41 316.097 1086.38 316.097C1102.35 316.097 1115.29 303.217 1115.29 287.325ZM1123.83 376.377C1114.82 376.377 1105.99 375.314 1097.46 373.245C1098.25 383.611 1096.96 390.948 1093.57 395.161C1090.73 398.681 1087.41 398.949 1086.46 398.949H1086.25C1085.39 398.912 1084.56 398.607 1083.87 398.09C1083.22 397.591 1081.29 396.27 1079.43 395.484C1073.16 429.144 1066.1 464.421 1066.1 464.421C1059.83 506.129 1084.12 519 1101.78 519C1150.34 519 1167.93 400.104 1188.69 356.447C1188.93 355.939 1189.18 355.431 1189.45 354.913C1170.56 368.856 1147.78 376.377 1123.83 376.377ZM1191.86 272.819C1196.12 272.819 1199.58 269.372 1199.58 265.131C1199.58 260.89 1196.12 257.444 1191.86 257.444C1187.59 257.444 1184.13 260.89 1184.13 265.131C1184.13 269.372 1187.59 272.819 1191.86 272.819ZM1084.39 393.424C1085.61 394.172 1086.42 394.791 1086.42 394.791H1086.46C1087.11 394.791 1095.32 394.357 1093.17 372.108C1085.46 369.909 1078.04 366.878 1071.02 363.053C1070.96 363.247 1070.91 363.432 1070.85 363.608C1069.23 369.013 1065.72 376.913 1065.27 379.592C1064.83 382.272 1065.12 384.221 1066.84 386.023C1068.55 387.825 1076.73 390.172 1079.96 391.243C1081.57 391.779 1083.19 392.666 1084.39 393.424ZM1169.61 279.573C1165.35 279.573 1161.89 283.019 1161.89 287.26C1161.89 291.501 1165.35 294.948 1169.61 294.948C1173.87 294.948 1177.34 291.501 1177.34 287.26C1177.34 283.019 1173.87 279.573 1169.61 279.573Z"/>
  <circle stroke="#1A9FFF" cx="1137.43" cy="326.714" r="22.8406" stroke-width="3.03584"/>
  <circle stroke="#1A9FFF" cx="654.056" cy="326.714" r="22.8406" stroke-width="3.03584"/>
  <path stroke="#1A9FFF" d="M842.914 327.03H678.415" stroke-width="3.03584"/>
  <path stroke="#1A9FFF" d="M1113.07 327.03H950.471" stroke-width="3.03584"/>
  <path fill="white" d="M895.941 293.667C878.401 293.667 864.031 307.168 862.666 324.326L880.563 331.713C882.079 330.678 883.911 330.073 885.881 330.073C886.058 330.073 886.234 330.078 886.408 330.087L894.368 318.572C894.368 318.517 894.366 318.463 894.366 318.409C894.366 311.478 900.015 305.837 906.959 305.837C913.903 305.837 919.552 311.478 919.552 318.409C919.552 325.34 913.903 330.981 906.959 330.981C906.863 330.981 906.769 330.978 906.674 330.975L895.322 339.061C895.328 339.21 895.334 339.359 895.334 339.508C895.334 344.712 891.093 348.944 885.881 348.944C881.307 348.944 877.481 345.684 876.615 341.367L863.816 336.085C867.779 350.077 880.656 360.333 895.941 360.333C914.383 360.333 929.333 345.409 929.333 327C929.332 308.59 914.383 293.667 895.941 293.667Z"/>
  <path fill="white" d="M883.591 344.244L879.489 342.553C880.216 344.065 881.473 345.328 883.144 346.024C886.752 347.525 890.914 345.814 892.418 342.21C893.146 340.466 893.152 338.54 892.429 336.792C891.708 335.044 890.348 333.679 888.599 332.951C886.864 332.231 885.005 332.257 883.37 332.872L887.608 334.621C890.271 335.729 891.529 338.781 890.42 341.438C889.312 344.096 886.253 345.353 883.591 344.244Z"/>
  <path fill="white" d="M915.35 318.408C915.35 313.79 911.586 310.032 906.96 310.032C902.333 310.032 898.568 313.79 898.568 318.408C898.568 323.027 902.333 326.784 906.96 326.784C911.586 326.784 915.35 323.027 915.35 318.408ZM900.67 318.394C900.67 314.919 903.493 312.102 906.973 312.102C910.455 312.102 913.277 314.919 913.277 318.394C913.277 321.869 910.455 324.686 906.973 324.686C903.493 324.686 900.67 321.869 900.67 318.394Z"/>
</svg>
