<?xml version="1.0"?>
<svg xmlns="http://www.w3.org/2000/svg" width="95" height="27" viewBox="0 0 95 27" fill="currentColor">
  <g clip-path="">
    <path d="M29.1289 15.142H32.6305L30.8018 8.41162L29.1289 15.142Z"/>
    <path d="M0 27H91.2646V0H0V27ZM14.822 21.4914H11.9334L7.21098 5.58171H10.3333L13.3777 17.591L16.3442 5.58171H19.6172L14.822 21.4914ZM34.3041 21.4914L33.2391 17.5127H28.5218C28.5218 17.5127 27.701 20.7134 27.5347 21.4131C26.584 21.4862 24.2617 21.4131 24.2617 21.4131L28.7504 5.58171H33.0105L37.4992 21.4914H34.3041ZM54.3889 21.4914H44.6478V5.58171H47.7702V18.8128H54.3889V21.4914ZM65.8028 21.4914H62.987L58.1918 5.58171H61.392L64.4365 17.4396L67.4029 5.58171H70.598L65.8028 21.4914ZM83.7627 7.64939H79.5026V9.9416H83.3835V12.0041H79.5026V14.3746H83.7627V16.4423H77.144V5.58171H83.7627V7.64939Z"/>
    <path d="M93.4622 0C94.3194 0 95 0.699671 95 1.57687C95 2.45407 94.3194 3.15896 93.4518 3.15896C92.5842 3.15896 91.8984 2.46451 91.8984 1.57687C91.8984 0.689228 92.5946 0 93.4518 0H93.457H93.4622ZM93.457 0.245407C92.766 0.245407 92.1998 0.84065 92.1998 1.57687C92.1998 2.31309 92.766 2.91356 93.4622 2.91356C94.1584 2.91878 94.7143 2.32876 94.7143 1.58209C94.7143 0.835428 94.1584 0.245407 93.4622 0.245407H93.457ZM93.1609 2.49062H92.8803V0.736221C93.0258 0.715336 93.1661 0.69445 93.3739 0.69445C93.6388 0.69445 93.8155 0.751886 93.9194 0.824986C94.0233 0.903307 94.0804 1.0234 94.0804 1.19049C94.0804 1.42023 93.9246 1.56121 93.7375 1.61864V1.63431C93.8882 1.66564 93.9973 1.80139 94.0285 2.06246C94.07 2.33398 94.1116 2.43841 94.1428 2.49584H93.8466C93.8051 2.43841 93.7635 2.27654 93.7272 2.0468C93.6856 1.82228 93.5713 1.73874 93.3479 1.73874H93.1557V2.49584L93.1609 2.49062ZM93.1609 1.51944H93.3635C93.5921 1.51944 93.7895 1.43589 93.7895 1.21659C93.7895 1.05995 93.6752 0.908528 93.3635 0.908528C93.2752 0.908528 93.2076 0.91375 93.1609 0.924193V1.51944Z"/>
  </g>
  <defs>
    <clipPath id="">
      <rect width="95" height="27" fill="white"/>
    </clipPath>
  </defs>
</svg>
