<?xml version="1.0"?>
<svg xmlns="http://www.w3.org/2000/svg" viewBox="2 11 32 14" fill="none">
  <path fill="currentColor" d="M27 21.3332V23.0002H21.7822L23.5195 21.3332H27Z"/>
  <path fill="currentColor" d="M30.5 17.1672V18.8332H26.126L27 17.9953L26.1367 17.1672H30.5Z"/>
  <path fill="currentColor" d="M34 14.6672H23.5303L21.793 13.0002H34V14.6672Z"/>
  <path fill="currentColor" fill-rule="evenodd" clip-rule="evenodd" d="M9.42583 24.0155C11.113 24.5862 12.927 24.6761 14.6629 24.2752C16.3988 23.8743 17.9874 22.9985 19.2492 21.7468L23 18.016L19.2492 14.2851C18.3333 13.3742 17.4583 12.794 15.965 12.1789C14.2409 11.5047 12.3566 11.3448 10.5425 11.7189C8.72852 12.0929 7.0634 12.9847 5.75083 14.2851L2 18.016L5.75083 21.7468C6.72745 22.7182 7.98479 23.5281 9.42583 24.0155ZM12.5 22.0776C14.7552 22.0776 16.5833 20.2591 16.5833 18.016C16.5833 15.7728 14.7552 13.9544 12.5 13.9544C10.2448 13.9544 8.41667 15.7728 8.41667 18.016C8.41667 20.2591 10.2448 22.0776 12.5 22.0776Z"/>
</svg>
