<?xml version="1.0"?>
<svg xmlns="http://www.w3.org/2000/svg" viewBox="0 0 36 36" fill="none">
  <g>
    <path fill="currentColor" d="M23 7.83887V5.5H27V11.7285L32.1973 16.7832L30.8027 18.2168L28.9971 16.4609L28.9824 32.3721H7L7.01465 16.4482L5.19727 18.2168L3.80273 16.7832L18 2.97754L23 7.83887ZM9.0166 14.8076L9.00195 30.3721H26.9844L26.999 14.8066L18.0078 6.14746L9.0166 14.8076Z"/>
  </g>
  <g transform="translate(11 15) translate(7 4) scale(0.90) translate(-7 -4)">
    <path fill="" fill-rule="evenodd" clip-rule="evenodd" d="M7.9728 6.62415C7.67855 6.46671 7.3536 6.3861 7.02452 6.38891C6.69545 6.39173 6.37159 6.47788 6.07942 6.64034C5.78725 6.80279 5.53507 7.03694 5.3435 7.32362C5.17589 7.57445 4.85023 7.63252 4.61613 7.45332C4.38202 7.27413 4.32811 6.92553 4.49572 6.67471C4.78308 6.24468 5.16135 5.89347 5.5996 5.64978C6.03786 5.4061 6.52365 5.27686 7.01726 5.27264C7.51088 5.26843 7.9983 5.38934 8.43967 5.6255C8.88104 5.86167 9.26384 6.20637 9.55676 6.63144C9.72762 6.87937 9.67825 7.22885 9.4465 7.41203C9.21475 7.5952 8.88838 7.54271 8.71752 7.29478C8.52224 7.0114 8.26705 6.78159 7.9728 6.62415Z"/>
    <path fill="" d="M7.02829 2.63868C8.0361 2.63542 9.03018 2.86733 9.92956 3.31526C10.8291 3.76327 11.608 4.41478 12.203 5.21644C12.3922 5.47143 12.3362 5.82903 12.0775 6.01567C11.8187 6.20228 11.455 6.14697 11.2657 5.89192C10.7789 5.23607 10.1414 4.70319 9.40553 4.33666C8.66974 3.97021 7.85651 3.78013 7.03202 3.78277C6.20734 3.78548 5.39428 3.98045 4.66065 4.35183C3.92706 4.72321 3.29304 5.26057 2.81039 5.91964C2.62271 6.17592 2.25972 6.23401 1.99971 6.04911C1.73973 5.8642 1.68169 5.50639 1.86937 5.25012C2.45927 4.44465 3.23379 3.78757 4.13037 3.3337C5.02702 2.87981 6.02038 2.642 7.02829 2.63868Z"/>
    <path fill="" d="M6.99919 2.94894e-07C8.34461 -0.000354706 9.67111 0.319813 10.8701 0.933627C12.0692 1.5475 13.1069 2.43805 13.8981 3.53238C14.0711 3.77173 14.0185 4.10725 13.7805 4.28126C13.5425 4.45525 13.209 4.40199 13.0359 4.16274C12.3436 3.20519 11.4356 2.42555 10.3864 1.88841C9.33725 1.35131 8.17627 1.07186 6.99895 1.07223C5.82164 1.07262 4.66076 1.35327 3.61194 1.89104C2.56325 2.42881 1.65554 3.20813 0.963889 4.16597C0.790969 4.40545 0.4577 4.45933 0.219542 4.28545C-0.0184666 4.11158 -0.0710612 3.77623 0.101716 3.53681C0.892281 2.44197 1.92948 1.55052 3.1282 0.935903C4.32688 0.321317 5.65367 0.000419026 6.99919 2.94894e-07Z"/>
  </g>
</svg>
