<?xml version="1.0"?>
<svg xmlns="http://www.w3.org/2000/svg" width="142" height="34" viewBox="0 0 142 34" fill="currentColor">
  <path d="M16.832 0C7.95936 0 0.690707 6.8414 0 15.5358L9.05289 19.2787C9.81996 18.7541 10.7466 18.4467 11.7436 18.4467C11.8329 18.4467 11.9219 18.4498 12.0101 18.4548L16.0359 12.6194C16.0359 12.5916 16.0356 12.5645 16.0356 12.537C16.0356 9.02463 18.8927 6.16711 22.4054 6.16711C25.9178 6.16711 28.7749 9.02463 28.7749 12.537C28.7749 16.0493 25.9178 18.9072 22.4054 18.9072C22.3569 18.9072 22.3088 18.9061 22.2607 18.9049L16.5189 23.0018C16.522 23.0763 16.5247 23.1523 16.5247 23.2278C16.5247 25.8647 14.38 28.009 11.7436 28.009C9.42936 28.009 7.49431 26.3572 7.05598 24.1698L0.581889 21.4933C2.58643 28.5828 9.09985 33.7805 16.832 33.7805C26.1606 33.7805 33.7225 26.2182 33.7225 16.8908C33.7225 7.56189 26.1602 0 16.832 0Z"/>
  <path d="M10.5846 25.6287L8.50977 24.7715C8.87746 25.537 9.51356 26.1781 10.3581 26.5301C12.184 27.2907 14.2889 26.4244 15.0499 24.597C15.4184 23.7135 15.4207 22.7379 15.0553 21.8521C14.6906 20.9659 14.0026 20.2748 13.1179 19.906C12.2401 19.5406 11.2997 19.5539 10.4735 19.8659L12.6166 20.7521C13.9633 21.3134 14.6001 22.8597 14.0389 24.2064C13.4787 25.5534 11.9312 26.1903 10.5846 25.6287Z"/>
  <path d="M26.6497 12.5368C26.6497 10.1966 24.746 8.29248 22.4054 8.29248C20.0653 8.29248 18.1611 10.1966 18.1611 12.5368C18.1611 14.8773 20.0653 16.7807 22.4054 16.7807C24.746 16.7803 26.6497 14.8769 26.6497 12.5368ZM19.2241 12.5295C19.2241 10.7686 20.6517 9.34133 22.4127 9.34133C24.1736 9.34133 25.6012 10.7686 25.6012 12.5295C25.6012 14.2904 24.1736 15.7177 22.4127 15.7177C20.6517 15.7177 19.2241 14.2901 19.2241 12.5295Z"/>
  <path d="M59.9854 10.1185L58.4527 12.8127C57.2721 11.9879 55.6722 11.4915 54.2754 11.4915C52.6791 11.4915 51.6914 12.1523 51.6914 13.336C51.6914 14.7741 53.446 15.1087 56.0538 16.0447C58.8571 17.036 60.4684 18.201 60.4684 20.7685C60.4684 24.2813 57.706 26.2541 53.7356 26.2541C51.8005 26.2541 49.4663 25.7545 47.6719 24.6629L48.7899 21.6761C50.2476 22.446 51.9913 22.9027 53.5458 22.9027C55.6411 22.9027 56.6371 22.1296 56.6371 20.9867C56.6371 19.679 55.1183 19.286 52.6667 18.4741C49.8727 17.5412 47.9366 16.3172 47.9366 13.4756C47.9366 10.2711 50.5031 8.43066 54.1958 8.43066C56.7695 8.43066 58.838 9.24616 59.9854 10.1185Z"/>
  <path d="M71.9674 11.5261V25.6635H68.3585V11.5261H63.1201V8.43066H77.1903V11.5261H71.9674Z"/>
  <path d="M84.7983 11.5168V15.3998H91.7049V18.4953H84.7983V22.5396H92.8116V25.6635H81.1904V8.43066H92.8116V11.5168H84.7983Z"/>
  <path d="M100.866 22.3173L99.7256 25.6635H95.9424L102.404 8.43066H106.036L112.68 25.663H108.769L107.604 22.3168L100.866 22.3173ZM104.2 12.5412L101.846 19.4411H106.602L104.2 12.5412Z"/>
  <path d="M131.201 15.0916L126.485 25.1614H124.449L119.809 15.1816V25.6635H116.354V8.43066H119.802L125.593 20.8704L131.179 8.43066H134.657V25.6635H131.202L131.201 15.0916Z"/>
  <path d="M141.634 9.63026C141.634 11.1113 140.525 12.0343 139.251 12.0343C137.973 12.0343 136.86 11.1113 136.86 9.63026C136.86 8.14976 137.973 7.23291 139.251 7.23291C140.525 7.23291 141.634 8.14976 141.634 9.63026ZM137.261 9.63026C137.261 10.8693 138.154 11.6475 139.251 11.6475C140.344 11.6475 141.233 10.8693 141.233 9.63026C141.233 8.38763 140.344 7.62126 139.251 7.62126C138.157 7.62126 137.261 8.39694 137.261 9.63026ZM139.284 8.40521C139.902 8.40521 140.11 8.73203 140.11 9.08522C140.11 9.40893 139.918 9.62612 139.684 9.73678L140.238 10.7746H139.785L139.318 9.85469H138.836V10.7746H138.459V8.40521H139.284ZM138.84 9.5077H139.261C139.533 9.5077 139.694 9.33654 139.694 9.12142C139.694 8.90423 139.579 8.76461 139.26 8.76461H138.839V9.5077H138.84Z"/>
</svg>
