<?xml version="1.0"?>
<svg viewBox="0 0 44 44" fill="none" xmlns="http://www.w3.org/2000/svg">
  <path fill="currentColor" d="M35.1 33.1H8.9q-.7 0-1.3-.6-.6-.6-.6-1.3V19.4q0-.7.6-1.3t1.3-.6H35.1q.7 0 1.3.6t.6 1.3V31.2q0 .7-.6 1.3t-1.3.6m0-1.9V19.4H8.9V31.2Z"/>
  <circle cx="22" cy="22.9" r="2.3" fill="currentColor"/>
  <circle cx="14.8" cy="25.3" r="3.6" stroke="currentColor" stroke-width="1.8"/>
  <circle cx="29.2" cy="25.3" r="3.6" stroke="currentColor" stroke-width="1.8"/>
  <path fill="currentColor" d="M8.9 34.7c-.8 0-1.7-.5-2.4-1.1s-1.1-1.5-1.1-2.4H3.5c0 1.4.6 2.9 1.6 3.8s2.4 1.6 3.8 1.6V34.7m26.2 0c.8 0 1.7-.5 2.4-1.1s1.1-1.5 1.1-2.4h1.9c0 1.4-.6 2.9-1.6 3.8s-2.4 1.6-3.8 1.6V34.7M8.9 15.9c-.8 0-1.7.5-2.4 1.1s-1.1 1.5-1.1 2.4H3.5c0-1.4.6-2.9 1.6-3.8S7.5 14 8.9 14v1.9m26.2 0c.8 0 1.7.5 2.4 1.1s1.1 1.5 1.1 2.4h1.9c0-1.4-.6-2.9-1.6-3.8S36.5 14 35.1 14v1.9"/>
  <path fill="currentColor" d="M8.9 40c-2.3 0-4.6-1-6.2-2.6C1 35.8.1 33.6.1 31.2H2c0 1.8.7 3.6 2 4.9s3 2 4.9 2V40m26.2 0c2.3 0 4.5-1 6.2-2.6s2.6-3.8 2.6-6.2H42c0 1.8-.7 3.6-2 4.9s-3.1 2-4.9 2V40M8.9 10.6c-2.3 0-4.6 1-6.2 2.6C1 14.8.1 17 .1 19.4H2c0-1.8.7-3.6 2-4.9s3-2 4.9-2V10.6m26.2 0c2.3 0 4.5 1 6.2 2.6s2.6 3.8 2.6 6.2H42c0-1.8-.7-3.6-2-4.9s-3.1-2-4.9-2V10.6"/>
</svg>
