<?xml version="1.0"?>
<svg viewBox="0 0 44 44" fill="none" xmlns="http://www.w3.org/2000/svg">
  <path fill="currentColor" d="M27.9 33.1H16.1q-.7 0-1.3-.6t-.6-1.3V19.4q0-.7.6-1.3t1.3-.6h11.8q.7 0 1.3.6t.6 1.3v11.8q0 .7-.6 1.3t-1.3.6m0-1.9V19.4H16.1v11.8z"/>
  <circle cx="22" cy="25.3" r="3.6" stroke="currentColor" stroke-width="1.8"/>
  <path fill="currentColor" d="M27.9 15.9V14c1.4 0 2.8.7 3.8 1.6s1.6 2.4 1.6 3.8h-1.9c0-.9-.4-1.8-1.1-2.4s-1.6-1.1-2.4-1.1m-11.8 0V14c-1.4 0-2.8.7-3.8 1.6s-1.6 2.4-1.6 3.8h1.9c0-.9.4-1.8 1.1-2.4s1.6-1.1 2.4-1.1m11.8 18.8v1.9c1.4 0 2.8-.7 3.8-1.6s1.6-2.4 1.6-3.8h-1.9c0 .9-.4 1.8-1.1 2.4s-1.6 1.1-2.4 1.1m-11.8 0v1.9c-1.4 0-2.8-.7-3.8-1.6s-1.6-2.4-1.6-3.8h1.9c0 .9.4 1.8 1.1 2.4s1.6 1.1 2.4 1.1"/>
  <path fill="currentColor" d="M16.1 40c-2.3 0-4.6-1-6.2-2.6-1.7-1.6-2.6-3.8-2.6-6.2H9.2c0 1.8.7 3.6 2 4.9s3 2 4.9 2V40m11.8 0c2.3 0 4.5-1 6.2-2.6s2.6-3.8 2.6-6.2H34.8c0 1.8-.7 3.6-2 4.9s-3.1 2-4.9 2V40M16.1 10.6c-2.3 0-4.6 1-6.2 2.6-1.7 1.6-2.6 3.8-2.6 6.2H9.2c0-1.8.7-3.6 2-4.9s3-2 4.9-2V10.6m11.8 0c2.3 0 4.5 1 6.2 2.6s2.6 3.8 2.6 6.2H34.8c0-1.8-.7-3.6-2-4.9s-3.1-2-4.9-2V10.6"/>
</svg>
