<?xml version="1.0"?>
<svg xmlns="http://www.w3.org/2000/svg" version="1.1" viewBox="0 0 1200 1200">
  <path d="m255.04 835.01s-132.46-90.602-132.46-269.29c0-265.99 281.91-364.36 433.49-361.73 151.61 2.6641 196.79 42.551 196.79 42.551s51.602-37.512 106.27-68.914c41.844-16.32 51.551-18.66 80.617-9.3125 23.281 0 8.6406 38.734-0.71875 52.703-9.2539 13.969-54.324 91.078-54.324 91.078s94.598 97.402 101.58 161.43c0-1.1523 44.531-0.35938 68.965-0.35938 24.422 0 22.117 26.605 22.117 26.605l-0.68359 187.49s1.5234 26.605-20.641 26.605c-22.105 0-69.121 0.50391-69.121 0.50391s-66.133 96.059-108.06 113.51c0 1.1641 36.227 99.562 36.227 99.562s17.461 30.254-13.957 41.914c-31.43 11.617-113.39 46.02-148.31 56.52-34.934 10.512-39.898-13.285-39.898-13.285l-34.559-74.652-226.11 0.35937-34.57 76.969s-6.625 35.711-53.16 15.949c-46.57-19.777-97.414-43.223-135.83-63-38.375-19.777-13.117-56.723-13.117-56.723l39.457-76.477zm610.57-323.93c21.203 0 38.375-17.242 38.375-38.426 0-21.203-17.172-38.387-38.375-38.387-21.191 0-38.41 17.184-38.41 38.387 0 21.18 17.219 38.426 38.41 38.426zm-541.01-119.65c12.238 14.52 20.258 3.8281 30.109 0.92578 0 0 41.809-38.785 103.2-56.879 63.613-18.695 130.54-9.6719 130.54-9.6719 9.8633-2.9023 21.84-3.2148 21.938-18.457-0.51562-18.805-23.352-18.973-23.074-19.598 0 0-75.336-6.9609-138.37 11.566-62.016 18.227-109.38 57.828-109.38 57.828s-25.332 17.473-14.953 34.285z" fill-rule="evenodd"/>
</svg>
