<?xml version="1.0"?>
<svg viewBox="0 0 20 20" fill="none" xmlns="http://www.w3.org/2000/svg">
  <path opacity="0.84" fill-rule="evenodd" clip-rule="evenodd" d="M17.6574 2C17.8468 2.00007 18 2.15364 18 2.34293V17.6574C17.9999 17.8467 17.8467 17.9999 17.6574 18H2.34293C2.15366 18 2.00011 17.8467 2 17.6574V2.34293C2 2.1536 2.1536 2 2.34293 2H17.6574ZM10.1007 5.2452C7.41876 5.24527 5.24448 7.41953 5.24441 10.1015C5.24441 12.7836 7.41872 14.9578 10.1007 14.9579C12.7828 14.9579 14.9571 12.7836 14.9571 10.1015C14.9571 7.41949 12.7828 5.2452 10.1007 5.2452Z" fill="white"/>
  <path opacity="0.84" fill-rule="evenodd" clip-rule="evenodd" d="M13.6445 10.1892C13.6445 8.24558 12.0685 6.66992 10.1248 6.66992C8.18116 6.66997 6.60555 8.24562 6.60547 10.1892C6.60547 12.0722 8.08419 13.61 9.94375 13.7044L10.1248 13.709C12.0079 13.709 13.5457 12.2299 13.6399 10.3703L13.6445 10.1892Z" fill="white"/>
</svg>
