<?xml version="1.0"?>
<svg xmlns="http://www.w3.org/2000/svg" viewBox="0 0 165 295" fill="none">
  <path stroke="currentColor" d="M104.701 241.97C104.701 225.507 91.3555 212.162 74.8931 212.162H14.9041C8.6096 212.162 3.50692 207.059 3.50692 200.765C3.50692 194.47 8.56367 189.368 14.8581 189.368C41.5864 189.368 109.351 189.368 150.808 189.368C156.618 189.368 161.313 184.657 161.313 178.847C161.313 173.037 156.603 168.327 150.793 168.327H15.7807C9.00208 168.327 3.5069 162.832 3.50688 156.053C3.50685 149.274 9.00205 143.779 15.7807 143.779H150.793C156.603 143.779 161.313 139.069 161.313 133.259C161.313 127.448 156.647 122.738 150.837 122.738C140.176 122.738 122.764 122.738 105.205 122.738C74.2165 122.738 49.0954 97.6172 49.0954 66.6291V8.7666" stroke-width="7.01363"/>
  <rect fill="currentColor" x="28.0557" width="42.0818" height="10.5204"/>
  <path fill="currentColor" d="M138.52 210.997C146.267 210.997 152.547 217.277 152.547 225.024V235.545C152.547 243.292 146.267 249.572 138.52 249.572H71.8906C64.1437 249.572 57.8634 243.292 57.8633 235.545V225.024C57.8633 217.277 64.1436 210.997 71.8906 210.997H138.52ZM89.9892 221.33C88.1216 221.33 86.6073 222.844 86.6073 224.712C86.6076 226.579 88.1217 228.093 89.9892 228.093C91.8565 228.093 93.3699 226.579 93.3701 224.712C93.3701 222.844 91.8566 221.33 89.9892 221.33ZM105.205 221.33C103.338 221.33 101.823 222.844 101.823 224.712C101.824 226.579 103.338 228.093 105.205 228.093C107.073 228.093 108.587 226.579 108.587 224.712C108.587 222.844 107.073 221.33 105.205 221.33ZM118.731 221.33C116.863 221.33 115.349 222.844 115.349 224.712C115.349 226.579 116.863 228.093 118.731 228.093C120.598 228.093 122.112 226.579 122.112 224.712C122.112 222.844 120.598 221.33 118.731 221.33Z"/>
  <rect fill="currentColor" x="98.1914" y="241.97" width="14.0273" height="14.0273"/>
</svg>
