<?xml version="1.0"?>
<svg width="24" height="22" viewBox="0 0 24 22" fill="currentColor" xmlns="http://www.w3.org/2000/svg">
  <path d="M5.20232 2.04977C7.95386 4.13518 10.9135 8.36354 12.0001 10.6327C13.0868 8.3637 16.0462 4.13514 18.7978 2.04977C20.7832 0.545013 24 -0.619279 24 3.08556C24 3.82547 23.5798 9.30116 23.3333 10.1901C22.4767 13.2807 19.355 14.069 16.5782 13.5919C21.432 14.4259 22.6667 17.1884 20.0001 19.9508C14.9357 25.1972 12.7211 18.6345 12.1534 16.9528C12.0494 16.6446 12.0007 16.5003 12 16.623C11.9993 16.5003 11.9506 16.6446 11.8466 16.9528C11.2791 18.6345 9.06454 25.1974 3.99987 19.9508C1.33323 17.1884 2.56794 14.4257 7.42179 13.5919C4.64492 14.069 1.5232 13.2807 0.666658 10.1901C0.420196 9.30108 0 3.82538 0 3.08556C0 -0.619279 3.21689 0.545013 5.20218 2.04977H5.20232Z"/>
</svg>
