<?xml version="1.0"?>
<svg viewBox="0 0 36 24" fill="none" xmlns="http://www.w3.org/2000/svg">
  <path d="M33 0C34.6569 0 36 1.34315 36 3V21C36 22.6051 34.7394 23.9158 33.1543 23.9961L33 24H3L2.8457 23.9961C1.26055 23.9158 0 22.6051 0 21V3C0 1.34315 1.34315 4.83192e-08 3 0H33ZM3 2C2.44772 2 2 2.44772 2 3V21C2 21.5523 2.44772 22 3 22H33C33.5523 22 34 21.5523 34 21V3C34 2.44771 33.5523 2 33 2H3ZM12.5635 6C13.2918 6 13.9623 6.10121 14.5742 6.30273C15.1861 6.50425 15.7228 6.79873 16.1846 7.18652C16.6463 7.57055 17.0182 8.04372 17.2998 8.60645C17.5814 9.16918 17.7524 9.8138 17.8125 10.54H14.6357C14.6132 10.2739 14.5537 10.0322 14.4561 9.81543C14.3622 9.59874 14.2304 9.41271 14.0615 9.25684C13.8963 9.09716 13.6955 8.97525 13.459 8.8916C13.2226 8.80424 12.9544 8.76078 12.6543 8.76074C12.1287 8.76074 11.6835 8.88988 11.3193 9.14844C10.9589 9.40699 10.6848 9.77787 10.4971 10.2607C10.3132 10.7436 10.2207 11.3233 10.2207 12C10.2207 12.7148 10.3152 13.314 10.5029 13.7969C10.6943 14.2756 10.97 14.6366 11.3301 14.8799C11.6905 15.1194 12.125 15.2393 12.6318 15.2393C12.9207 15.2392 13.1794 15.203 13.4082 15.1309C13.6372 15.0548 13.8369 14.9463 14.0059 14.8057C14.1746 14.6651 14.312 14.4963 14.417 14.2988C14.5258 14.0974 14.5982 13.8709 14.6357 13.6201L17.8125 13.6426C17.775 14.1369 17.6379 14.641 17.4014 15.1543C17.1649 15.6636 16.8289 16.135 16.3936 16.5684C15.9618 16.998 15.4263 17.3441 14.7881 17.6064C14.1499 17.8688 13.4081 18 12.5635 18C11.5049 18 10.5547 17.7696 9.71387 17.3096C8.8769 16.8495 8.21452 16.1727 7.72656 15.2793C7.24229 14.3858 7 13.2927 7 12C7 10.6997 7.24763 9.60456 7.74316 8.71484C8.23869 7.82137 8.90718 7.1467 9.74805 6.69043C10.5889 6.2304 11.5274 6.00005 12.5635 6ZM24.752 6C25.4801 6.00004 26.1499 6.10127 26.7617 6.30273C27.3736 6.50423 27.9103 6.79876 28.3721 7.18652C28.8338 7.57053 29.2057 8.04376 29.4873 8.60645C29.7689 9.16918 29.9399 9.8138 30 10.54H26.8242C26.8017 10.2739 26.7412 10.0322 26.6436 9.81543C26.5497 9.59878 26.4179 9.41269 26.249 9.25684C26.0839 9.09721 25.8829 8.97523 25.6465 8.8916C25.4101 8.80426 25.1419 8.76076 24.8418 8.76074C24.3162 8.76074 23.871 8.88988 23.5068 9.14844C23.1465 9.40699 22.8723 9.77793 22.6846 10.2607C22.5007 10.7436 22.4092 11.3234 22.4092 12C22.4092 12.7148 22.5027 13.314 22.6904 13.7969C22.8819 14.2758 23.1582 14.6366 23.5186 14.8799C23.879 15.1194 24.3125 15.2393 24.8193 15.2393C25.1083 15.2392 25.3677 15.2031 25.5967 15.1309C25.8255 15.0548 26.0245 14.9463 26.1934 14.8057C26.3621 14.6651 26.4995 14.4963 26.6045 14.2988C26.7133 14.0974 26.7867 13.871 26.8242 13.6201L30 13.6426C29.9625 14.1369 29.8254 14.641 29.5889 15.1543C29.3524 15.6637 29.0164 16.135 28.5811 16.5684C28.1493 16.998 27.6138 17.3441 26.9756 17.6064C26.3375 17.8687 25.5964 18 24.752 18C23.6933 18 22.7433 17.7696 21.9023 17.3096C21.0651 16.8495 20.4021 16.1728 19.9141 15.2793C19.4298 14.3858 19.1875 13.2927 19.1875 12C19.1875 10.6997 19.4352 9.60454 19.9307 8.71484C20.4262 7.82144 21.0948 7.1467 21.9355 6.69043C22.7765 6.23035 23.7158 6 24.752 6Z" fill="currentColor"/>
</svg>
