<?xml version="1.0"?>
<svg xmlns="http://www.w3.org/2000/svg" viewBox="0 0 487 751" fill="none">
  <path fill="currentColor" d="M486.098 224.708H0V0H486.098V224.708ZM69.626 171.401V192.309H121.894V171.401H69.626Z"/>
  <path stroke="currentColor" d="M95.7601 182.724C95.7601 182.724 95.7598 194.396 95.7598 249.544C95.7598 307.414 129.31 332.456 173.847 347.9C222.745 364.855 244.451 404.815 244.451 464.417" stroke-width="6.34447"/>
  <path fill="currentColor" d="M335.632 469.539C338.754 462.851 352.798 463.52 366.173 465.526C379.549 467.532 388.689 472.437 393.816 476.895C397.918 480.462 399.983 488.191 400.503 491.609C405.631 495.622 411.427 505.43 414.102 510.78C416.242 515.06 432.828 577.063 440.853 607.53C444.643 623.135 451.598 661.834 449.101 691.795C445.98 729.247 427.255 738.833 424.58 741.731C421.904 744.629 402.51 752.654 389.803 749.31C377.097 745.966 372.192 735.489 369.517 729.47C366.842 723.451 359.708 710.968 352.352 705.171C346.467 700.535 338.902 699.524 335.855 699.598H157.515C154.127 699.598 150.307 700.193 148.821 700.49C137.229 702.942 127.198 716.094 121.625 729.024C116.051 741.954 109.14 752.431 87.7398 749.31C66.339 746.189 57.4221 735.488 49.6197 721.221C41.8174 706.954 42.2628 677.083 41.817 664.153C41.4603 653.809 48.3557 617.487 51.8482 600.619L69.6822 535.302C70.7968 530.844 73.7842 519.875 76.816 511.671C79.8478 503.468 87.4428 494.581 90.8609 491.163C90.3259 488.488 93.0155 483.211 94.4273 480.908C99.3318 472.214 113.153 468.425 118.503 466.641C123.854 464.858 144.362 463.52 150.381 465.526C155.196 467.131 156.549 471.545 156.624 473.551L239.329 471.545L322.034 472.882L334.518 473.329L335.632 469.539ZM147.386 590.874C138.413 589.298 129.861 595.295 128.286 604.268L119.112 656.518C117.536 665.491 123.534 674.043 132.507 675.619L186.922 685.172C195.896 686.748 204.448 680.75 206.023 671.777L215.196 619.527C216.771 610.554 210.775 602.002 201.801 600.426L147.386 590.874ZM362.424 604.268C360.849 595.295 352.297 589.298 343.324 590.874L288.909 600.426C279.936 602.002 273.938 610.554 275.513 619.527L284.687 671.777C286.263 680.75 294.814 686.748 303.788 685.172L358.203 675.619C367.176 674.043 373.173 665.491 371.597 656.518L362.424 604.268ZM185.337 539.376C171.67 539.376 160.59 550.455 160.59 564.123C160.59 577.79 171.67 588.87 185.337 588.87C199.005 588.869 210.084 577.79 210.084 564.123C210.083 550.456 199.004 539.376 185.337 539.376ZM304.119 539.376C290.452 539.376 279.372 550.455 279.372 564.123C279.372 577.79 290.451 588.87 304.119 588.87C317.786 588.87 328.866 577.79 328.866 564.123C328.866 550.455 317.786 539.376 304.119 539.376ZM371.513 542.168C364.249 542.168 358.36 548.058 358.36 555.322C358.36 562.586 364.249 568.474 371.513 568.474C378.777 568.474 384.665 562.586 384.666 555.322C384.666 548.058 378.777 542.169 371.513 542.168ZM119.446 500.259C116.977 500.259 112.377 501.271 109.907 501.86C108.92 502.095 108.237 502.981 108.237 503.996V518.093C108.237 519.324 107.239 520.323 106.007 520.323H91.9478C91.0188 520.323 90.1891 520.899 89.9224 521.789C89.3287 523.771 88.396 527.517 88.3961 531.469C88.3962 535.42 89.3287 539.163 89.9224 541.146C90.1891 542.037 91.0189 542.615 91.9488 542.615H106.007C107.239 542.615 108.237 543.613 108.237 544.844V558.918C108.237 559.841 108.804 560.666 109.683 560.947C111.739 561.604 115.669 562.678 119.383 562.678C123.098 562.678 127.028 561.604 129.084 560.947C129.962 560.666 130.53 559.841 130.53 558.918V544.844C130.53 543.613 131.528 542.615 132.759 542.615H146.839C147.758 542.615 148.58 542.051 148.849 541.173C149.443 539.236 150.37 535.558 150.37 531.469C150.37 527.378 149.442 523.7 148.848 521.762C148.579 520.885 147.759 520.323 146.841 520.323H132.759C131.528 520.323 130.53 519.324 130.53 518.093V503.989C130.53 502.978 129.852 502.094 128.869 501.856C126.431 501.266 121.909 500.259 119.446 500.259ZM245.338 517.202C237.336 517.202 230.848 523.689 230.848 531.692C230.848 539.694 237.336 546.181 245.338 546.181C253.341 546.181 259.828 539.694 259.829 531.692C259.829 523.689 253.341 517.202 245.338 517.202ZM347.437 518.093C340.173 518.093 334.285 523.982 334.285 531.246C334.285 538.51 340.173 544.399 347.437 544.399C354.701 544.399 360.59 538.51 360.59 531.246C360.59 523.982 354.701 518.093 347.437 518.093ZM395.141 518.093C387.877 518.093 381.989 523.982 381.989 531.246C381.989 538.51 387.877 544.399 395.141 544.399C402.405 544.399 408.294 538.51 408.294 531.246C408.293 523.982 402.405 518.093 395.141 518.093ZM371.066 494.909C363.802 494.909 357.914 500.798 357.914 508.062C357.914 515.326 363.802 521.214 371.066 521.214C378.33 521.214 384.218 515.326 384.218 508.062C384.218 500.798 378.33 494.909 371.066 494.909Z"/>
  <path fill="currentColor" d="M299.726 685.378C299.98 685.396 300.234 685.41 300.489 685.417C300.234 685.41 299.98 685.396 299.726 685.378ZM302.437 685.351C302.25 685.369 302.063 685.382 301.876 685.393C302.063 685.382 302.25 685.369 302.437 685.351ZM298.531 685.247C298.782 685.284 299.035 685.315 299.289 685.34C299.035 685.315 298.782 685.284 298.531 685.247ZM302.952 685.298C302.892 685.305 302.833 685.31 302.773 685.317C302.835 685.31 302.896 685.304 302.958 685.297L302.952 685.298ZM303.792 685.172H303.791H303.792ZM288.696 679.983C288.612 679.89 288.53 679.796 288.448 679.702C288.53 679.796 288.612 679.89 288.696 679.983ZM344.354 596.722C350.097 595.714 355.57 599.552 356.578 605.295L365.752 657.544C366.76 663.286 362.921 668.76 357.179 669.768L302.765 679.322C297.022 680.33 291.549 676.491 290.541 670.749L281.367 618.499C280.359 612.756 284.197 607.285 289.939 606.276L344.354 596.722ZM360.053 675.182C359.586 675.32 359.11 675.441 358.625 675.539C359.11 675.441 359.586 675.32 360.053 675.182ZM285.735 675.334C285.628 675.078 285.526 674.82 285.432 674.557C285.526 674.82 285.628 675.078 285.735 675.334ZM360.888 674.912C360.673 674.988 360.456 675.06 360.236 675.128C360.456 675.06 360.673 674.988 360.888 674.912ZM284.845 672.542C284.99 673.192 285.173 673.825 285.391 674.44C285.173 673.825 284.99 673.192 284.845 672.542ZM368.757 668.985C368.67 669.105 368.583 669.224 368.493 669.342C368.583 669.224 368.67 669.105 368.757 668.985ZM369.625 667.642C369.454 667.937 369.275 668.226 369.087 668.509C369.275 668.226 369.454 667.937 369.625 667.642ZM283.499 602.392V602.393V602.392ZM289.446 680.758C289.376 680.69 289.306 680.622 289.237 680.552C289.306 680.622 289.376 680.69 289.446 680.758ZM289.225 680.541C289.139 680.454 289.054 680.366 288.97 680.277C289.054 680.366 289.139 680.454 289.225 680.541ZM288.926 680.23C288.849 680.148 288.772 680.066 288.696 679.983C288.772 680.066 288.849 680.148 288.926 680.23ZM288.402 679.648C288.331 679.565 288.261 679.482 288.191 679.397C288.261 679.482 288.331 679.565 288.402 679.648ZM287.174 678.02C287.127 677.949 287.08 677.878 287.034 677.806C287.08 677.878 287.127 677.949 287.174 678.02ZM286.384 676.694C286.335 676.603 286.286 676.513 286.239 676.421C286.286 676.513 286.335 676.603 286.384 676.694ZM285.825 675.539C285.795 675.47 285.764 675.403 285.735 675.334C285.764 675.403 285.795 675.47 285.825 675.539ZM366.844 671.207C366.772 671.276 366.7 671.345 366.627 671.414C366.7 671.345 366.772 671.276 366.844 671.207ZM366.567 671.469C366.488 671.543 366.407 671.617 366.326 671.689C366.407 671.617 366.488 671.543 366.567 671.469ZM367.394 670.645C367.321 670.724 367.246 670.802 367.171 670.88C367.246 670.802 367.321 670.724 367.394 670.645ZM371.806 660.618C371.799 660.703 371.792 660.789 371.784 660.874C371.792 660.789 371.799 660.703 371.806 660.618ZM371.774 660.976C371.764 661.083 371.753 661.189 371.74 661.295C371.753 661.189 371.764 661.083 371.774 660.976Z"/>
  <path fill="currentColor" d="M188.732 685.386C188.94 685.399 189.147 685.409 189.354 685.415C189.147 685.409 188.94 685.399 188.732 685.386ZM187.354 685.239C187.708 685.292 188.061 685.333 188.413 685.362C187.922 685.321 187.428 685.259 186.934 685.172L187.354 685.239ZM134.146 605.294C135.155 599.552 140.628 595.715 146.37 596.723L200.785 606.276C206.528 607.285 210.365 612.757 209.357 618.499L200.184 670.749C199.175 676.491 193.703 680.329 187.961 679.321L133.546 669.769C127.803 668.76 123.964 663.287 124.973 657.544L134.146 605.294ZM204.656 676.072C204.57 676.253 204.48 676.431 204.387 676.607C204.48 676.431 204.57 676.253 204.656 676.072ZM131.412 675.383C131.64 675.439 131.869 675.492 132.101 675.539C131.869 675.492 131.64 675.439 131.412 675.383ZM130.229 675.045C130.447 675.116 130.667 675.184 130.89 675.246C130.667 675.184 130.447 675.116 130.229 675.045ZM205.197 674.81C205.273 674.61 205.347 674.409 205.416 674.205C205.347 674.409 205.273 674.61 205.197 674.81ZM205.925 672.334C205.964 672.149 206.001 671.963 206.034 671.775C206.001 671.963 205.964 672.149 205.925 672.334ZM123.857 671.186C123.569 670.904 123.29 670.611 123.023 670.31C123.29 670.611 123.569 670.904 123.857 671.186ZM122.089 669.153C122.098 669.165 122.107 669.177 122.115 669.188C122.109 669.18 122.102 669.172 122.096 669.163L122.089 669.153ZM118.877 658.977C118.884 658.71 118.896 658.442 118.916 658.173C118.896 658.442 118.884 658.71 118.877 658.977ZM118.954 657.749C118.947 657.823 118.94 657.897 118.934 657.971C118.939 657.906 118.945 657.841 118.951 657.775L118.954 657.749ZM144.065 590.628H144.064H144.065ZM205.77 673.003C205.797 672.893 205.824 672.783 205.85 672.673C205.824 672.783 205.797 672.893 205.77 673.003ZM205.867 672.601C205.887 672.512 205.906 672.423 205.925 672.334C205.906 672.423 205.887 672.512 205.867 672.601ZM122.373 669.527C122.435 669.607 122.497 669.686 122.561 669.764C122.497 669.686 122.435 669.607 122.373 669.527ZM124.069 671.388C123.998 671.321 123.927 671.254 123.857 671.186C123.927 671.254 123.998 671.321 124.069 671.388ZM121.028 667.521C121.02 667.506 121.012 667.491 121.003 667.476C121.012 667.491 121.02 667.506 121.028 667.521ZM118.875 659.148C118.876 659.091 118.876 659.034 118.877 658.977C118.876 659.034 118.876 659.091 118.875 659.148Z"/>
  <circle fill="currentColor" cx="185.342" cy="564.122" r="18.8076"/>
  <circle fill="currentColor" cx="304.128" cy="564.122" r="18.8076"/>
  <path fill="currentColor" d="M251.474 522.459C254.45 522.459 256.866 524.876 256.866 527.853C256.866 530.829 254.45 533.245 251.474 533.245H251.353L246.487 536.717V536.903C246.487 539.133 244.674 540.956 242.434 540.956C240.479 540.956 238.831 539.561 238.469 537.705L232.988 535.442L240.171 533.564C240.819 533.114 241.611 532.861 242.445 532.861H242.676L246.08 527.918V527.853C246.08 524.876 248.497 522.459 251.474 522.459ZM243.616 534.092C242.869 533.784 242.079 533.795 241.376 534.059L243.188 534.806C244.331 535.278 244.869 536.585 244.396 537.728C243.924 538.87 242.606 539.408 241.475 538.936H241.464L239.706 538.211C240.014 538.859 240.553 539.397 241.277 539.704C242.826 540.352 244.605 539.616 245.253 538.067C245.56 537.321 245.571 536.497 245.253 535.739C244.945 534.992 244.363 534.399 243.616 534.092ZM251.485 524.261C249.508 524.261 247.894 525.875 247.894 527.853C247.894 529.83 249.508 531.444 251.485 531.444C253.462 531.444 255.077 529.829 255.077 527.853C255.077 525.876 253.462 524.261 251.485 524.261ZM251.485 525.14C252.979 525.14 254.188 526.348 254.188 527.842C254.187 529.335 252.979 530.543 251.485 530.543C249.992 530.543 248.783 529.335 248.783 527.842C248.783 526.348 249.992 525.14 251.485 525.14Z"/>
  <path fill="currentColor" d="M232.991 535.448L232.519 530.41L240.181 533.572L235.563 536.222L232.991 535.448Z"/>
  <rect fill="currentColor" x="232.519" y="464.146" width="24.3474" height="14.98"/>
  <rect fill="currentColor" x="72.3972" y="175.317" width="46.7251" height="20.0024"/>
</svg>
