<?xml version="1.0"?>
<svg xmlns="http://www.w3.org/2000/svg" version="1.1" viewBox="0 0 1200 1200">
  <path d="m1111.2 484.8-22.801-15.602c-25.199-16.801-36-49.199-27.602-78l7.1992-26.398c12-40.801-15.602-82.801-57.602-90l-27.602-4.8008c-30-4.8008-54-27.602-58.801-57.602l-4.8008-27.602c-7.1992-42-49.199-68.398-90-56.398l-26.398 8.3984c-28.801 8.3984-61.199-2.3984-78-26.398l-16.793-24c-25.199-34.801-74.398-39.602-105.6-10.801l-20.398 19.199c-22.801 20.398-55.199 25.199-82.801 9.6016l-24-13.199c-37.199-20.398-84-3.6016-100.8 36l-10.801 26.398c-10.801 28.801-39.602 46.801-69.602 44.398l-27.602-1.1992c-43.199-2.3984-78 33.602-74.398 75.602l2.3984 27.602c2.3984 30-15.602 58.801-43.199 70.801l-25.199 10.801c-39.602 16.801-55.199 63.602-34.801 100.8l14.398 24c15.602 26.398 12 60-8.3984 82.801l-18 20.398c-28.801 32.398-22.801 81.602 13.199 105.6l22.801 15.602c25.199 16.801 36 49.199 27.602 78l-10.797 27.594c-12 40.801 15.602 82.801 57.602 90l27.602 4.8008c30 4.8008 54 27.602 58.801 57.602l4.8008 27.602c7.1992 42 49.199 68.398 90 56.398l26.398-8.3984c28.801-8.3984 61.199 2.3984 78 26.398l16.801 22.801c25.199 34.801 74.398 39.602 105.6 10.801l20.398-19.199c22.801-20.398 55.199-25.199 82.801-9.6016l24 13.199c37.199 20.398 84 3.6016 100.8-36l10.801-26.398c10.801-28.801 39.602-46.801 69.602-44.398l27.602 1.1992c43.199 2.3984 78-33.602 74.398-75.602l-1.207-27.602c-2.3984-30 15.602-58.801 43.199-70.801l25.199-10.801c39.602-16.801 55.199-63.602 34.801-100.8l-14.398-24c-15.602-26.398-12-60 8.3984-82.801l18-20.398c30-31.199 24-81.598-10.801-105.6zm-511.2 474c-198 0-357.6-160.8-357.6-358.8s160.8-357.6 357.6-357.6 357.6 159.6 357.6 357.6-159.6 358.8-357.6 358.8zm0-636c-152.4 0-277.2 124.8-277.2 277.2s124.8 277.2 277.2 277.2 277.2-124.8 277.2-277.2-124.8-277.2-277.2-277.2zm21.602 350.4-63.602 63.602-63.602-64.801-61.199-61.199 63.602-63.602 61.199 61.199 146.4-145.2 63.602 63.602z"/>
</svg>
