<?xml version="1.0"?>
<svg xmlns="http://www.w3.org/2000/svg" width="142" height="44" viewBox="0 0 142 44" fill="#C7C5C2">
  <path d="M22,0C10.4,0,0.9,8.9,0,20.2l11.8,4.9c1-0.7,2.2-1.1,3.5-1.1c0.1,0,0.2,0,0.3,0l5.3-7.6c0,0,0-0.1,0-0.1    c0-4.6,3.7-8.3,8.3-8.3c4.6,0,8.3,3.7,8.3,8.3s-3.7,8.3-8.3,8.3c-0.1,0-0.1,0-0.2,0L21.6,30c0,0.1,0,0.2,0,0.3    c0,3.4-2.8,6.2-6.2,6.2c-3,0-5.5-2.2-6.1-5L0.8,28C3.4,37.2,11.9,44,22,44C34.2,44,44,34.1,44,22S34.2,0,22,0z"/>
  <path d="M13.8,33.4l-2.7-1.1c0.5,1,1.3,1.8,2.4,2.3c2.4,1,5.1-0.1,6.1-2.5c0.5-1.1,0.5-2.4,0-3.6    c-0.5-1.2-1.4-2.1-2.5-2.5c-1.1-0.5-2.4-0.5-3.5-0.1l2.8,1.2c1.8,0.7,2.6,2.7,1.9,4.5C17.6,33.3,15.6,34.1,13.8,33.4z"/>
  <path d="M34.8,16.3c0-3-2.5-5.5-5.5-5.5c-3.1,0-5.5,2.5-5.5,5.5s2.5,5.5,5.5,5.5C32.3,21.9,34.8,19.4,34.8,16.3z     M25.1,16.3c0-2.3,1.9-4.2,4.2-4.2s4.2,1.9,4.2,4.2c0,2.3-1.9,4.2-4.2,4.2S25.1,18.6,25.1,16.3z"/>
  <path d="M45.9,6.4c0,1.3-1,2.1-2.1,2.1c-1.1,0-2.1-0.8-2.1-2.1s1-2.1,2.1-2.1C44.9,4.3,45.9,5.1,45.9,6.4z M42,6.4    c0,1.1,0.8,1.8,1.8,1.8c1,0,1.8-0.7,1.8-1.8c0-1.1-0.8-1.8-1.8-1.8C42.8,4.6,42,5.3,42,6.4z M43.8,5.3c0.6,0,0.7,0.3,0.7,0.6    c0,0.3-0.2,0.5-0.4,0.6l0.5,0.9h-0.4l-0.4-0.8h-0.5v0.8h-0.3V5.3L43.8,5.3L43.8,5.3z M43.4,6.3h0.4c0.3,0,0.4-0.2,0.4-0.4    c0-0.2-0.1-0.3-0.4-0.3h-0.4V6.3z"/>
  <path d="M141.9,12.7c0,1.3-1,2.1-2.1,2.1c-1.1,0-2.1-0.8-2.1-2.1s1-2.1,2.1-2.1C141,10.5,141.9,11.4,141.9,12.7z     M138,12.7c0,1.1,0.8,1.8,1.8,1.8c1,0,1.8-0.7,1.8-1.8c0-1.1-0.8-1.8-1.8-1.8C138.8,10.8,138,11.5,138,12.7z M139.8,11.6    c0.6,0,0.7,0.3,0.7,0.6c0,0.3-0.2,0.5-0.4,0.6l0.5,0.9h-0.4l-0.4-0.8h-0.5v0.8h-0.3v-2.1L139.8,11.6L139.8,11.6z M139.4,12.6h0.4    c0.3,0,0.4-0.2,0.4-0.4c0-0.2-0.1-0.3-0.4-0.3h-0.4V12.6z"/>
  <path d="M65.9,20.5c-1.1,3-3.6,5-6.5,6.1c-0.3-0.6-0.8-1.4-1.3-1.9c1.8-0.5,3.5-1.5,4.6-2.8H59v-1.9h5l0.4-0.1    L65.9,20.5z M58.4,30.6c0.8-0.8,1.7-2,2.2-3l2.1,1c-0.6,1-1.4,2.3-2.2,3.1L58.4,30.6z M62.7,15.8h-4.1v-2.1h4.1v-1.1h2.5v1.1h5.2    v-1.1h2.5v1.1h4.1v2.1h-4.1v1.1h-2.5v-1.1h-5.2v1.1h-2.5V15.8z M61.4,25.6h12.2v2H61.4V25.6z M75.7,20.8c-0.9,0.7-1.9,1.4-2.8,1.9    c1.3,0.6,2.7,1.1,4.2,1.4c-0.5,0.5-1.2,1.4-1.5,2.1c-2.6-0.7-5-2.1-6.7-3.9v1c0,1-0.2,1.5-0.9,1.8c-0.7,0.3-1.6,0.3-2.7,0.3    c-0.1-0.6-0.4-1.3-0.7-1.9c0.7,0,1.4,0,1.6,0c0.2,0,0.3-0.1,0.3-0.3v-2.9c0.7-0.3,1.4-0.7,2.1-1.2h-7.1v-1.9h9.6l0.5-0.1l1.5,1.3    c-0.9,0.7-2.1,1.5-3.3,2.2c0.3,0.4,0.8,0.8,1.3,1.1c0.9-0.6,2-1.5,2.6-2.2L75.7,20.8z M66.2,28.2c0.3,1,0.6,2.3,0.6,3.1l-2.4,0.4    c0-0.8-0.2-2.2-0.5-3.2L66.2,28.2z M70.5,27.9c0.6,0.9,1.1,2.1,1.3,3l-2.2,0.7c-0.1-0.8-0.6-2.1-1.2-3L70.5,27.9z M74.7,27.6    c0.9,0.9,2,2.2,2.5,3.1l-2.2,1c-0.5-0.9-1.5-2.2-2.4-3.2L74.7,27.6z"/>
  <path d="M82.2,22.2c-0.8-0.6-2.4-1.4-3.6-2l1.3-1.8c1.1,0.5,2.8,1.3,3.6,1.8L82.2,22.2z M79.3,29.7    c1-1.5,2.5-4,3.6-6.3l1.9,1.6c-1,2.1-2.2,4.4-3.3,6.3L79.3,29.7z M83.3,16.8c-0.7-0.6-2.3-1.6-3.5-2.2l1.4-1.8    c1.1,0.5,2.7,1.4,3.5,2L83.3,16.8z M87.1,17.8c-0.5,0.7-0.9,1.2-1.4,1.8c-0.5-0.4-1.4-1.2-2-1.5c1.5-1.3,2.8-3.5,3.5-5.6l2.4,0.6    c-0.2,0.5-0.4,1-0.7,1.5h9v2.1H87.8C87.6,17.1,87.4,17.4,87.1,17.8l9-0.1v2h-9L87.1,17.8L87.1,17.8z M95.7,20.9c0,5,0,8.5,0.7,8.5    c0.2,0,0.3-1.1,0.3-2.6c0.4,0.5,1,1.2,1.4,1.5c-0.2,2.3-0.6,3.4-2,3.4c-2.5,0-2.8-3.4-2.9-8.7h-8.3v-2.1h9.6v0L95.7,20.9    L95.7,20.9z"/>
  <path d="M118.4,24.9h-8.1v6.8h-2.6v-6.8h-8v-2.5h8v-6.2h-6.9v-2.4h16.4v2.4h-6.9v6.2h8.1V24.9z M104.2,16.8    c0.7,1.3,1.4,3,1.7,4.2l-2.4,0.7c-0.2-1.1-0.8-2.9-1.5-4.3L104.2,16.8z M111.9,21.1c0.7-1.2,1.4-3,1.8-4.3l2.6,0.7    c-0.7,1.6-1.6,3.3-2.3,4.3L111.9,21.1z"/>
  <path d="M133.2,14.4c1.9,1.8,4.4,4.3,5.4,6l-2.1,1.5c-0.3-0.5-0.6-1-1.1-1.6c-11,0.5-12.4,0.6-13.5,0.9    c-0.1-0.5-0.5-1.7-0.8-2.3c0.5-0.1,1-0.5,1.7-1.2c0.7-0.6,3-3.1,4.4-5.6l2.5,1c-1.3,1.9-2.9,3.7-4.5,5.2l8.5-0.3    c-0.8-0.9-1.6-1.8-2.4-2.5L133.2,14.4z M122.6,22.6h13.9v9h-2.6v-1h-8.7v1h-2.5V22.6z M125.2,25v3.3h8.7V25H125.2z"/>
</svg>
