<?xml version="1.0"?>
<svg xmlns="http://www.w3.org/2000/svg" viewBox="0 0 351 255" fill="none">
  <path fill="currentColor" d="M284.214 35.1764C287.954 35.1764 290.994 32.1369 290.994 28.397C290.994 24.6571 287.954 21.6176 284.214 21.6176C280.475 21.6176 277.435 24.6571 277.435 28.397C277.435 32.1369 280.475 35.1764 284.214 35.1764Z"/>
  <path fill="currentColor" d="M231.633 25.7112H245.069C246.708 25.7112 248.036 24.3828 248.036 22.7439C248.036 21.105 246.708 19.7188 245.069 19.7188H231.633C229.994 19.7188 228.666 21.0473 228.666 22.6861C228.666 24.325 229.994 25.7112 231.633 25.7112Z"/>
  <path fill="currentColor" d="M276.497 117.814C275.176 108.421 267.046 101.339 257.574 101.339C256.678 101.339 255.776 101.403 254.881 101.526L221.98 106.147C216.919 106.862 212.436 109.497 209.36 113.583C206.284 117.662 204.985 122.702 205.692 127.763L210.313 160.664C211.634 170.057 219.764 177.139 229.236 177.139C230.131 177.139 231.034 177.074 231.929 176.951L264.83 172.331C275.277 170.865 282.583 161.169 281.117 150.722L276.497 117.821V117.814Z"/>
  <path fill="currentColor" d="M128.411 106.154L95.5107 101.533C94.6155 101.411 93.713 101.346 92.8177 101.346C83.3526 101.346 75.2159 108.428 73.8947 117.821L69.274 150.722C67.8084 161.169 75.1148 170.865 85.5619 172.331L118.462 176.951C119.358 177.074 120.26 177.139 121.155 177.139C130.621 177.139 138.757 170.057 140.079 160.664L144.699 127.763C145.414 122.702 144.107 117.67 141.032 113.583C137.956 109.504 133.472 106.862 128.411 106.147V106.154Z"/>
  <path fill="currentColor" d="M105.322 25.7112H118.758C120.397 25.7112 121.726 24.3828 121.726 22.7439C121.726 21.105 120.397 19.7188 118.758 19.7188H105.322C103.683 19.7188 102.355 21.0473 102.355 22.6861C102.355 24.325 103.683 25.7112 105.322 25.7112Z"/>
  <path fill="currentColor" d="M265.631 53.7601C269.371 53.7601 272.41 50.7206 272.41 46.9807C272.41 43.2409 269.371 40.2014 265.631 40.2014C261.891 40.2014 258.852 43.2409 258.852 46.9807C258.852 50.7206 261.891 53.7601 265.631 53.7601Z"/>
  <path fill="currentColor" d="M181.722 41.8619C181.722 40.5479 180.654 39.4794 179.34 39.4794C178.026 39.4794 176.957 40.5479 176.957 41.8619C176.957 43.1759 178.026 44.2444 179.34 44.2444C180.654 44.2444 181.722 43.1759 181.722 41.8619Z"/>
  <path fill="currentColor" d="M45.6076 52.4822H53.802C57.2675 52.4822 60.0833 55.2979 60.0833 58.7634V67.9398C60.0833 68.2502 60.336 68.5029 60.6464 68.5029H71.7793C72.0898 68.5029 72.3425 68.2502 72.3425 67.9398V58.7634C72.3425 55.2979 75.1582 52.4822 78.6237 52.4822H86.8182C87.1286 52.4822 87.3813 52.2295 87.3813 51.9191V42.7644C87.3813 42.4539 87.1286 42.2012 86.8182 42.2012H78.6237C75.1582 42.2012 72.3425 39.3855 72.3425 35.92V26.7436C72.3425 26.4332 72.0898 26.1805 71.7793 26.1805H60.6464C60.336 26.1805 60.0833 26.4332 60.0833 26.7436V35.92C60.0833 39.3855 57.2675 42.2012 53.802 42.2012H45.6076C45.2971 42.2012 45.0444 42.4539 45.0444 42.7644V51.9191C45.0444 52.2295 45.2971 52.4822 45.6076 52.4822Z"/>
  <path fill="currentColor" d="M184.386 134.6H166.005C163.86 134.6 162.113 136.347 162.113 138.492C162.113 140.636 163.86 142.455 166.005 142.455H184.386C186.531 142.455 188.278 140.708 188.278 138.564C188.278 136.42 186.531 134.6 184.386 134.6Z"/>
  <path fill="currentColor" d="M227.222 61.8824C220.724 61.8824 215.432 67.1673 215.432 73.6652C215.432 80.163 220.717 85.4551 227.222 85.4551C233.727 85.4551 239.011 80.1702 239.011 73.6652C239.011 67.1601 233.727 61.8824 227.222 61.8824Z"/>
  <path fill="currentColor" d="M317 32.9743C314.213 25.5957 310.285 19.856 304.329 15.3941C303.975 14.5927 303.527 13.7769 302.964 12.9611C297.196 4.62941 275.247 -2.64093 259.544 0.932869C258.202 1.2361 256.989 1.71261 255.906 2.29019C235.972 0.600759 209.793 0.18923 175.203 0.18923C140.613 0.18923 114.434 0.600759 94.4999 2.29019C93.4097 1.71983 92.1968 1.24332 90.8611 0.932869C75.1581 -2.64093 53.2099 4.62941 47.4413 12.9611C46.8781 13.7769 46.4305 14.5927 46.0767 15.3941C40.1276 19.856 36.1928 25.5957 33.406 32.9743C21.3345 64.9291 0 141.315 0 185.752C0 230.19 12.6563 254.16 46.8637 254.16C54.856 254.16 59.5417 250.853 63.101 245.475C69.8587 235.273 72.1763 207.318 86.3632 200.495C92.4567 197.564 94.9836 196.524 175.196 196.524C255.408 196.524 257.942 197.564 264.028 200.495C278.215 207.318 280.532 235.28 287.29 245.475C290.857 250.853 295.535 254.16 303.527 254.16C337.735 254.16 350.391 230.19 350.391 185.752C350.391 141.315 329.057 64.9291 316.992 32.9743H317ZM302.798 35.8695C308.935 35.8695 313.91 40.8439 313.91 46.9807C313.91 53.1176 308.935 58.092 302.798 58.092C296.661 58.092 291.687 53.1176 291.687 46.9807C291.687 40.8439 296.661 35.8695 302.798 35.8695ZM295.326 65.5645C295.326 71.7013 290.351 76.6758 284.215 76.6758C278.078 76.6758 273.103 71.7013 273.103 65.5645C273.103 59.4277 278.078 54.4532 284.215 54.4532C290.351 54.4532 295.326 59.4277 295.326 65.5645ZM284.215 17.2929C290.351 17.2929 295.326 22.2674 295.326 28.4042C295.326 34.541 290.351 39.5155 284.215 39.5155C278.078 39.5155 273.103 34.541 273.103 28.4042C273.103 22.2674 278.078 17.2929 284.215 17.2929ZM265.631 35.8695C271.768 35.8695 276.742 40.8439 276.742 46.9807C276.742 53.1176 271.768 58.092 265.631 58.092C259.494 58.092 254.519 53.1176 254.519 46.9807C254.519 40.8439 259.494 35.8695 265.631 35.8695ZM231.633 15.3869H245.069C249.09 15.3869 252.368 18.6647 252.368 22.6861C252.368 26.7075 249.09 30.0431 245.069 30.0431H231.633C227.611 30.0431 224.334 26.7653 224.334 22.7439C224.334 18.7224 227.611 15.3869 231.633 15.3869ZM175.196 18.8163C177.347 18.8163 179.094 20.5635 179.094 22.715C179.094 24.8665 177.347 26.6137 175.196 26.6137C173.044 26.6137 171.297 24.8665 171.297 22.715C171.297 20.5635 173.044 18.8163 175.196 18.8163ZM175.174 32.505C182.134 32.505 187.78 38.1509 187.78 45.1108C187.78 52.0707 182.134 57.7166 175.174 57.7166C169.405 57.7166 164.539 53.8395 163.045 48.5474L167.875 50.5473C168.2 52.179 169.644 53.4136 171.376 53.4136C173.347 53.4136 174.943 51.8108 174.943 49.847C174.943 49.7892 174.943 49.7315 174.943 49.6809L179.231 46.6197C179.231 46.6197 179.304 46.6197 179.34 46.6197C181.961 46.6197 184.098 44.4899 184.098 41.8619C184.098 39.2339 181.968 37.104 179.34 37.104C176.712 37.104 174.582 39.2339 174.582 41.8619C174.582 41.8836 174.582 41.9052 174.582 41.9269L171.578 46.2804C171.513 46.2804 171.449 46.2804 171.376 46.2804C170.633 46.2804 169.94 46.5114 169.369 46.9013L162.611 44.1073C163.124 37.6167 168.553 32.5123 175.174 32.5123V32.505ZM172.026 47.9987L170.423 47.3345C171.037 47.1035 171.745 47.089 172.394 47.3634C173.051 47.6377 173.571 48.1576 173.838 48.8146C174.113 49.4788 174.113 50.2008 173.838 50.865C173.268 52.2295 171.701 52.8721 170.337 52.3089C169.709 52.049 169.232 51.5653 168.958 50.9949L170.503 51.6375C171.506 52.0562 172.661 51.5797 173.08 50.5762C173.499 49.5726 173.022 48.4175 172.019 47.9987H172.026ZM176.163 41.8619C176.163 40.1147 177.585 38.6924 179.333 38.6924C181.08 38.6924 182.502 40.1147 182.502 41.8619C182.502 43.6091 181.08 45.0314 179.333 45.0314C177.585 45.0314 176.163 43.6091 176.163 41.8619ZM105.322 15.3869H118.758C122.78 15.3869 126.058 18.6647 126.058 22.6861C126.058 26.7075 122.78 30.0431 118.758 30.0431H105.322C101.301 30.0431 98.0232 26.7653 98.0232 22.7439C98.0232 18.7224 101.301 15.3869 105.322 15.3869ZM40.7124 42.7644C40.7124 40.0642 42.9 37.8693 45.6075 37.8693H53.8019C54.8777 37.8693 55.7513 36.9958 55.7513 35.92V26.7436C55.7513 24.0434 57.9389 21.8486 60.6463 21.8486H71.7792C74.4794 21.8486 76.6742 24.0362 76.6742 26.7436V35.92C76.6742 36.9958 77.5478 37.8693 78.6236 37.8693H86.818C89.5182 37.8693 91.7131 40.0569 91.7131 42.7644V51.9191C91.7131 54.6193 89.5255 56.8141 86.818 56.8141H78.6236C77.5478 56.8141 76.6742 57.6877 76.6742 58.7634V67.9398C76.6742 70.64 74.4866 72.8348 71.7792 72.8348H60.6463C57.9461 72.8348 55.7513 70.6472 55.7513 67.9398V58.7634C55.7513 57.6877 54.8777 56.8141 53.8019 56.8141H45.6075C42.9072 56.8141 40.7124 54.6265 40.7124 51.9191V42.7644ZM147.912 128.218L143.291 161.118C141.717 172.302 132.137 180.388 121.155 180.388C120.116 180.388 119.069 180.316 118.015 180.164L85.1142 175.544C72.8694 173.825 64.3428 162.505 66.0611 150.26L70.6818 117.359C72.2557 106.176 81.8364 98.0897 92.8177 98.0897C93.8573 98.0897 94.9042 98.1619 95.9583 98.3135L128.859 102.934C141.104 104.652 149.63 115.973 147.912 128.218ZM184.386 146.787H166.005C161.471 146.787 157.781 143.098 157.781 138.564C157.781 134.03 161.471 130.268 166.005 130.268H184.386C188.92 130.268 192.61 133.958 192.61 138.492C192.61 143.026 188.92 146.787 184.386 146.787ZM265.284 175.544L232.384 180.164C231.329 180.316 230.275 180.388 229.243 180.388C218.262 180.388 208.674 172.302 207.107 161.118L202.486 128.218C200.768 115.973 209.295 104.66 221.539 102.934L254.44 98.3135C255.494 98.1619 256.548 98.0897 257.581 98.0897C268.562 98.0897 278.15 106.176 279.717 117.359L284.337 150.26C286.056 162.505 277.529 173.818 265.284 175.544ZM312.307 197.643C309.744 169.956 306.625 142 299.513 115.092C298.235 110.551 296.784 106.06 294.907 101.808C293.506 98.725 291.918 95.6422 289.499 93.339C287.861 91.8373 285.969 90.3284 284.099 89.1227C281.189 87.3538 277.919 86.2925 274.576 85.5705C270.064 84.5237 265.342 84.0688 260.656 83.5707C257.104 83.3468 253.545 83.1519 249.993 82.9642C246.325 91.9312 237.51 98.2557 227.221 98.2557C216.933 98.2557 207.273 91.3031 203.952 81.643C194.371 81.5419 184.783 81.5202 175.196 81.5636C165.608 81.5202 156.02 81.5419 146.439 81.643C143.125 91.3103 133.963 98.2557 123.177 98.2557C112.391 98.2557 104.081 91.9384 100.413 82.9786C96.8536 83.1591 93.2942 83.3468 89.7421 83.5707C85.0564 84.0688 80.3347 84.5237 75.8223 85.5705C72.4795 86.2853 69.2162 87.3538 66.2994 89.1227C64.4222 90.3284 62.5379 91.8301 60.899 93.339C58.4731 95.6422 56.892 98.725 55.4914 101.808C53.6142 106.06 52.163 110.551 50.8851 115.092C43.7808 142.008 40.6619 169.963 38.0916 197.643C37.9689 198.936 36.0845 198.82 36.1567 197.55C36.1928 196.849 37.9761 168.071 42.3802 142.434C44.8133 128.305 47.3185 113.995 52.8778 100.653C54.3867 97.2811 56.1484 93.8156 58.9208 91.1875C60.2925 89.9169 61.6787 88.7761 63.166 87.6571C70.7468 82.235 80.5224 81.5491 89.4605 80.5239C92.7599 80.264 96.0594 80.0474 99.3661 79.8597C98.8535 77.8815 98.5791 75.8094 98.5791 73.6651C98.5791 60.0774 109.589 49.0672 123.177 49.0672C136.765 49.0672 147.775 60.0774 147.775 73.6651C147.775 75.3401 147.609 76.9718 147.291 78.5457C156.597 78.4807 165.904 78.4663 175.203 78.4013C184.502 78.4663 193.808 78.4807 203.115 78.5457C202.797 76.9718 202.631 75.3401 202.631 73.6651C202.631 60.0774 213.641 49.0672 227.229 49.0672C240.816 49.0672 251.826 60.0774 251.826 73.6651C251.826 75.8022 251.552 77.8742 251.04 79.8452C254.339 80.0402 257.638 80.264 260.938 80.5239C269.876 81.5491 279.652 82.235 287.232 87.6571C288.727 88.7761 290.106 89.9241 291.478 91.1875C294.25 93.8156 296.004 97.2811 297.521 100.653C303.087 114.002 305.592 128.305 308.018 142.434C312.429 168.071 314.206 196.849 314.242 197.55C314.307 198.813 312.429 198.929 312.307 197.643Z"/>
  <path fill="currentColor" d="M227.222 53.3992C216.045 53.3992 206.956 62.4889 206.956 73.6651C206.956 84.8414 216.045 93.9311 227.222 93.9311C238.398 93.9311 247.488 84.8414 247.488 73.6651C247.488 62.4889 238.398 53.3992 227.222 53.3992ZM227.222 89.7869C218.32 89.7869 211.1 82.5671 211.1 73.6651C211.1 64.7631 218.32 57.5506 227.222 57.5506C236.124 57.5506 243.343 64.7703 243.343 73.6651C243.343 82.5599 236.124 89.7869 227.222 89.7869Z"/>
  <path fill="currentColor" d="M302.798 53.7601C306.538 53.7601 309.578 50.7206 309.578 46.9807C309.578 43.2409 306.538 40.2014 302.798 40.2014C299.059 40.2014 296.019 43.2409 296.019 46.9807C296.019 50.7206 299.059 53.7601 302.798 53.7601Z"/>
  <path fill="currentColor" d="M284.214 58.7851C280.475 58.7851 277.435 61.8246 277.435 65.5645C277.435 69.3043 280.475 72.3439 284.214 72.3439C287.954 72.3439 290.994 69.3043 290.994 65.5645C290.994 61.8246 287.954 58.7851 284.214 58.7851Z"/>
  <path fill="currentColor" d="M123.17 61.8824C116.672 61.8824 111.38 67.1673 111.38 73.6652C111.38 80.163 116.665 85.4551 123.17 85.4551C129.675 85.4551 134.96 80.1702 134.96 73.6652C134.96 67.1601 129.675 61.8824 123.17 61.8824Z"/>
  <path fill="currentColor" d="M123.17 53.3992C111.994 53.3992 102.904 62.4889 102.904 73.6651C102.904 84.8414 111.994 93.9311 123.17 93.9311C134.346 93.9311 143.436 84.8414 143.436 73.6651C143.436 62.4889 134.346 53.3992 123.17 53.3992ZM123.17 89.7869C114.268 89.7869 107.048 82.5671 107.048 73.6651C107.048 64.7631 114.268 57.5506 123.17 57.5506C132.072 57.5506 139.292 64.7703 139.292 73.6651C139.292 82.5599 132.072 89.7869 123.17 89.7869Z"/>
</svg>
