<?xml version="1.0"?>
<svg xmlns="http://www.w3.org/2000/svg" viewBox="0 0 294 213" fill="none">
  <path fill="currentColor" d="M238.156 29.476C241.29 29.476 243.837 26.9291 243.837 23.7953C243.837 20.6615 241.29 18.1145 238.156 18.1145C235.023 18.1145 232.476 20.6615 232.476 23.7953C232.476 26.9291 235.023 29.476 238.156 29.476Z"/>
  <path fill="currentColor" d="M194.096 21.5445H205.355C206.728 21.5445 207.841 20.4314 207.841 19.0581C207.841 17.6848 206.728 16.5232 205.355 16.5232H194.096C192.723 16.5232 191.609 17.6364 191.609 19.0097C191.609 20.383 192.723 21.5445 194.096 21.5445Z"/>
  <path fill="currentColor" d="M231.689 98.7219C230.582 90.8511 223.77 84.9163 215.833 84.9163C215.083 84.9163 214.326 84.9707 213.576 85.0736L186.007 88.9454C181.766 89.5444 178.01 91.7525 175.432 95.1767C172.855 98.5949 171.766 102.818 172.359 107.059L176.231 134.627C177.338 142.498 184.15 148.433 192.087 148.433C192.838 148.433 193.594 148.379 194.344 148.276L221.913 144.404C230.667 143.176 236.789 135.051 235.561 126.297L231.689 98.728V98.7219Z"/>
  <path fill="currentColor" d="M107.602 88.9513L80.0328 85.0794C79.2827 84.9766 78.5264 84.9221 77.7763 84.9221C69.845 84.9221 63.0269 90.857 61.9197 98.7278L58.0479 126.297C56.8198 135.051 62.9422 143.176 71.6962 144.404L99.2652 148.276C100.015 148.378 100.772 148.433 101.522 148.433C109.453 148.433 116.271 142.498 117.378 134.627L121.25 107.058C121.849 102.817 120.754 98.6007 118.177 95.1765C115.6 91.7584 111.843 89.5442 107.602 88.9452V88.9513Z"/>
  <path fill="currentColor" d="M88.2545 21.5445H99.5132C100.887 21.5445 102 20.4314 102 19.0581C102 17.6848 100.887 16.5232 99.5132 16.5232H88.2545C86.8812 16.5232 85.7681 17.6364 85.7681 19.0097C85.7681 20.383 86.8812 21.5445 88.2545 21.5445Z"/>
  <path fill="currentColor" d="M222.584 45.048C225.718 45.048 228.265 42.5011 228.265 39.3673C228.265 36.2335 225.718 33.6865 222.584 33.6865C219.45 33.6865 216.903 36.2335 216.903 39.3673C216.903 42.5011 219.45 45.048 222.584 45.048Z"/>
  <path fill="currentColor" d="M152.274 35.078C152.274 33.9769 151.378 33.0815 150.277 33.0815C149.176 33.0815 148.281 33.9769 148.281 35.078C148.281 36.179 149.176 37.0744 150.277 37.0744C151.378 37.0744 152.274 36.179 152.274 35.078Z"/>
  <path fill="currentColor" d="M38.217 43.9772H45.0835C47.9874 43.9772 50.3468 46.3366 50.3468 49.2405V56.9298C50.3468 57.1899 50.5586 57.4017 50.8187 57.4017H60.1475C60.4077 57.4017 60.6194 57.1899 60.6194 56.9298V49.2405C60.6194 46.3366 62.9788 43.9772 65.8827 43.9772H72.7493C73.0094 43.9772 73.2211 43.7654 73.2211 43.5053V35.8341C73.2211 35.574 73.0094 35.3623 72.7493 35.3623H65.8827C62.9788 35.3623 60.6194 33.0028 60.6194 30.0989V22.4096C60.6194 22.1495 60.4077 21.9377 60.1475 21.9377H50.8187C50.5586 21.9377 50.3468 22.1495 50.3468 22.4096V30.0989C50.3468 33.0028 47.9874 35.3623 45.0835 35.3623H38.217C37.9569 35.3623 37.7451 35.574 37.7451 35.8341V43.5053C37.7451 43.7654 37.9569 43.9772 38.217 43.9772Z"/>
  <path fill="currentColor" d="M154.505 112.788H139.103C137.306 112.788 135.842 114.252 135.842 116.048C135.842 117.845 137.306 119.37 139.103 119.37H154.505C156.302 119.37 157.766 117.906 157.766 116.109C157.766 114.312 156.302 112.788 154.505 112.788Z"/>
  <path fill="currentColor" d="M190.399 51.854C184.955 51.854 180.52 56.2825 180.52 61.7273C180.52 67.1721 184.948 71.6066 190.399 71.6066C195.85 71.6066 200.279 67.1781 200.279 61.7273C200.279 56.2764 195.85 51.854 190.399 51.854Z"/>
  <path fill="currentColor" d="M265.629 27.6307C263.293 21.4478 260.002 16.6382 255.011 12.8994C254.715 12.2279 254.34 11.5443 253.868 10.8607C249.034 3.87919 230.643 -2.21296 217.484 0.781694C216.359 1.03579 215.343 1.43507 214.435 1.91906C197.732 0.503403 175.795 0.158565 146.81 0.158565C117.826 0.158565 95.8893 0.503403 79.1858 1.91906C78.2723 1.44112 77.2559 1.04184 76.1367 0.781694C62.9784 -2.21296 44.587 3.87919 39.7532 10.8607C39.2813 11.5443 38.9063 12.2279 38.6098 12.8994C33.6248 16.6382 30.3276 21.4478 27.9924 27.6307C17.8772 54.4071 0 118.414 0 155.651C0 192.887 10.6053 212.972 39.2692 212.972C45.9664 212.972 49.8927 210.202 52.8752 205.694C58.5379 197.146 60.4798 173.721 72.3677 168.004C77.4737 165.548 79.5912 164.677 146.804 164.677C214.018 164.677 216.141 165.548 221.241 168.004C233.129 173.721 235.071 197.152 240.734 205.694C243.722 210.202 247.642 212.972 254.34 212.972C283.004 212.972 293.609 192.887 293.609 155.651C293.609 118.414 275.732 54.4071 265.622 27.6307H265.629ZM253.729 30.0567C258.871 30.0567 263.039 34.225 263.039 39.3673C263.039 44.5096 258.871 48.678 253.729 48.678C248.586 48.678 244.418 44.5096 244.418 39.3673C244.418 34.225 248.586 30.0567 253.729 30.0567ZM247.467 54.9395C247.467 60.0818 243.299 64.2501 238.156 64.2501C233.014 64.2501 228.846 60.0818 228.846 54.9395C228.846 49.7972 233.014 45.6289 238.156 45.6289C243.299 45.6289 247.467 49.7972 247.467 54.9395ZM238.156 14.4905C243.299 14.4905 247.467 18.6588 247.467 23.8012C247.467 28.9435 243.299 33.1118 238.156 33.1118C233.014 33.1118 228.846 28.9435 228.846 23.8012C228.846 18.6588 233.014 14.4905 238.156 14.4905ZM222.584 30.0567C227.727 30.0567 231.895 34.225 231.895 39.3673C231.895 44.5096 227.727 48.678 222.584 48.678C217.442 48.678 213.274 44.5096 213.274 39.3673C213.274 34.225 217.442 30.0567 222.584 30.0567ZM194.096 12.8934H205.354C208.724 12.8934 211.471 15.64 211.471 19.0097C211.471 22.3795 208.724 25.1745 205.354 25.1745H194.096C190.726 25.1745 187.979 22.4279 187.979 19.0581C187.979 15.6884 190.726 12.8934 194.096 12.8934ZM146.804 15.767C148.607 15.767 150.071 17.2311 150.071 19.0339C150.071 20.8368 148.607 22.3008 146.804 22.3008C145.002 22.3008 143.538 20.8368 143.538 19.0339C143.538 17.2311 145.002 15.767 146.804 15.767ZM146.786 27.2375C152.618 27.2375 157.349 31.9684 157.349 37.8004C157.349 43.6324 152.618 48.3634 146.786 48.3634C141.952 48.3634 137.875 45.1146 136.623 40.6801L140.67 42.3559C140.942 43.7232 142.152 44.7577 143.604 44.7577C145.256 44.7577 146.593 43.4146 146.593 41.7691C146.593 41.7207 146.593 41.6723 146.593 41.6299L150.186 39.0648C150.186 39.0648 150.247 39.0648 150.277 39.0648C152.473 39.0648 154.264 37.2801 154.264 35.078C154.264 32.8759 152.479 31.0912 150.277 31.0912C148.075 31.0912 146.29 32.8759 146.29 35.078C146.29 35.0962 146.29 35.1143 146.29 35.1325L143.773 38.7805C143.719 38.7805 143.665 38.7805 143.604 38.7805C142.981 38.7805 142.4 38.9741 141.922 39.3008L136.26 36.9595C136.689 31.5207 141.239 27.2435 146.786 27.2435V27.2375ZM144.149 40.2203L142.805 39.6638C143.32 39.4702 143.913 39.4581 144.457 39.688C145.008 39.9178 145.443 40.3534 145.667 40.904C145.897 41.4605 145.897 42.0655 145.667 42.6221C145.189 43.7655 143.876 44.3039 142.733 43.8321C142.207 43.6143 141.807 43.2089 141.577 42.731L142.872 43.2694C143.713 43.6203 144.681 43.221 145.032 42.3801C145.383 41.5392 144.983 40.5712 144.143 40.2203H144.149ZM147.615 35.078C147.615 33.614 148.807 32.4221 150.271 32.4221C151.735 32.4221 152.927 33.614 152.927 35.078C152.927 36.5421 151.735 37.7339 150.271 37.7339C148.807 37.7339 147.615 36.5421 147.615 35.078ZM88.2545 12.8934H99.5131C102.883 12.8934 105.629 15.64 105.629 19.0097C105.629 22.3795 102.883 25.1745 99.5131 25.1745H88.2545C84.8847 25.1745 82.1381 22.4279 82.1381 19.0581C82.1381 15.6884 84.8847 12.8934 88.2545 12.8934ZM34.1148 35.8342C34.1148 33.5716 35.9479 31.7325 38.2166 31.7325H45.0831C45.9845 31.7325 46.7165 31.0004 46.7165 30.099V22.4097C46.7165 20.1471 48.5496 18.308 50.8183 18.308H60.1471C62.4097 18.308 64.2489 20.1411 64.2489 22.4097V30.099C64.2489 31.0004 64.9809 31.7325 65.8823 31.7325H72.7488C75.0115 31.7325 76.8506 33.5656 76.8506 35.8342V43.5054C76.8506 45.768 75.0175 47.6071 72.7488 47.6071H65.8823C64.9809 47.6071 64.2489 48.3392 64.2489 49.2406V56.9299C64.2489 59.1925 62.4158 61.0316 60.1471 61.0316H50.8183C48.5557 61.0316 46.7165 59.1986 46.7165 56.9299V49.2406C46.7165 48.3392 45.9845 47.6071 45.0831 47.6071H38.2166C35.954 47.6071 34.1148 45.7741 34.1148 43.5054V35.8342ZM123.942 107.44L120.07 135.009C118.752 144.38 110.723 151.156 101.522 151.156C100.65 151.156 99.7733 151.095 98.89 150.968L71.3211 147.096C61.0606 145.656 53.9158 136.17 55.3557 125.91L59.2275 98.3408C60.5464 88.9696 68.5745 82.1938 77.7762 82.1938C78.6474 82.1938 79.5246 82.2543 80.4079 82.3814L107.977 86.2533C118.237 87.6931 125.382 97.1792 123.942 107.44ZM154.506 123H139.103C135.304 123 132.212 119.908 132.212 116.109C132.212 112.31 135.304 109.158 139.103 109.158H154.506C158.305 109.158 161.397 112.249 161.397 116.049C161.397 119.848 158.305 123 154.506 123ZM222.294 147.096L194.725 150.968C193.842 151.095 192.958 151.156 192.093 151.156C182.891 151.156 174.857 144.38 173.545 135.009L169.673 107.44C168.233 97.1792 175.378 87.6992 185.638 86.2533L213.207 82.3814C214.09 82.2543 214.974 82.1938 215.839 82.1938C225.04 82.1938 233.075 88.9696 234.387 98.3408L238.259 125.91C239.699 136.17 232.554 145.65 222.294 147.096ZM261.696 165.615C259.548 142.414 256.935 118.989 250.976 96.4411C249.905 92.6358 248.689 88.8728 247.116 85.3095C245.942 82.7262 244.612 80.143 242.585 78.2131C241.212 76.9547 239.626 75.6903 238.06 74.68C235.622 73.1978 232.881 72.3085 230.08 71.7035C226.299 70.8263 222.342 70.4451 218.416 70.0277C215.439 69.8401 212.457 69.6768 209.48 69.5195C206.407 77.0334 199.02 82.333 190.399 82.333C181.778 82.333 173.684 76.507 170.901 68.4124C162.873 68.3277 154.839 68.3096 146.804 68.3459C138.77 68.3096 130.736 68.3277 122.708 68.4124C119.931 76.5131 112.254 82.333 103.216 82.333C94.1772 82.333 87.2139 77.0394 84.1406 69.5316C81.1581 69.6829 78.1755 69.8401 75.199 70.0277C71.2727 70.4451 67.3161 70.8263 63.535 71.7035C60.7339 72.3024 57.9994 73.1978 55.5553 74.68C53.9824 75.6903 52.4034 76.9487 51.0301 78.2131C48.9973 80.143 47.6724 82.7262 46.4988 85.3095C44.9258 88.8728 43.7098 92.6358 42.639 96.4411C36.686 118.995 34.0725 142.42 31.9187 165.615C31.8159 166.697 30.2369 166.601 30.2974 165.536C30.3276 164.949 31.8219 140.835 35.5123 119.352C37.5511 107.512 39.6504 95.5216 44.3087 84.3415C45.5731 81.5163 47.0493 78.6124 49.3724 76.4102C50.5219 75.3455 51.6834 74.3896 52.9297 73.4519C59.282 68.9085 67.4734 68.3338 74.9631 67.4747C77.7278 67.2569 80.4926 67.0754 83.2634 66.9181C82.8338 65.2605 82.604 63.5242 82.604 61.7274C82.604 50.3416 91.8299 41.1157 103.216 41.1157C114.601 41.1157 123.827 50.3416 123.827 61.7274C123.827 63.1309 123.688 64.4982 123.422 65.817C131.22 65.7626 139.018 65.7505 146.81 65.696C154.603 65.7505 162.401 65.7626 170.199 65.817C169.933 64.4982 169.794 63.1309 169.794 61.7274C169.794 50.3416 179.02 41.1157 190.405 41.1157C201.791 41.1157 211.017 50.3416 211.017 61.7274C211.017 63.5181 210.787 65.2544 210.358 66.906C213.122 67.0693 215.887 67.2569 218.652 67.4747C226.141 68.3338 234.333 68.9085 240.685 73.4519C241.938 74.3896 243.093 75.3515 244.242 76.4102C246.566 78.6124 248.036 81.5163 249.306 84.3415C253.971 95.5276 256.07 107.512 258.103 119.352C261.799 140.835 263.287 164.949 263.317 165.536C263.372 166.595 261.799 166.691 261.696 165.615Z"/>
  <path fill="currentColor" d="M190.4 44.7456C181.035 44.7456 173.418 52.3623 173.418 61.7274C173.418 71.0925 181.035 78.7092 190.4 78.7092C199.765 78.7092 207.382 71.0925 207.382 61.7274C207.382 52.3623 199.765 44.7456 190.4 44.7456ZM190.4 75.2366C182.94 75.2366 176.891 69.1868 176.891 61.7274C176.891 54.268 182.94 48.2242 190.4 48.2242C197.859 48.2242 203.909 54.274 203.909 61.7274C203.909 69.1807 197.859 75.2366 190.4 75.2366Z"/>
  <path fill="currentColor" d="M253.729 45.048C256.863 45.048 259.41 42.5011 259.41 39.3673C259.41 36.2335 256.863 33.6865 253.729 33.6865C250.595 33.6865 248.048 36.2335 248.048 39.3673C248.048 42.5011 250.595 45.048 253.729 45.048Z"/>
  <path fill="currentColor" d="M238.156 49.2588C235.023 49.2588 232.476 51.8058 232.476 54.9395C232.476 58.0733 235.023 60.6203 238.156 60.6203C241.29 60.6203 243.837 58.0733 243.837 54.9395C243.837 51.8058 241.29 49.2588 238.156 49.2588Z"/>
  <path fill="currentColor" d="M103.21 51.854C97.7651 51.854 93.3306 56.2825 93.3306 61.7273C93.3306 67.1721 97.759 71.6066 103.21 71.6066C108.661 71.6066 113.089 67.1781 113.089 61.7273C113.089 56.2764 108.661 51.854 103.21 51.854Z"/>
  <path fill="currentColor" d="M103.209 44.7456C93.8442 44.7456 86.2275 52.3623 86.2275 61.7274C86.2275 71.0925 93.8442 78.7092 103.209 78.7092C112.574 78.7092 120.191 71.0925 120.191 61.7274C120.191 52.3623 112.574 44.7456 103.209 44.7456ZM103.209 75.2366C95.7499 75.2366 89.7001 69.1868 89.7001 61.7274C89.7001 54.268 95.7499 48.2242 103.209 48.2242C110.669 48.2242 116.719 54.274 116.719 61.7274C116.719 69.1807 110.669 75.2366 103.209 75.2366Z"/>
  <path stroke="#1A9FFF" d="M146.609 19.8521C156.883 19.8521 165.109 27.9674 165.109 37.8521C165.109 47.7367 156.883 55.8521 146.609 55.8521C136.334 55.8521 128.109 47.7367 128.109 37.8521C128.109 27.9674 136.334 19.8521 146.609 19.8521Z" stroke-width="5"/>
</svg>
