<?xml version="1.0"?>
<svg xmlns="http://www.w3.org/2000/svg" version="1.1" viewBox="0 0 1200 1200">
  <path d="m303.6 798c-136.8-136.8-136.8-358.8 0-494.4 136.8-135.6 358.8-136.8 494.4 0 90 90 121.2 218.4 92.398 333.6l115.2 115.2c21.602 2.3984 43.199-12 48-33.602l16.801-61.199c6-25.199-8.3984-50.398-32.398-56.398-15.602-4.8008-26.398-18-25.199-34.801v-30c-1.1992-16.801 9.6016-30 25.199-34.801 25.199-6 39.602-32.398 32.398-56.398l-16.801-61.199c-6-25.199-32.398-39.602-56.398-32.398-15.602 4.8008-32.398-2.3984-39.602-16.801-4.8008-9.6016-9.6016-16.801-15.602-26.398-8.3984-13.199-6-31.199 4.8008-43.199 18-18 18-46.801 0-66l-44.398-44.398c-18-18-46.801-18-66 0-10.801 10.801-28.801 13.199-43.199 4.8008-8.3984-6-16.801-9.6016-26.398-15.602-14.398-7.1992-20.398-24-16.801-39.602 6-25.199-8.3984-50.398-32.398-56.398l-61.199-16.801c-25.199-6-50.398 8.3984-56.398 32.398-4.8008 15.602-18 25.199-34.801 25.199h-30c-16.801 1.1992-30-9.6016-34.801-25.199-6-25.199-32.398-39.602-56.398-32.398l-61.199 16.801c-25.199 6-39.602 32.398-32.398 56.398 4.8008 15.602-2.3984 32.398-16.801 39.602-9.6016 4.8008-16.801 9.6016-26.398 15.602-13.199 8.3984-31.199 6-43.199-4.8008-18-18-46.801-18-66 0l-43.199 45.602c-18 18-18 46.801 0 66 10.801 10.801 13.199 28.801 4.8008 43.199-6 8.3984-9.6016 16.801-15.602 26.398-7.1992 14.398-24 20.398-39.602 16.801-25.199-6-50.398 8.3984-56.398 32.398l-16.801 61.199c-6 25.199 8.3984 50.398 32.398 56.398 15.602 4.8008 26.398 18 25.199 34.801v30c1.1992 16.801-9.6016 30-25.199 34.801-25.199 6-39.602 32.398-32.398 56.398l16.801 61.199c6 25.199 32.398 39.602 56.398 32.398 15.602-4.8008 32.398 2.3984 39.602 16.801 4.8008 9.6016 9.6016 16.801 15.602 26.398 8.3984 13.199 6 31.199-4.8008 43.199-18 18-18 46.801 0 66l44.398 44.398c18 18 46.801 18 64.801 0 12-10.801 28.801-13.199 43.199-4.8008 8.3984 6 16.801 9.6016 26.398 15.602 14.398 7.1992 20.398 24 16.801 39.602-6 25.199 8.3984 50.398 32.398 56.398l61.199 16.801c25.199 6 50.398-8.3984 56.398-32.398 4.8008-15.602 18-26.398 34.801-25.199h30c16.801-1.1992 30 9.6016 34.801 25.199 6 25.199 32.398 39.602 56.398 32.398l61.199-16.801c21.602-6 36-26.398 33.602-48l-115.2-115.2c-114 26.398-242.4-4.8008-332.4-94.801z"/>
  <path d="m1134 960-338.4-338.4c25.199-86.398 3.6016-183.6-64.801-252-55.199-55.199-130.8-80.398-202.8-74.398-21.602 2.3984-31.199 28.801-15.602 43.199l92.398 91.199c25.199 25.199 25.199 66 0 92.398l-81.602 81.602c-25.199 25.199-66 25.199-92.398 0l-92.398-92.398c-15.602-15.602-42-6-43.199 16.801-6 78 21.602 157.2 85.199 212.4 67.199 58.801 159.6 78 241.2 54l338.4 338.4c46.801 46.801 124.8 46.801 172.8 0 49.203-46.801 49.203-124.8 1.2031-172.8zm-90 158.4c-40.801 0-74.398-33.602-74.398-74.398 0-40.801 33.602-74.398 74.398-74.398 40.801 0 74.398 33.602 74.398 74.398 0 40.801-32.398 74.398-74.398 74.398z"/>
</svg>
