<?xml version="1.0"?>
<svg xmlns="http://www.w3.org/2000/svg" width="1112" height="432" viewBox="0 0 1112 432" fill="none">
  <path fill="white" d="M347.701 161.869H367.48C368.936 161.869 370.125 160.743 370.125 159.363C370.125 157.984 368.936 156.858 367.48 156.858H347.701C346.245 156.858 345.056 157.984 345.056 159.363C345.056 160.743 346.245 161.869 347.701 161.869ZM369.882 208.064C369.882 197.445 379.004 188.802 390.212 188.802C401.419 188.802 410.541 197.445 410.541 208.064C410.541 218.684 401.419 227.327 390.212 227.327C379.004 227.327 369.882 218.684 369.882 208.064ZM375.648 208.064C375.648 215.681 382.165 221.856 390.203 221.856C398.241 221.856 404.759 215.681 404.759 208.064C404.759 200.448 398.241 194.272 390.203 194.272C382.165 194.272 375.648 200.448 375.648 208.064ZM352.682 237.526C352.682 236.208 351.558 235.143 350.167 235.143C348.776 235.143 347.652 236.208 347.652 237.526C347.652 238.844 348.776 239.909 350.167 239.909C351.558 239.909 352.682 238.844 352.682 237.526ZM390.203 217.259C395.557 217.259 399.907 213.137 399.907 208.064C399.907 202.992 395.557 198.87 390.203 198.87C384.85 198.87 380.5 202.992 380.5 208.064C380.5 213.137 384.85 217.259 390.203 217.259ZM390.147 297.184H390.179C390.179 297.184 392.993 295.13 395.807 294.242C398.622 293.353 405.746 291.406 407.234 289.912C408.73 288.418 408.988 286.801 408.6 284.579C408.22 282.357 405.147 275.806 403.74 271.324C403.692 271.178 403.643 271.025 403.595 270.864C397.473 274.036 391.012 276.549 384.3 278.373C382.432 296.824 389.581 297.184 390.147 297.184ZM396.268 297.758C394.651 298.41 392.969 299.498 392.395 299.912C391.805 300.348 391.077 300.601 390.325 300.632H390.147C389.314 300.632 386.419 300.41 383.953 297.49C380.993 293.996 379.869 287.905 380.572 279.308C373.141 281.032 365.443 281.913 357.591 281.913C336.727 281.913 316.883 275.668 300.427 264.114C300.653 264.543 300.88 264.964 301.09 265.386C319.172 301.59 334.487 400.187 376.796 400.187C392.185 400.187 413.339 389.521 407.881 354.926C407.881 354.926 401.727 325.672 396.268 297.758ZM342.728 195.958C343.326 195.958 343.819 195.498 343.819 194.924V184.388C343.819 183.821 343.334 183.354 342.728 183.354H332.781C328.794 183.354 325.56 180.281 325.56 176.511V165.953C325.56 165.386 325.075 164.918 324.468 164.918H310.948C310.349 164.918 309.856 165.378 309.856 165.953V176.511C309.856 180.289 306.613 183.354 302.635 183.354H292.688C292.09 183.354 291.597 183.813 291.597 184.388V194.924C291.597 195.491 292.082 195.958 292.688 195.958H302.635C306.621 195.958 309.856 199.031 309.856 202.8V213.359C309.856 213.926 310.341 214.393 310.948 214.393H324.468C325.067 214.393 325.56 213.934 325.56 213.359V202.8C325.56 199.023 328.803 195.958 332.781 195.958H342.728ZM357.591 278.465C306.451 278.465 265 239.188 265 190.732C265 142.277 306.451 103 357.591 103C408.73 103 450.181 142.284 450.181 190.732C450.181 222.508 432.358 250.329 405.665 265.73C404.606 266.343 403.53 266.933 402.446 267.493C396.883 270.427 390.964 272.826 384.769 274.619C383.508 274.994 382.238 275.331 380.961 275.645C373.497 277.484 365.661 278.465 357.591 278.465ZM390.203 184.204C376.295 184.204 365.022 194.885 365.022 208.064C365.022 221.243 376.295 231.925 390.203 231.925C404.112 231.925 415.385 221.243 415.385 208.064C415.385 194.885 404.112 184.204 390.203 184.204ZM353.143 141.388C353.143 143.717 355.132 145.602 357.591 145.602C360.049 145.602 362.038 143.717 362.038 141.388C362.038 139.058 360.049 137.174 357.591 137.174C355.132 137.174 353.143 139.058 353.143 141.388ZM340.205 159.363C340.205 163.286 343.56 166.466 347.701 166.466H367.48C371.621 166.466 374.977 163.286 374.977 159.363C374.977 155.44 371.621 152.26 367.48 152.26H347.701C343.56 152.26 340.205 155.44 340.205 159.363ZM332.781 200.555H342.728C346.011 200.555 348.671 198.035 348.671 194.924V184.388C348.671 181.277 346.011 178.756 342.728 178.756H332.781C331.471 178.756 330.412 177.753 330.412 176.511V165.953C330.412 162.842 327.751 160.321 324.468 160.321H310.948C307.664 160.321 305.004 162.842 305.004 165.953V176.511C305.004 177.753 303.945 178.756 302.635 178.756H292.688C289.405 178.756 286.745 181.277 286.745 184.388V194.924C286.745 198.035 289.405 200.555 292.688 200.555H302.635C303.945 200.555 305.004 201.559 305.004 202.8V213.359C305.004 216.47 307.664 218.991 310.948 218.991H324.468C327.751 218.991 330.412 216.47 330.412 213.359V202.8C330.412 201.559 331.471 200.555 332.781 200.555ZM359.078 240.774C359.078 233.81 353.119 228.17 345.776 228.17C338.434 228.17 333.064 233.273 332.514 239.763L339.647 242.56C340.253 242.169 340.981 241.939 341.765 241.939C341.838 241.939 341.903 241.939 341.976 241.939L345.145 237.587C345.145 237.587 345.145 237.549 345.145 237.526C345.145 234.905 347.393 232.767 350.167 232.767C352.941 232.767 355.181 234.898 355.181 237.526C355.181 240.154 352.933 242.284 350.167 242.284C350.127 242.284 350.094 242.284 350.054 242.284L345.534 245.341C345.534 245.395 345.534 245.456 345.534 245.51C345.534 247.479 343.843 249.08 341.765 249.08C339.946 249.08 338.417 247.847 338.07 246.215L332.967 244.215C334.544 249.509 339.679 253.387 345.768 253.387C353.119 253.387 359.07 247.739 359.07 240.782L359.078 240.774ZM343.569 246.238C343.124 247.241 341.911 247.716 340.843 247.303L339.21 246.667C339.501 247.241 340.002 247.716 340.665 247.977C342.105 248.544 343.763 247.9 344.361 246.536C344.652 245.878 344.652 245.15 344.361 244.491C344.07 243.832 343.528 243.311 342.833 243.035C342.137 242.759 341.401 242.774 340.746 243.004L342.436 243.663C343.496 244.085 343.997 245.234 343.56 246.245L343.569 246.238ZM350.159 240.698C352.003 240.698 353.499 239.28 353.499 237.533C353.499 235.786 352.003 234.369 350.159 234.369C348.315 234.369 346.819 235.786 346.819 237.533C346.819 239.28 348.323 240.698 350.159 240.698Z"/>
  <path fill="white" d="M741.877 159.787C741.877 158.41 743.065 157.285 744.521 157.285H764.301C765.756 157.285 766.945 158.41 766.945 159.787C766.945 161.163 765.756 162.288 764.301 162.288H744.521C743.065 162.288 741.877 161.163 741.877 159.787ZM773.091 237.812C773.091 236.496 771.967 235.433 770.576 235.433C769.185 235.433 768.061 236.496 768.061 237.812C768.061 239.127 769.185 240.19 770.576 240.19C771.967 240.19 773.091 239.127 773.091 237.812ZM721.798 199.147C716.445 199.147 712.094 203.262 712.094 208.326C712.094 213.389 716.445 217.504 721.798 217.504C727.151 217.504 731.502 213.389 731.502 208.326C731.502 203.262 727.151 199.147 721.798 199.147ZM774.918 196.393C778.63 196.393 781.646 193.541 781.646 190.03C781.646 186.519 778.63 183.666 774.918 183.666C771.207 183.666 768.19 186.519 768.19 190.03C768.19 193.541 771.207 196.393 774.918 196.393ZM794.294 178.067C798.005 178.067 801.022 175.214 801.022 171.703C801.022 168.193 798.005 165.34 794.294 165.34C790.582 165.34 787.566 168.193 787.566 171.703C787.566 175.214 790.582 178.067 794.294 178.067ZM742.119 208.402C742.119 219.003 732.998 227.631 721.79 227.631C710.582 227.631 701.46 219.003 701.46 208.402C701.46 197.801 710.582 189.173 721.79 189.173C732.998 189.173 742.119 197.801 742.119 208.402ZM736.354 208.326C736.354 200.723 729.836 194.558 721.798 194.558C713.76 194.558 707.242 200.723 707.242 208.326C707.242 215.928 713.76 222.093 721.798 222.093C729.836 222.093 736.354 215.928 736.354 208.326ZM731.041 275.864C729.763 275.551 728.494 275.214 727.232 274.839C721.038 273.049 715.118 270.655 709.555 267.726C708.471 267.167 707.396 266.579 706.337 265.967C679.643 250.593 661.82 222.82 661.82 191.101C661.82 142.737 703.28 103.522 754.411 103.522C805.542 103.522 847.001 142.737 847.001 191.101C847.001 239.464 805.55 278.679 754.411 278.679C746.341 278.679 738.505 277.7 731.041 275.864ZM779.487 241.055C779.487 234.102 773.527 228.472 766.185 228.472C758.842 228.472 753.473 233.566 752.923 240.045L760.055 242.837C760.662 242.447 761.39 242.217 762.174 242.217C762.247 242.217 762.311 242.217 762.384 242.217L765.554 237.873C765.554 237.873 765.554 237.834 765.554 237.812C765.554 235.196 767.802 233.062 770.576 233.062C773.35 233.062 775.589 235.188 775.589 237.812C775.589 240.435 773.341 242.561 770.576 242.561C770.535 242.561 770.503 242.561 770.463 242.561L765.942 245.613C765.942 245.667 765.942 245.728 765.942 245.782C765.942 247.747 764.252 249.346 762.174 249.346C760.354 249.346 758.826 248.114 758.478 246.485L753.376 244.489C754.953 249.774 760.088 253.644 766.177 253.644C773.527 253.644 779.479 248.007 779.479 241.062L779.487 241.055ZM763.985 246.508C763.541 247.51 762.328 247.984 761.26 247.571L759.627 246.937C759.918 247.51 760.419 247.984 761.082 248.244C762.522 248.81 764.179 248.168 764.778 246.806C765.069 246.149 765.069 245.422 764.778 244.764C764.487 244.106 763.945 243.586 763.249 243.311C762.554 243.036 761.818 243.051 761.163 243.28L762.853 243.938C763.912 244.359 764.414 245.506 763.977 246.516L763.985 246.508ZM770.576 240.978C772.42 240.978 773.916 239.563 773.916 237.819C773.916 236.075 772.42 234.66 770.576 234.66C768.732 234.66 767.236 236.075 767.236 237.819C767.236 239.563 768.74 240.978 770.576 240.978ZM805.873 208.356C805.873 202.306 800.69 197.403 794.294 197.403C787.897 197.403 782.714 202.306 782.714 208.356C782.714 214.406 787.897 219.309 794.294 219.309C800.69 219.309 805.873 214.406 805.873 208.356ZM813.669 179.069C807.272 179.069 802.089 183.972 802.089 190.022C802.089 196.072 807.272 200.975 813.669 200.975C820.065 200.975 825.249 196.072 825.249 190.022C825.249 183.972 820.065 179.069 813.669 179.069ZM782.706 171.696C782.706 177.746 787.889 182.649 794.285 182.649C800.682 182.649 805.865 177.746 805.865 171.696C805.865 165.645 800.682 160.743 794.285 160.743C787.889 160.743 782.706 165.645 782.706 171.696ZM774.918 179.069C768.522 179.069 763.338 183.972 763.338 190.022C763.338 196.072 768.522 200.975 774.918 200.975C781.315 200.975 786.498 196.072 786.498 190.022C786.498 183.972 781.315 179.069 774.918 179.069ZM749.963 141.843C749.963 144.168 751.953 146.049 754.411 146.049C756.869 146.049 758.858 144.168 758.858 141.843C758.858 139.517 756.869 137.636 754.411 137.636C751.953 137.636 749.963 139.517 749.963 141.843ZM737.025 159.787C737.025 163.703 740.381 166.877 744.521 166.877H764.301C768.441 166.877 771.797 163.703 771.797 159.787C771.797 155.87 768.441 152.696 764.301 152.696H744.521C740.381 152.696 737.025 155.87 737.025 159.787ZM746.971 208.402C746.971 195.246 735.699 184.584 721.79 184.584C707.881 184.584 696.608 195.246 696.608 208.402C696.608 221.558 707.881 232.22 721.79 232.22C735.699 232.22 746.971 221.558 746.971 208.402ZM754.411 282.121C746.567 282.121 738.869 281.241 731.437 279.528C732.133 288.11 731.008 294.183 728.049 297.671C725.582 300.585 722.687 300.807 721.863 300.807H721.677C720.925 300.776 720.205 300.524 719.607 300.095C719.032 299.682 717.358 298.589 715.733 297.938C710.275 325.803 704.121 355.006 704.121 355.006C698.662 389.532 719.817 400.187 735.205 400.187C777.506 400.187 792.83 301.763 810.911 265.622C811.122 265.202 811.34 264.781 811.574 264.353C795.118 275.895 775.274 282.121 754.411 282.121ZM813.669 196.393C817.381 196.393 820.397 193.541 820.397 190.03C820.397 186.519 817.381 183.666 813.669 183.666C809.957 183.666 806.941 186.519 806.941 190.03C806.941 193.541 809.957 196.393 813.669 196.393ZM720.059 296.233C721.119 296.852 721.822 297.365 721.822 297.365H721.863C722.429 297.365 729.577 297.005 727.701 278.587C720.989 276.767 714.528 274.258 708.407 271.091C708.358 271.252 708.31 271.405 708.261 271.55C706.854 276.025 703.789 282.564 703.401 284.783C703.021 287.001 703.272 288.615 704.768 290.106C706.256 291.598 713.38 293.54 716.194 294.428C717.601 294.871 719.008 295.606 720.059 296.233ZM794.294 201.985C790.582 201.985 787.566 204.838 787.566 208.349C787.566 211.859 790.582 214.712 794.294 214.712C798.005 214.712 801.022 211.859 801.022 208.349C801.022 204.838 798.005 201.985 794.294 201.985Z"/>
  <path stroke="#59BF40" d="M766.254 222.362C777.208 222.362 785.954 230.782 785.954 241.008C785.954 251.234 777.208 259.655 766.254 259.655C755.3 259.655 746.553 251.234 746.553 241.008C746.553 230.782 755.3 222.362 766.254 222.362Z" stroke-width="3.03584"/>
  <path stroke="#59BF40" d="M345.188 222.362C356.142 222.362 364.887 230.782 364.888 241.008C364.888 251.234 356.142 259.655 345.188 259.655C334.233 259.655 325.486 251.234 325.486 241.008C325.487 230.782 334.233 222.362 345.188 222.362Z" stroke-width="3.03584"/>
  <path stroke="#59BF40" d="M509.703 241.271L366.408 241.271" stroke-width="3.03584"/>
  <path stroke="#59BF40" d="M745.035 241.27L603.394 241.27" stroke-width="3.03584"/>
  <path fill="#59BF40" d="M504.168 297.046C505.336 297.046 506.424 297.214 507.432 297.55C508.44 297.87 509.272 298.27 509.928 298.75L508.176 301.846C507.6 301.43 506.944 301.094 506.208 300.838C505.488 300.582 504.816 300.454 504.192 300.454C503.536 300.454 503.024 300.59 502.656 300.862C502.288 301.118 502.104 301.47 502.104 301.918C502.104 302.398 502.336 302.782 502.8 303.07C503.28 303.342 504.024 303.646 505.032 303.982C506.136 304.366 507.024 304.726 507.696 305.062C508.384 305.398 508.984 305.902 509.496 306.574C510.008 307.23 510.264 308.086 510.264 309.142C510.264 310.262 509.968 311.23 509.376 312.046C508.8 312.862 507.992 313.486 506.952 313.918C505.928 314.334 504.752 314.542 503.424 314.542C502.352 314.542 501.272 314.406 500.184 314.134C499.112 313.862 498.16 313.478 497.328 312.982L498.576 309.526C500.336 310.438 501.976 310.894 503.496 310.894C504.248 310.894 504.816 310.75 505.2 310.462C505.584 310.174 505.776 309.798 505.776 309.334C505.776 308.87 505.56 308.51 505.128 308.254C504.696 307.982 504.024 307.71 503.112 307.438C501.928 307.07 500.984 306.726 500.28 306.406C499.576 306.07 498.968 305.566 498.456 304.894C497.944 304.206 497.688 303.302 497.688 302.182C497.688 301.126 497.96 300.214 498.504 299.446C499.048 298.662 499.808 298.07 500.784 297.67C501.76 297.254 502.888 297.046 504.168 297.046ZM520.209 314.662C518.129 314.662 516.441 314.142 515.145 313.102C513.849 312.046 513.201 310.398 513.201 308.158V297.454H517.353V308.014C517.353 308.926 517.593 309.63 518.073 310.126C518.569 310.606 519.281 310.846 520.209 310.846C521.121 310.846 521.825 310.606 522.321 310.126C522.817 309.63 523.065 308.926 523.065 308.014V297.454H527.217V308.158C527.217 310.398 526.569 312.046 525.273 313.102C523.977 314.142 522.289 314.662 520.209 314.662ZM538.847 297.046C539.951 297.046 541.015 297.19 542.039 297.478C543.063 297.766 543.887 298.158 544.511 298.654L542.591 301.942C542.111 301.606 541.559 301.35 540.935 301.174C540.311 300.982 539.687 300.886 539.063 300.886C537.799 300.886 536.759 301.326 535.943 302.206C535.127 303.07 534.719 304.318 534.719 305.95C534.719 307.518 535.103 308.726 535.871 309.574C536.639 310.406 537.695 310.822 539.039 310.822C540.431 310.806 541.687 310.342 542.807 309.43L544.823 312.43C544.167 313.086 543.295 313.622 542.207 314.038C541.119 314.454 539.919 314.662 538.607 314.662C536.975 314.662 535.527 314.31 534.263 313.606C532.999 312.902 532.015 311.894 531.311 310.582C530.623 309.27 530.279 307.718 530.279 305.926C530.279 304.118 530.631 302.55 531.335 301.222C532.055 299.878 533.063 298.846 534.359 298.126C535.671 297.406 537.167 297.046 538.847 297.046ZM554.675 297.046C555.779 297.046 556.843 297.19 557.867 297.478C558.891 297.766 559.715 298.158 560.339 298.654L558.419 301.942C557.939 301.606 557.387 301.35 556.763 301.174C556.139 300.982 555.515 300.886 554.891 300.886C553.627 300.886 552.587 301.326 551.771 302.206C550.955 303.07 550.547 304.318 550.547 305.95C550.547 307.518 550.931 308.726 551.699 309.574C552.467 310.406 553.523 310.822 554.867 310.822C556.259 310.806 557.515 310.342 558.635 309.43L560.651 312.43C559.995 313.086 559.123 313.622 558.035 314.038C556.947 314.454 555.747 314.662 554.435 314.662C552.803 314.662 551.355 314.31 550.091 313.606C548.827 312.902 547.843 311.894 547.139 310.582C546.451 309.27 546.107 307.718 546.107 305.926C546.107 304.118 546.459 302.55 547.163 301.222C547.883 299.878 548.891 298.846 550.187 298.126C551.499 297.406 552.995 297.046 554.675 297.046ZM563.216 297.454H574.856V301.006H567.368V304.03H573.728V307.558H567.368V310.702H574.856V314.254H563.216V297.454ZM584.316 297.046C585.484 297.046 586.572 297.214 587.58 297.55C588.588 297.87 589.42 298.27 590.076 298.75L588.324 301.846C587.748 301.43 587.092 301.094 586.356 300.838C585.636 300.582 584.964 300.454 584.34 300.454C583.684 300.454 583.172 300.59 582.804 300.862C582.436 301.118 582.252 301.47 582.252 301.918C582.252 302.398 582.484 302.782 582.948 303.07C583.428 303.342 584.172 303.646 585.18 303.982C586.284 304.366 587.172 304.726 587.844 305.062C588.532 305.398 589.132 305.902 589.644 306.574C590.156 307.23 590.412 308.086 590.412 309.142C590.412 310.262 590.116 311.23 589.524 312.046C588.948 312.862 588.14 313.486 587.1 313.918C586.076 314.334 584.9 314.542 583.572 314.542C582.5 314.542 581.42 314.406 580.332 314.134C579.26 313.862 578.308 313.478 577.476 312.982L578.724 309.526C580.484 310.438 582.124 310.894 583.644 310.894C584.396 310.894 584.964 310.75 585.348 310.462C585.732 310.174 585.924 309.798 585.924 309.334C585.924 308.87 585.708 308.51 585.276 308.254C584.844 307.982 584.172 307.71 583.26 307.438C582.076 307.07 581.132 306.726 580.428 306.406C579.724 306.07 579.116 305.566 578.604 304.894C578.092 304.206 577.836 303.302 577.836 302.182C577.836 301.126 578.108 300.214 578.652 299.446C579.196 298.662 579.956 298.07 580.932 297.67C581.908 297.254 583.036 297.046 584.316 297.046ZM599.277 297.046C600.445 297.046 601.533 297.214 602.541 297.55C603.549 297.87 604.381 298.27 605.037 298.75L603.285 301.846C602.709 301.43 602.053 301.094 601.317 300.838C600.597 300.582 599.925 300.454 599.301 300.454C598.645 300.454 598.133 300.59 597.765 300.862C597.397 301.118 597.213 301.47 597.213 301.918C597.213 302.398 597.445 302.782 597.909 303.07C598.389 303.342 599.133 303.646 600.141 303.982C601.245 304.366 602.133 304.726 602.805 305.062C603.493 305.398 604.093 305.902 604.605 306.574C605.117 307.23 605.373 308.086 605.373 309.142C605.373 310.262 605.077 311.23 604.485 312.046C603.909 312.862 603.101 313.486 602.061 313.918C601.037 314.334 599.861 314.542 598.533 314.542C597.461 314.542 596.381 314.406 595.293 314.134C594.221 313.862 593.269 313.478 592.437 312.982L593.685 309.526C595.445 310.438 597.085 310.894 598.605 310.894C599.357 310.894 599.925 310.75 600.309 310.462C600.693 310.174 600.885 309.798 600.885 309.334C600.885 308.87 600.669 308.51 600.237 308.254C599.805 307.982 599.133 307.71 598.221 307.438C597.037 307.07 596.093 306.726 595.389 306.406C594.685 306.07 594.077 305.566 593.565 304.894C593.053 304.206 592.797 303.302 592.797 302.182C592.797 301.126 593.069 300.214 593.613 299.446C594.157 298.662 594.917 298.07 595.893 297.67C596.869 297.254 597.997 297.046 599.277 297.046ZM608.526 297.454H612.894L612.198 308.758H609.198L608.526 297.454ZM610.686 310.414C611.294 310.414 611.782 310.598 612.15 310.966C612.534 311.334 612.726 311.83 612.726 312.454C612.726 313.078 612.534 313.582 612.15 313.966C611.782 314.35 611.294 314.542 610.686 314.542C610.094 314.542 609.614 314.35 609.246 313.966C608.878 313.582 608.694 313.078 608.694 312.454C608.694 311.83 608.87 311.334 609.222 310.966C609.59 310.598 610.078 310.414 610.686 310.414Z"/>
  <path fill="#59BF40" d="M555.622 209.661C571.255 209.661 583.928 222.334 583.929 237.967C583.929 253.6 571.255 266.274 555.622 266.274C539.989 266.273 527.316 253.6 527.316 237.967C527.317 222.334 539.989 209.661 555.622 209.661ZM549.809 243.336L541.467 234.787L534.864 241.553L549.809 256.838L576.38 229.608L569.778 222.871L549.809 243.336Z"/>
</svg>
