<?xml version="1.0"?>
<svg viewBox="0 0 20 20" fill="none" xmlns="http://www.w3.org/2000/svg">
  <path opacity="0.84" fill-rule="evenodd" clip-rule="evenodd" d="M12.9072 9.9993C12.9072 8.39355 11.6052 7.0918 9.99936 7.0918C8.39358 7.09184 7.09186 8.39358 7.0918 9.9993C7.0918 11.555 8.31347 12.8254 9.84978 12.9034L9.99936 12.9072C11.5551 12.9072 12.8256 11.6852 12.9034 10.1489L12.9072 9.9993Z" fill="white"/>
  <path opacity="0.84" fill-rule="evenodd" clip-rule="evenodd" d="M16.7002 3C16.8658 3.00006 16.9999 3.13429 17 3.2998V16.7002C16.9999 16.8658 16.8658 16.9999 16.7002 17H3.2998C3.13431 16.9999 3.0001 16.8657 3 16.7002V3.2998C3.00014 3.13435 3.13435 3.00014 3.2998 3H16.7002ZM10 5.51953C7.52551 5.51953 5.51953 7.52551 5.51953 10C5.51953 12.4745 7.52551 14.4805 10 14.4805C12.4745 14.4805 14.4805 12.4745 14.4805 10C14.4805 7.52551 12.4745 5.51953 10 5.51953Z" fill="white"/>
</svg>
