<?xml version="1.0"?>
<svg viewBox="0 0 44 44" fill="none" xmlns="http://www.w3.org/2000/svg">
  <path fill="currentColor" d="M27.9 33.1H16.1q-.7 0-1.3-.6t-.6-1.3V12.8q0-.7.6-1.3t1.3-.6h11.8q.7 0 1.3.6t.6 1.3v18.4q0 .7-.6 1.3t-1.3.6m0-1.9V12.8H16.1v18.4z"/>
  <circle cx="22" cy="16.3" r="2.3" fill="currentColor"/>
  <circle cx="22" cy="25.3" r="3.6" stroke="currentColor" stroke-width="1.8"/>
  <path fill="currentColor" d="M27.9 9.3V7.4c1.4 0 2.8.7 3.8 1.6s1.6 2.4 1.6 3.8h-1.9c0-.9-.4-1.8-1.1-2.4s-1.6-1.1-2.4-1.1m-11.8 0V7.4c-1.4 0-2.8.7-3.8 1.6s-1.6 2.4-1.6 3.8h1.9c0-.9.4-1.8 1.1-2.4s1.6-1.1 2.4-1.1m11.8 25.4v1.9c1.4 0 2.8-.7 3.8-1.6s1.6-2.4 1.6-3.8h-1.9c0 .9-.4 1.8-1.1 2.4s-1.6 1.1-2.4 1.1m-11.8 0v1.9c-1.4 0-2.8-.7-3.8-1.6s-1.6-2.4-1.6-3.8h1.9c0 .9.4 1.8 1.1 2.4s1.6 1.1 2.4 1.1"/>
  <path fill="currentColor" d="M27.9 4v1.9c1.8 0 3.6.7 4.9 2s2 3.1 2 4.9h1.9c0-2.4-.9-4.6-2.6-6.2S30.2 4 27.9 4M16.1 4v1.9c-1.9 0-3.6.7-4.9 2s-2 3.1-2 4.9H7.3c0-2.4.9-4.6 2.6-6.2C11.5 5 13.8 4 16.1 4m11.8 36v-1.9c1.8 0 3.6-.7 4.9-2s2-3.1 2-4.9h1.9c0 2.4-.9 4.6-2.6 6.2S30.2 40 27.9 40M16.1 40v-1.9c-1.9 0-3.6-.7-4.9-2s-2-3.1-2-4.9H7.3c0 2.4.9 4.6 2.6 6.2 1.6 1.6 3.9 2.6 6.2 2.6"/>
</svg>
