<?xml version="1.0"?>
<svg xmlns="http://www.w3.org/2000/svg" width="400" height="400" viewBox="0 0 720 271" fill="none">
  <path fill="white" d="M122.813 150.107C137.886 150.107 150.105 137.888 150.105 122.815C150.105 120.763 149.879 118.765 149.45 116.843C164.493 118.095 179.394 120.725 193.944 124.707C199.833 126.755 204.908 130.486 208.471 135.385C212.035 140.285 213.911 146.113 213.842 152.067L231.981 156.732V191.292L213.782 195.67C213.266 203.06 210.645 210.179 206.2 216.266C201.755 222.352 195.653 227.179 188.545 230.229L170.345 237.545C166.647 238.984 162.547 239.198 158.706 238.153C154.864 237.108 151.506 234.865 149.172 231.785C146.345 227.7 142.402 224.423 137.764 222.302C133.127 220.182 127.969 219.298 122.843 219.746C117.742 219.251 112.596 220.077 107.949 222.136C103.303 224.194 99.3304 227.409 96.4536 231.439C94.1201 234.519 90.7616 236.763 86.9202 237.808C83.0788 238.853 78.9785 238.638 75.2812 237.199L57.0814 229.884C49.9729 226.833 43.8705 222.007 39.4256 215.92C34.9808 209.833 32.3605 202.715 31.8443 195.324L13.6445 190.947V156.387L31.8443 152.067C31.7753 146.113 33.6517 140.285 37.2151 135.385C40.7786 130.486 45.854 126.755 51.7428 124.707C66.2726 120.731 81.153 118.103 96.175 116.848C95.7467 118.769 95.5209 120.765 95.5209 122.815C95.5209 137.888 107.74 150.107 122.813 150.107Z"/>
  <circle fill="#1A9FFF" cx="122.814" cy="122.815" r="13.6461"/>
  <path fill="#1A9FFF" fill-rule="evenodd" clip-rule="evenodd" d="M134.78 91.4615C130.909 89.5734 126.646 88.6284 122.34 88.7035C118.033 88.7787 113.806 89.872 110.003 91.894C106.2 93.916 102.93 96.8093 100.46 100.337C98.2982 103.424 94.0437 104.174 90.957 102.013C87.8702 99.8515 87.12 95.5971 89.2814 92.5103C92.987 87.2182 97.8924 82.8782 103.597 79.8452C109.301 76.8122 115.642 75.1723 122.102 75.0595C128.561 74.9468 134.955 76.3644 140.762 79.1965C146.569 82.0286 151.623 86.1947 155.511 91.3543C157.778 94.3637 157.177 98.6418 154.168 100.91C151.158 103.177 146.88 102.576 144.612 99.5667C142.02 96.127 138.651 93.3495 134.78 91.4615Z"/>
  <path fill="#CCD8E3" fill-rule="evenodd" clip-rule="evenodd" d="M149.735 60.799C141.025 56.5509 131.434 54.4244 121.744 54.5936C112.055 54.7627 102.544 57.2226 93.9872 61.7721C85.4308 66.3216 78.0726 72.8316 72.5143 80.7697C70.3529 83.8565 66.0984 84.6067 63.0116 82.4453C59.9249 80.2839 59.1747 76.0294 61.3361 72.9426C68.1296 63.2405 77.123 55.2838 87.5808 49.7233C98.0386 44.1628 109.664 41.1563 121.506 40.9496C133.349 40.7429 145.072 43.3419 155.717 48.534C166.363 53.7262 175.628 61.3641 182.756 70.8233C185.024 73.8327 184.423 78.1108 181.413 80.3786C178.404 82.6464 174.126 82.0451 171.858 79.0357C166.026 71.2963 158.445 65.0471 149.735 60.799Z" fill-opacity="0.15"/>
  <path fill="#CCD8E3" fill-rule="evenodd" clip-rule="evenodd" d="M164.691 30.1365C151.142 23.5283 136.221 20.2205 121.149 20.4836C106.077 20.7467 91.2812 24.5732 77.9713 31.6502C64.6614 38.7272 53.2153 48.8538 44.569 61.2021C42.4076 64.2888 38.1531 65.039 35.0663 62.8776C31.9796 60.7163 31.2294 56.4618 33.3908 53.375C43.2723 39.2627 56.3535 27.6895 71.5648 19.6015C86.7762 11.5134 103.686 7.14032 120.911 6.83966C138.136 6.53899 155.188 10.3193 170.673 17.8715C186.157 25.4238 199.634 36.5334 210.002 50.2923C212.27 53.3017 211.669 57.5798 208.659 59.8476C205.65 62.1154 201.372 61.5141 199.104 58.5047C190.032 46.4657 178.239 36.7447 164.691 30.1365Z" fill-opacity="0.15"/>
  <path fill="#1A9FFF" fill-rule="evenodd" clip-rule="evenodd" d="M607.868 99.8183C604.631 98.2249 601.066 97.4272 597.464 97.4907C593.863 97.5541 590.327 98.4768 587.147 100.183C583.967 101.89 581.232 104.332 579.166 107.309C577.358 109.915 573.8 110.548 571.219 108.724C568.637 106.899 568.01 103.309 569.818 100.704C572.917 96.2371 577.019 92.5742 581.789 90.0144C586.56 87.4546 591.863 86.0706 597.265 85.9754C602.667 85.8803 608.015 87.0767 612.871 89.4669C617.727 91.8571 621.954 95.3733 625.205 99.7279C627.102 102.268 626.599 105.878 624.082 107.792C621.565 109.706 617.987 109.199 616.091 106.659C613.923 103.756 611.106 101.412 607.868 99.8183Z"/>
  <path fill="#CCD8E3" fill-rule="evenodd" clip-rule="evenodd" d="M620.986 73.5656C613.601 69.9799 605.468 68.185 597.253 68.3278C589.038 68.4705 580.973 70.5468 573.719 74.3869C566.464 78.227 560.225 83.7218 555.513 90.4222C553.68 93.0276 550.073 93.6608 547.456 91.8365C544.838 90.0121 544.202 86.4211 546.035 83.8156C551.795 75.6263 559.42 68.9104 568.287 64.217C577.154 59.5235 587.01 56.9858 597.051 56.8114C607.092 56.6369 617.032 58.8306 626.058 63.2131C635.083 67.5956 642.939 74.0425 648.983 82.0267C650.906 84.5669 650.396 88.1779 647.844 90.092C645.293 92.0062 641.666 91.4987 639.743 88.9585C634.798 82.426 628.37 77.1513 620.986 73.5656Z" fill-opacity="0.15"/>
  <path fill="#CCD8E3" fill-rule="evenodd" clip-rule="evenodd" d="M633.588 48.08C622.098 42.5019 609.445 39.7098 596.663 39.9319C583.882 40.1539 571.335 43.3839 560.048 49.3577C548.76 55.3314 539.054 63.8794 531.722 74.3026C529.889 76.9082 526.281 77.5414 523.663 75.717C521.045 73.8926 520.409 70.3013 522.242 67.6958C530.622 55.7835 541.715 46.0144 554.615 39.1872C567.514 32.3601 581.854 28.6687 596.462 28.4149C611.069 28.1611 625.529 31.3521 638.66 37.727C651.792 44.1019 663.221 53.4797 672.013 65.0936C673.936 67.6339 673.426 71.245 670.874 73.1593C668.322 75.0736 664.694 74.5661 662.771 72.0257C655.078 61.8635 645.077 53.658 633.588 48.08Z" fill-opacity="0.15"/>
  <path fill="white" d="M584.903 258.678H609.466V241.791H617.142V266.354H577.228V241.791H584.903V258.678ZM626.029 122.815C630.447 122.815 634.029 126.397 634.029 130.815V235.65H617.142V235.651H577.228V235.65H560.34V130.815C560.34 126.397 563.922 122.815 568.34 122.815H575.975C575.974 122.843 575.974 122.872 575.974 122.901C575.974 134.771 585.597 144.393 597.467 144.393C609.336 144.393 618.959 134.77 618.959 122.901C618.959 122.872 618.958 122.843 618.958 122.815H626.029Z"/>
  <circle fill="#1A9FFF" cx="597.469" cy="122.9" r="9.21109"/>
  <path fill="#1A9FFF" d="M240.254 122.814C240.254 125.358 238.192 127.42 235.649 127.42C233.105 127.42 231.043 125.358 231.043 122.814C231.043 120.271 233.105 118.209 235.649 118.209C238.192 118.209 240.254 120.271 240.254 122.814Z"/>
  <path fill="#1A9FFF" d="M257.141 122.814C257.141 125.358 255.079 127.42 252.536 127.42C249.992 127.42 247.93 125.358 247.93 122.814C247.93 120.271 249.992 118.209 252.536 118.209C255.079 118.209 257.141 120.271 257.141 122.814Z"/>
  <path fill="#1A9FFF" d="M274.028 122.814C274.028 125.358 271.966 127.42 269.423 127.42C266.879 127.42 264.817 125.358 264.817 122.814C264.817 120.271 266.879 118.209 269.423 118.209C271.966 118.209 274.028 120.271 274.028 122.814Z"/>
  <path fill="#1A9FFF" d="M290.915 122.814C290.915 125.358 288.853 127.42 286.309 127.42C283.766 127.42 281.704 125.358 281.704 122.814C281.704 120.271 283.766 118.209 286.309 118.209C288.853 118.209 290.915 120.271 290.915 122.814Z"/>
  <path fill="#1A9FFF" d="M307.802 122.814C307.802 125.358 305.74 127.42 303.196 127.42C300.653 127.42 298.591 125.358 298.591 122.814C298.591 120.271 300.653 118.209 303.196 118.209C305.74 118.209 307.802 120.271 307.802 122.814Z"/>
  <path fill="#1A9FFF" d="M324.689 122.814C324.689 125.358 322.627 127.42 320.083 127.42C317.54 127.42 315.478 125.358 315.478 122.814C315.478 120.271 317.54 118.209 320.083 118.209C322.627 118.209 324.689 120.271 324.689 122.814Z"/>
  <path fill="#1A9FFF" d="M341.576 122.814C341.576 125.358 339.514 127.42 336.97 127.42C334.427 127.42 332.365 125.358 332.365 122.814C332.365 120.271 334.427 118.209 336.97 118.209C339.514 118.209 341.576 120.271 341.576 122.814Z"/>
  <path fill="#1A9FFF" d="M358.463 122.814C358.463 125.358 356.401 127.42 353.857 127.42C351.314 127.42 349.252 125.358 349.252 122.814C349.252 120.271 351.314 118.209 353.857 118.209C356.401 118.209 358.463 120.271 358.463 122.814Z"/>
  <path fill="#1A9FFF" d="M375.35 122.814C375.35 125.358 373.288 127.42 370.744 127.42C368.201 127.42 366.139 125.358 366.139 122.814C366.139 120.271 368.201 118.209 370.744 118.209C373.288 118.209 375.35 120.271 375.35 122.814Z"/>
  <path fill="#1A9FFF" d="M392.237 122.814C392.237 125.358 390.175 127.42 387.631 127.42C385.088 127.42 383.026 125.358 383.026 122.814C383.026 120.271 385.088 118.209 387.631 118.209C390.175 118.209 392.237 120.271 392.237 122.814Z"/>
  <path fill="#1A9FFF" d="M409.124 122.814C409.124 125.358 407.062 127.42 404.518 127.42C401.975 127.42 399.913 125.358 399.913 122.814C399.913 120.271 401.975 118.209 404.518 118.209C407.062 118.209 409.124 120.271 409.124 122.814Z"/>
  <path fill="#1A9FFF" d="M426.011 122.814C426.011 125.358 423.949 127.42 421.405 127.42C418.862 127.42 416.8 125.358 416.8 122.814C416.8 120.271 418.862 118.209 421.405 118.209C423.949 118.209 426.011 120.271 426.011 122.814Z"/>
  <path fill="#1A9FFF" d="M442.898 122.814C442.898 125.358 440.836 127.42 438.292 127.42C435.749 127.42 433.687 125.358 433.687 122.814C433.687 120.271 435.749 118.209 438.292 118.209C440.836 118.209 442.898 120.271 442.898 122.814Z"/>
  <path fill="#1A9FFF" d="M459.785 122.814C459.785 125.358 457.723 127.42 455.179 127.42C452.636 127.42 450.574 125.358 450.574 122.814C450.574 120.271 452.636 118.209 455.179 118.209C457.723 118.209 459.785 120.271 459.785 122.814Z"/>
  <path fill="#1A9FFF" d="M476.672 122.814C476.672 125.358 474.61 127.42 472.066 127.42C469.523 127.42 467.461 125.358 467.461 122.814C467.461 120.271 469.523 118.209 472.066 118.209C474.61 118.209 476.672 120.271 476.672 122.814Z"/>
  <path fill="#1A9FFF" d="M493.559 122.814C493.559 125.358 491.497 127.42 488.953 127.42C486.41 127.42 484.348 125.358 484.348 122.814C484.348 120.271 486.41 118.209 488.953 118.209C491.497 118.209 493.559 120.271 493.559 122.814Z"/>
  <path fill="#1A9FFF" d="M510.446 122.814C510.446 125.358 508.384 127.42 505.84 127.42C503.297 127.42 501.235 125.358 501.235 122.814C501.235 120.271 503.297 118.209 505.84 118.209C508.384 118.209 510.446 120.271 510.446 122.814Z"/>
  <path fill="#1A9FFF" d="M527.333 122.814C527.333 125.358 525.271 127.42 522.727 127.42C520.184 127.42 518.122 125.358 518.122 122.814C518.122 120.271 520.184 118.209 522.727 118.209C525.271 118.209 527.333 120.271 527.333 122.814Z"/>
  <path fill="#1A9FFF" d="M544.22 122.814C544.22 125.358 542.158 127.42 539.614 127.42C537.071 127.42 535.009 125.358 535.009 122.814C535.009 120.271 537.071 118.209 539.614 118.209C542.158 118.209 544.22 120.271 544.22 122.814Z"/>
</svg>
