<?xml version="1.0"?>
<svg xmlns="http://www.w3.org/2000/svg" viewBox="0 0 689 239" fill="none">
  <path fill="currentColor" d="M154.116 119.665C156.144 119.665 157.792 118.017 157.792 115.989C157.792 113.961 156.144 112.313 154.116 112.313C152.088 112.313 150.439 113.961 150.439 115.989C150.439 118.017 152.088 119.665 154.116 119.665Z"/>
  <path fill="currentColor" d="M125.603 114.533H132.889C133.777 114.533 134.498 113.813 134.498 112.924C134.498 112.035 133.777 111.284 132.889 111.284H125.603C124.714 111.284 123.994 112.004 123.994 112.893C123.994 113.781 124.714 114.533 125.603 114.533Z"/>
  <path fill="currentColor" d="M149.931 164.476C149.214 159.383 144.806 155.542 139.669 155.542C139.184 155.542 138.695 155.577 138.209 155.644L120.369 158.149C117.624 158.537 115.193 159.966 113.526 162.182C111.858 164.394 111.153 167.126 111.537 169.871L114.042 187.711C114.759 192.804 119.167 196.645 124.303 196.645C124.789 196.645 125.278 196.61 125.764 196.543L143.604 194.038C149.269 193.243 153.231 187.985 152.436 182.32L149.931 164.48V164.476Z"/>
  <path fill="currentColor" d="M69.6312 158.153L51.7908 155.648C51.3054 155.581 50.816 155.546 50.3305 155.546C45.198 155.546 40.7859 159.386 40.0695 164.48L37.5639 182.32C36.7692 187.985 40.7311 193.243 46.396 194.038L64.2364 196.543C64.7219 196.61 65.2112 196.645 65.6967 196.645C70.8292 196.645 75.2413 192.804 75.9577 187.711L78.4633 169.871C78.8509 167.126 78.1423 164.398 76.4745 162.182C74.8068 159.97 72.3756 158.537 69.6312 158.149V158.153Z"/>
  <path fill="currentColor" d="M57.1111 114.533H64.3968C65.2855 114.533 66.0059 113.813 66.0059 112.924C66.0059 112.035 65.2855 111.284 64.3968 111.284H57.1111C56.2224 111.284 55.5021 112.004 55.5021 112.893C55.5021 113.781 56.2224 114.533 57.1111 114.533Z"/>
  <path fill="currentColor" d="M144.039 129.743C146.067 129.743 147.715 128.094 147.715 126.067C147.715 124.039 146.067 122.39 144.039 122.39C142.011 122.39 140.362 124.039 140.362 126.067C140.362 128.094 142.011 129.743 144.039 129.743Z"/>
  <path fill="currentColor" d="M98.5392 123.291C98.5392 122.578 97.9598 121.999 97.2472 121.999C96.5347 121.999 95.9553 122.578 95.9553 123.291C95.9553 124.003 96.5347 124.583 97.2472 124.583C97.9598 124.583 98.5392 124.003 98.5392 123.291Z"/>
  <path fill="currentColor" d="M24.7308 129.049H29.1742C31.0534 129.049 32.5802 130.576 32.5802 132.455V137.431C32.5802 137.6 32.7173 137.737 32.8856 137.737H38.9224C39.0908 137.737 39.2278 137.6 39.2278 137.431V132.455C39.2278 130.576 40.7546 129.049 42.6338 129.049H47.0773C47.2456 129.049 47.3826 128.912 47.3826 128.744V123.78C47.3826 123.612 47.2456 123.475 47.0773 123.475H42.6338C40.7546 123.475 39.2278 121.948 39.2278 120.069V115.093C39.2278 114.924 39.0908 114.787 38.9224 114.787H32.8856C32.7173 114.787 32.5802 114.924 32.5802 115.093V120.069C32.5802 121.948 31.0534 123.475 29.1742 123.475H24.7308C24.5624 123.475 24.4254 123.612 24.4254 123.78V128.744C24.4254 128.912 24.5624 129.049 24.7308 129.049Z"/>
  <path fill="currentColor" d="M99.9837 173.578H90.0163C88.8535 173.578 87.9061 174.526 87.9061 175.688C87.9061 176.851 88.8535 177.838 90.0163 177.838H99.9837C101.146 177.838 102.094 176.89 102.094 175.727C102.094 174.565 101.146 173.578 99.9837 173.578Z"/>
  <path fill="currentColor" d="M123.211 134.147C119.688 134.147 116.818 137.013 116.818 140.536C116.818 144.06 119.684 146.929 123.211 146.929C126.739 146.929 129.604 144.064 129.604 140.536C129.604 137.009 126.739 134.147 123.211 134.147Z"/>
  <path fill="currentColor" d="M171.893 118.471C170.382 114.47 168.252 111.358 165.023 108.939C164.831 108.504 164.588 108.062 164.283 107.619C161.155 103.101 149.253 99.159 140.738 101.097C140.01 101.261 139.352 101.52 138.765 101.833C127.956 100.917 113.76 100.694 95.0039 100.694C76.2474 100.694 62.0518 100.917 51.2427 101.833C50.6515 101.524 49.9938 101.265 49.2696 101.097C40.7546 99.159 28.8531 103.101 25.7251 107.619C25.4197 108.062 25.177 108.504 24.9852 108.939C21.7593 111.358 19.6256 114.47 18.1144 118.471C11.5687 135.799 0 177.219 0 201.316C0 225.412 6.8629 238.41 25.4119 238.41C29.7457 238.41 32.2865 236.617 34.2166 233.7C37.881 228.168 39.1377 213.009 46.8305 209.31C50.1348 207.72 51.505 207.157 95 207.157C138.495 207.157 139.869 207.72 143.169 209.31C150.862 213.009 152.119 228.172 155.783 233.7C157.717 236.617 160.254 238.41 164.588 238.41C183.137 238.41 190 225.412 190 201.316C190 177.219 178.431 135.799 171.889 118.471H171.893ZM164.193 120.041C167.52 120.041 170.218 122.739 170.218 126.066C170.218 129.394 167.52 132.092 164.193 132.092C160.865 132.092 158.168 129.394 158.168 126.066C158.168 122.739 160.865 120.041 164.193 120.041ZM160.141 136.143C160.141 139.471 157.443 142.169 154.116 142.169C150.788 142.169 148.091 139.471 148.091 136.143C148.091 132.816 150.788 130.118 154.116 130.118C157.443 130.118 160.141 132.816 160.141 136.143ZM154.116 109.968C157.443 109.968 160.141 112.666 160.141 115.993C160.141 119.321 157.443 122.018 154.116 122.018C150.788 122.018 148.091 119.321 148.091 115.993C148.091 112.666 150.788 109.968 154.116 109.968ZM144.039 120.041C147.366 120.041 150.064 122.739 150.064 126.066C150.064 129.394 147.366 132.092 144.039 132.092C140.711 132.092 138.013 129.394 138.013 126.066C138.013 122.739 140.711 120.041 144.039 120.041ZM125.603 108.935H132.889C135.069 108.935 136.847 110.712 136.847 112.893C136.847 115.073 135.069 116.882 132.889 116.882H125.603C123.422 116.882 121.645 115.105 121.645 112.924C121.645 110.743 123.422 108.935 125.603 108.935ZM95 110.794C96.1667 110.794 97.1141 111.742 97.1141 112.908C97.1141 114.075 96.1667 115.022 95 115.022C93.8333 115.022 92.8859 114.075 92.8859 112.908C92.8859 111.742 93.8333 110.794 95 110.794ZM94.9883 118.217C98.7623 118.217 101.824 121.278 101.824 125.052C101.824 128.826 98.7623 131.888 94.9883 131.888C91.8602 131.888 89.2215 129.786 88.4112 126.916L91.0303 128C91.2064 128.885 91.9894 129.555 92.929 129.555C93.9978 129.555 94.863 128.686 94.863 127.621C94.863 127.589 94.863 127.558 94.863 127.531L97.1885 125.871C97.1885 125.871 97.2276 125.871 97.2472 125.871C98.6683 125.871 99.8271 124.716 99.8271 123.291C99.8271 121.866 98.6722 120.711 97.2472 120.711C95.8221 120.711 94.6672 121.866 94.6672 123.291C94.6672 123.302 94.6672 123.314 94.6672 123.326L93.0386 125.687C93.0034 125.687 92.9681 125.687 92.929 125.687C92.5258 125.687 92.1499 125.812 91.8406 126.023L88.1763 124.508C88.4542 120.989 91.3983 118.221 94.9883 118.221V118.217ZM93.2813 126.618L92.4122 126.258C92.745 126.133 93.1287 126.125 93.481 126.274C93.8373 126.423 94.1191 126.705 94.264 127.061C94.4128 127.421 94.4128 127.812 94.264 128.173C93.9547 128.913 93.1052 129.261 92.3652 128.956C92.0246 128.815 91.7663 128.552 91.6175 128.243L92.4553 128.592C92.9995 128.819 93.6259 128.56 93.8529 128.016C94.08 127.472 93.8216 126.845 93.2774 126.618H93.2813ZM95.5246 123.291C95.5246 122.343 96.2958 121.572 97.2433 121.572C98.1907 121.572 98.9619 122.343 98.9619 123.291C98.9619 124.238 98.1907 125.009 97.2433 125.009C96.2958 125.009 95.5246 124.238 95.5246 123.291ZM57.1112 108.935H64.3969C66.5775 108.935 68.3549 110.712 68.3549 112.893C68.3549 115.073 66.5775 116.882 64.3969 116.882H57.1112C54.9306 116.882 53.1532 115.105 53.1532 112.924C53.1532 110.743 54.9306 108.935 57.1112 108.935ZM22.0764 123.78C22.0764 122.316 23.2626 121.126 24.7307 121.126H29.1742C29.7575 121.126 30.2312 120.652 30.2312 120.069V115.093C30.2312 113.629 31.4174 112.439 32.8855 112.439H38.9224C40.3865 112.439 41.5767 113.625 41.5767 115.093V120.069C41.5767 120.652 42.0504 121.126 42.6337 121.126H47.0772C48.5414 121.126 49.7315 122.312 49.7315 123.78V128.744C49.7315 130.208 48.5453 131.399 47.0772 131.399H42.6337C42.0504 131.399 41.5767 131.872 41.5767 132.456V137.431C41.5767 138.896 40.3905 140.086 38.9224 140.086H32.8855C31.4213 140.086 30.2312 138.9 30.2312 137.431V132.456C30.2312 131.872 29.7575 131.399 29.1742 131.399H24.7307C23.2665 131.399 22.0764 130.212 22.0764 128.744V123.78ZM80.2054 170.117L77.6999 187.958C76.8464 194.022 71.6513 198.407 65.6967 198.407C65.1329 198.407 64.5652 198.368 63.9937 198.285L46.1533 195.78C39.5135 194.848 34.89 188.709 35.8217 182.07L38.3273 164.229C39.1807 158.165 44.3759 153.78 50.3305 153.78C50.8943 153.78 51.4619 153.819 52.0335 153.902L69.8739 156.407C76.5136 157.339 81.1372 163.478 80.2054 170.117ZM99.9837 180.187H90.0163C87.5577 180.187 85.5572 178.186 85.5572 175.727C85.5572 173.269 87.5577 171.229 90.0163 171.229H99.9837C102.442 171.229 104.443 173.23 104.443 175.688C104.443 178.147 102.442 180.187 99.9837 180.187ZM143.851 195.78L126.01 198.285C125.439 198.368 124.867 198.407 124.307 198.407C118.353 198.407 113.154 194.022 112.304 187.958L109.798 170.117C108.867 163.478 113.49 157.343 120.13 156.407L137.97 153.902C138.542 153.819 139.114 153.78 139.673 153.78C145.628 153.78 150.827 158.165 151.677 164.229L154.182 182.07C155.114 188.709 150.49 194.844 143.851 195.78ZM169.349 207.763C167.959 192.75 166.268 177.591 162.411 163C161.718 160.537 160.932 158.102 159.914 155.796C159.154 154.125 158.293 152.453 156.981 151.204C156.093 150.39 155.067 149.572 154.053 148.918C152.475 147.959 150.702 147.383 148.889 146.992C146.442 146.424 143.882 146.177 141.341 145.907C139.415 145.786 137.485 145.68 135.559 145.578C133.57 150.441 128.79 153.87 123.211 153.87C117.632 153.87 112.394 150.1 110.593 144.862C105.398 144.807 100.199 144.796 95 144.819C89.801 144.796 84.6019 144.807 79.4068 144.862C77.6098 150.104 72.6418 153.87 66.7928 153.87C60.9439 153.87 56.4378 150.445 54.449 145.586C52.519 145.684 50.5889 145.786 48.6627 145.907C46.1219 146.177 43.5616 146.424 41.1147 146.992C39.3021 147.379 37.5326 147.959 35.9509 148.918C34.933 149.572 33.9112 150.386 33.0225 151.204C31.7071 152.453 30.8497 154.125 30.0903 155.796C29.0724 158.102 28.2855 160.537 27.5925 163C23.7402 177.595 22.049 192.754 20.6552 207.763C20.5887 208.464 19.5669 208.402 19.606 207.713C19.6256 207.333 20.5926 191.728 22.9807 177.826C24.3 170.164 25.6585 162.405 28.673 155.17C29.4913 153.342 30.4465 151.463 31.9498 150.038C32.6937 149.349 33.4454 148.73 34.2518 148.123C38.3625 145.183 43.6634 144.811 48.5101 144.255C50.2992 144.114 52.0883 143.997 53.8814 143.895C53.6034 142.822 53.4546 141.699 53.4546 140.536C53.4546 133.168 59.4249 127.198 66.7928 127.198C74.1608 127.198 80.131 133.168 80.131 140.536C80.131 141.444 80.041 142.329 79.8687 143.183C84.9151 143.147 89.9615 143.139 95.0039 143.104C100.046 143.139 105.093 143.147 110.139 143.183C109.967 142.329 109.877 141.444 109.877 140.536C109.877 133.168 115.847 127.198 123.215 127.198C130.583 127.198 136.553 133.168 136.553 140.536C136.553 141.695 136.404 142.818 136.126 143.887C137.916 143.993 139.705 144.114 141.494 144.255C146.341 144.811 151.641 145.183 155.752 148.123C156.562 148.73 157.31 149.352 158.054 150.038C159.557 151.463 160.509 153.342 161.331 155.17C164.349 162.409 165.708 170.164 167.023 177.826C169.415 191.728 170.378 207.333 170.398 207.713C170.433 208.398 169.415 208.46 169.349 207.763Z"/>
  <path fill="currentColor" d="M123.211 129.547C117.151 129.547 112.222 134.476 112.222 140.536C112.222 146.596 117.151 151.525 123.211 151.525C129.272 151.525 134.2 146.596 134.2 140.536C134.2 134.476 129.272 129.547 123.211 129.547ZM123.211 149.278C118.384 149.278 114.469 145.363 114.469 140.536C114.469 135.709 118.384 131.798 123.211 131.798C128.038 131.798 131.953 135.713 131.953 140.536C131.953 145.359 128.038 149.278 123.211 149.278Z"/>
  <path fill="currentColor" d="M164.193 129.743C166.221 129.743 167.869 128.094 167.869 126.067C167.869 124.039 166.221 122.39 164.193 122.39C162.165 122.39 160.517 124.039 160.517 126.067C160.517 128.094 162.165 129.743 164.193 129.743Z"/>
  <path fill="currentColor" d="M154.116 132.467C152.088 132.467 150.439 134.115 150.439 136.143C150.439 138.171 152.088 139.82 154.116 139.82C156.144 139.82 157.792 138.171 157.792 136.143C157.792 134.115 156.144 132.467 154.116 132.467Z"/>
  <path fill="currentColor" d="M66.789 134.147C63.2655 134.147 60.3959 137.013 60.3959 140.536C60.3959 144.06 63.2616 146.929 66.789 146.929C70.3163 146.929 73.1821 144.064 73.1821 140.536C73.1821 137.009 70.3163 134.147 66.789 134.147Z"/>
  <path fill="currentColor" d="M66.7889 129.547C60.7286 129.547 55.7997 134.476 55.7997 140.536C55.7997 146.596 60.7286 151.525 66.7889 151.525C72.8493 151.525 77.7782 146.596 77.7782 140.536C77.7782 134.476 72.8493 129.547 66.7889 129.547ZM66.7889 149.278C61.9618 149.278 58.0469 145.363 58.0469 140.536C58.0469 135.709 61.9618 131.798 66.7889 131.798C71.6161 131.798 75.531 135.713 75.531 140.536C75.531 145.359 71.6161 149.278 66.7889 149.278Z"/>
  <path stroke="currentColor" d="M97.9995 108.025C97.9996 85.3862 116.352 67.0336 138.992 67.0336L354.255 67.0336C371.868 67.0336 386.146 52.7552 386.146 35.1418L386.146 15.2914C386.146 8.64114 391.537 3.25006 398.188 3.25006C404.838 3.25006 410.229 8.60261 410.229 15.2528C410.229 36.6481 410.229 82.3484 410.229 116.665C410.229 123.76 415.98 129.5 423.075 129.5C430.169 129.5 435.921 123.749 435.921 116.655L435.921 16.9868C435.921 9.40023 442.071 3.25005 449.657 3.25003C457.244 3.25001 463.394 9.4002 463.394 16.9868L463.394 116.655C463.394 123.749 469.146 129.5 476.24 129.5C483.335 129.5 489.086 123.765 489.086 116.67C489.086 111.148 489.086 104.384 489.086 97.5007C489.086 79.8275 503.413 65.5001 521.086 65.5001L683.499 65.5001" stroke-width="6.50002"/>
  <rect fill="currentColor" x="673" y="52.2498" width="16" height="26"/>
</svg>
