<?xml version="1.0"?>
<svg xmlns="http://www.w3.org/2000/svg" viewBox="0 0 20 20" fill="none">
  <path fill="currentColor" d="M15.2779 13.3334C16.3874 11.738 16.8596 9.78503 16.6013 7.85895C16.3431 5.93287 15.3732 4.17324 13.8825 2.92647C12.3919 1.6797 10.4885 1.03612 8.5471 1.12243C6.6057 1.20874 4.76694 2.01868 3.39281 3.39281C2.01868 4.76694 1.20874 6.6057 1.12243 8.5471C1.03612 10.4885 1.6797 12.3919 2.92647 13.8825C4.17324 15.3732 5.93287 16.3431 7.85895 16.6013C9.78503 16.8596 11.738 16.3874 13.3334 15.2779L16.8112 18.7612L17.0112 18.5612L18.5779 16.9945L18.7779 16.7945L15.2779 13.3334ZM8.88897 13.889C7.90006 13.889 6.93336 13.5957 6.11112 13.0463C5.28887 12.4969 4.64801 11.716 4.26957 10.8024C3.89113 9.88875 3.79212 8.88342 3.98504 7.91352C4.17797 6.94361 4.65417 6.0527 5.35343 5.35343C6.0527 4.65417 6.94361 4.17797 7.91352 3.98504C8.88342 3.79212 9.88875 3.89113 10.8024 4.26957C11.716 4.64801 12.4969 5.28887 13.0463 6.11112C13.5957 6.93336 13.889 7.90006 13.889 8.88897C13.889 10.2151 13.3622 11.4868 12.4245 12.4245C11.4868 13.3622 10.2151 13.889 8.88897 13.889V13.889Z"/>
</svg>
