<?xml version="1.0"?>
<svg viewBox="0 0 36 24" fill="none" xmlns="http://www.w3.org/2000/svg">
  <path d="M33 0C34.6569 0 36 1.34315 36 3V21C36 22.6569 34.6569 24 33 24H3C1.34315 24 0 22.6569 0 21V3C0 1.34315 1.34315 4.83192e-08 3 0H33ZM12.5635 6C11.5274 6.00005 10.5889 6.2304 9.74805 6.69043C8.90718 7.1467 8.23869 7.82137 7.74316 8.71484C7.24763 9.60456 7 10.6997 7 12C7 13.2927 7.24229 14.3858 7.72656 15.2793C8.21452 16.1727 8.8769 16.8495 9.71387 17.3096C10.5547 17.7696 11.5049 18 12.5635 18C13.4081 18 14.1499 17.8688 14.7881 17.6064C15.4263 17.3441 15.9618 16.998 16.3936 16.5684C16.8289 16.135 17.1649 15.6636 17.4014 15.1543C17.6379 14.641 17.775 14.1369 17.8125 13.6426L14.6357 13.6201C14.5982 13.8709 14.5258 14.0974 14.417 14.2988C14.312 14.4963 14.1746 14.6651 14.0059 14.8057C13.8369 14.9463 13.6372 15.0548 13.4082 15.1309C13.1794 15.203 12.9207 15.2392 12.6318 15.2393C12.125 15.2393 11.6905 15.1194 11.3301 14.8799C10.97 14.6366 10.6943 14.2756 10.5029 13.7969C10.3152 13.314 10.2207 12.7148 10.2207 12C10.2207 11.3233 10.3132 10.7436 10.4971 10.2607C10.6848 9.77787 10.9589 9.40699 11.3193 9.14844C11.6835 8.88988 12.1287 8.76074 12.6543 8.76074C12.9544 8.76078 13.2226 8.80424 13.459 8.8916C13.6955 8.97525 13.8963 9.09716 14.0615 9.25684C14.2304 9.41271 14.3622 9.59874 14.4561 9.81543C14.5537 10.0322 14.6132 10.2739 14.6357 10.54H17.8125C17.7524 9.8138 17.5814 9.16918 17.2998 8.60645C17.0182 8.04372 16.6463 7.57055 16.1846 7.18652C15.7228 6.79873 15.1861 6.50425 14.5742 6.30273C13.9623 6.10121 13.2918 6 12.5635 6ZM24.752 6C23.7158 6 22.7765 6.23035 21.9355 6.69043C21.0948 7.1467 20.4262 7.82144 19.9307 8.71484C19.4352 9.60454 19.1875 10.6997 19.1875 12C19.1875 13.2927 19.4298 14.3858 19.9141 15.2793C20.4021 16.1728 21.0651 16.8495 21.9023 17.3096C22.7433 17.7696 23.6933 18 24.752 18C25.5964 18 26.3375 17.8687 26.9756 17.6064C27.6138 17.3441 28.1493 16.998 28.5811 16.5684C29.0164 16.135 29.3524 15.6637 29.5889 15.1543C29.8254 14.641 29.9625 14.1369 30 13.6426L26.8242 13.6201C26.7867 13.871 26.7133 14.0974 26.6045 14.2988C26.4995 14.4963 26.3621 14.6651 26.1934 14.8057C26.0245 14.9463 25.8255 15.0548 25.5967 15.1309C25.3677 15.2031 25.1083 15.2392 24.8193 15.2393C24.3125 15.2393 23.879 15.1194 23.5186 14.8799C23.1582 14.6366 22.8819 14.2758 22.6904 13.7969C22.5027 13.314 22.4092 12.7148 22.4092 12C22.4092 11.3234 22.5007 10.7436 22.6846 10.2607C22.8723 9.77793 23.1465 9.40699 23.5068 9.14844C23.871 8.88988 24.3162 8.76074 24.8418 8.76074C25.1419 8.76076 25.4101 8.80426 25.6465 8.8916C25.8829 8.97523 26.0839 9.09721 26.249 9.25684C26.4179 9.41269 26.5497 9.59878 26.6436 9.81543C26.7412 10.0322 26.8017 10.2739 26.8242 10.54H30C29.9399 9.8138 29.7689 9.16918 29.4873 8.60645C29.2057 8.04376 28.8338 7.57053 28.3721 7.18652C27.9103 6.79876 27.3736 6.50423 26.7617 6.30273C26.1499 6.10127 25.4801 6.00004 24.752 6Z" fill="currentColor"/>
</svg>
