<?xml version="1.0"?>
<svg fill="none" stroke="#1A9FFF" stroke-linecap="round" stroke-width="8.54709" viewBox="" xmlns="http://www.w3.org/2000/svg">
  <path d="M222.67 161.211c1.299-4.847 4.16-9.129 8.14-12.184 3.981-3.054 8.858-4.71 13.876-4.71 5.017 0 9.894 1.656 13.875 4.71 3.98 3.055 6.842 7.337 8.14 12.184M194.504 153.663c2.96-11.047 9.482-20.808 18.555-27.77 9.073-6.962 20.19-10.735 31.626-10.735 11.437 0 22.553 3.773 31.626 10.735 9.073 6.962 15.595 16.723 18.555 27.77M169.007 146.831c4.464-16.659 14.3-31.38 27.984-41.88 13.683-10.499 30.448-16.19 47.695-16.19s34.012 5.691 47.695 16.19c13.684 10.5 23.52 25.221 27.984 41.88"/>
</svg>
