<?xml version="1.0"?>
<svg xmlns="http://www.w3.org/2000/svg" viewBox="0 0 25 24" fill="none">
  <path fill="currentColor" fill-rule="evenodd" clip-rule="evenodd" d="M17.7329 0C19.8186 0 21.5117 1.70467 21.5117 3.80463C21.5117 5.9046 19.8186 7.60926 17.7329 7.60926C15.6473 7.60926 13.9542 5.9046 13.9542 3.80463C13.9542 1.70467 15.6473 0 17.7329 0ZM17.7329 1.75612C16.6096 1.75612 15.6984 2.67363 15.6984 3.80463C15.6984 4.93564 16.6096 5.85314 17.7329 5.85314C18.8562 5.85314 19.7675 4.93564 19.7675 3.80463C19.7675 2.67363 18.8562 1.75612 17.7329 1.75612Z"/>
  <path fill="currentColor" fill-rule="evenodd" clip-rule="evenodd" d="M17.7329 16.3907C19.8186 16.3907 21.5117 18.0954 21.5117 20.1954C21.5117 22.2953 19.8186 24 17.7329 24C15.6473 24 13.9542 22.2953 13.9542 20.1954C13.9542 18.0954 15.6473 16.3907 17.7329 16.3907ZM17.7329 18.1469C16.6096 18.1469 15.6984 19.0644 15.6984 20.1954C15.6984 21.3264 16.6096 22.2439 17.7329 22.2439C18.8562 22.2439 19.7675 21.3264 19.7675 20.1954C19.7675 19.0644 18.8562 18.1469 17.7329 18.1469Z"/>
  <path fill="currentColor" fill-rule="evenodd" clip-rule="evenodd" d="M10.1746 8.19581C12.2603 8.19581 13.9533 9.90047 13.9533 12.0004C13.9533 14.1004 12.2603 15.8051 10.1746 15.8051C8.08892 15.8051 6.39586 14.1004 6.39586 12.0004C6.39586 9.90047 8.08892 8.19581 10.1746 8.19581ZM10.1746 9.95193C9.05128 9.95193 8.14002 10.8694 8.14002 12.0004C8.14002 13.1314 9.05128 14.049 10.1746 14.049C11.2979 14.049 12.2092 13.1314 12.2092 12.0004C12.2092 10.8694 11.2979 9.95193 10.1746 9.95193Z"/>
  <path fill="currentColor" fill-rule="evenodd" clip-rule="evenodd" d="M24.1275 2.92745C24.6087 2.92745 24.9996 3.32104 24.9996 3.80551C24.9996 4.28998 24.6087 4.68357 24.1275 4.68357H20.6392C20.158 4.68357 19.7671 4.28998 19.7671 3.80551C19.7671 3.32104 20.158 2.92745 20.6392 2.92745H24.1275Z"/>
  <path fill="currentColor" fill-rule="evenodd" clip-rule="evenodd" d="M24.1275 19.3173C24.6087 19.3173 24.9996 19.7109 24.9996 20.1954C24.9996 20.6798 24.6087 21.0734 24.1275 21.0734H20.6392C20.158 21.0734 19.7671 20.6798 19.7671 20.1954C19.7671 19.7109 20.158 19.3173 20.6392 19.3173H24.1275Z"/>
  <path fill="currentColor" fill-rule="evenodd" clip-rule="evenodd" d="M0.872955 12.8785C0.391783 12.8785 0.000872176 12.4849 0.000872176 12.0004C0.000872176 11.516 0.391783 11.1224 0.872955 11.1224H7.26794C7.74911 11.1224 8.14002 11.516 8.14002 12.0004C8.14002 12.4849 7.74911 12.8785 7.26794 12.8785H0.872955Z"/>
  <path fill="currentColor" fill-rule="evenodd" clip-rule="evenodd" d="M11.9188 2.92745C12.3999 2.92745 12.7908 3.32104 12.7908 3.80551C12.7908 4.28998 12.3999 4.68357 11.9188 4.68357H0.872083C0.390911 4.68357 0 4.28998 0 3.80551C0 3.32104 0.390911 2.92745 0.872083 2.92745H11.9188Z"/>
  <path fill="currentColor" fill-rule="evenodd" clip-rule="evenodd" d="M11.9188 19.3173C12.3999 19.3173 12.7908 19.7109 12.7908 20.1954C12.7908 20.6798 12.3999 21.0734 11.9188 21.0734H0.872083C0.390911 21.0734 0 20.6798 0 20.1954C0 19.7109 0.390911 19.3173 0.872083 19.3173H11.9188Z"/>
  <path fill="currentColor" fill-rule="evenodd" clip-rule="evenodd" d="M15.9888 12.8785C15.5076 12.8785 15.1167 12.4849 15.1167 12.0004C15.1167 11.516 15.5076 11.1224 15.9888 11.1224H24.1279C24.6091 11.1224 25 11.516 25 12.0004C25 12.4849 24.6091 12.8785 24.1279 12.8785H15.9888Z"/>
</svg>
