<?xml version="1.0"?>
<svg xmlns="http://www.w3.org/2000/svg" viewBox="0 0 811 147" fill="none">
  <path fill="currentColor" d="M80.239 94.1502C57.047 104.77 36.6889 114.089 5.5493 114.089C3.73718 114.089 1.88741 114.057 0 113.992C1.33893 131.968 13.9593 146.04 42.7167 146.04C85.0086 146.04 124.494 112.594 155.988 112.594C165.382 112.594 170.555 113.938 172.566 113.938C174.577 113.938 177.906 112.535 179.755 110.486C182.439 107.518 186.138 84.1163 187.902 77.5184C189.053 73.2166 189.956 69.6408 190.779 66.6295C136.877 68.2212 106.819 81.9815 80.2444 94.1502H80.239Z"/>
  <path fill="currentColor" d="M132.887 27.0908H134.516V28.9621C134.592 28.9621 134.667 28.9621 134.742 28.9621C142.475 29.1288 149.578 29.3008 156.079 29.4891V27.0854H157.773C161.005 27.0854 163.65 24.9776 163.65 21.7458C163.65 18.5141 161.005 16.4062 157.773 16.4062H132.887C129.655 16.4062 127.01 18.5141 127.01 21.7458C127.01 24.9776 129.655 27.0854 132.887 27.0854V27.0908Z"/>
  <path fill="currentColor" d="M39.4579 63.9033C49.5026 59.1122 59.2085 55.9074 65.8171 53.7296C67.199 53.2725 68.3928 52.88 69.4467 52.5197C91.9074 44.8303 110.066 40.6791 115.901 39.4262C112.04 37.6947 107.582 37.2538 103.216 38.4905L43.2327 55.4933C40.0978 56.3806 38.2588 59.6714 39.146 62.8064L39.4579 63.898V63.9033Z"/>
  <path fill="currentColor" d="M201.318 73.7651C199.64 73.5016 197.935 74.1522 196.887 75.4911C196.478 76.0074 196.182 76.4859 196.005 76.8677C192.875 83.6376 191.988 90.7033 193.3 98.4681C194.994 108.507 200.931 115.525 204.958 119.262C209.658 116.154 205.227 107.738 206.394 97.7421C208.265 81.6642 211.846 81.0942 207.733 76.4053C206.534 75.0341 204.211 74.2167 201.318 73.7651Z"/>
  <path fill="currentColor" d="M190.913 98.8715C189.52 90.6067 190.467 83.0786 193.811 75.8516C194.059 75.3192 194.494 74.6363 195.097 73.8942C195.296 73.6523 195.129 73.292 194.817 73.292C194.57 73.292 194.317 73.292 194.064 73.292C193.457 73.292 192.844 73.3027 192.225 73.3189C191.822 73.3296 191.478 73.6039 191.376 73.991C191.031 75.2977 190.671 76.6796 190.279 78.1476C189.741 80.1587 189.004 83.8583 188.149 88.1385C186.219 97.8122 184.848 104.147 183.584 107.981C185.16 108.174 186.617 108.486 187.735 108.986C192.499 111.115 195.973 120.499 200.458 120.499C200.544 120.499 200.63 120.499 200.716 120.488C201.345 120.44 201.91 120.354 202.426 120.246C198.189 116.122 192.618 108.991 190.908 98.8769L190.913 98.8715Z"/>
  <path fill="currentColor" d="M198.753 68.5114C200.285 63.4407 202.398 57.0311 205.173 52.3851C205.41 51.998 205.646 51.6431 205.883 51.3151C206.087 51.0301 205.797 50.6537 205.469 50.7827C202.974 51.7667 200.473 53.1487 198.575 55.0737C195.752 57.9398 194.462 62.2255 192.338 70.3182C192.262 70.6086 192.483 70.8936 192.784 70.8882C193.219 70.8828 193.65 70.8774 194.069 70.8774C195.478 70.8774 196.785 70.9151 198 70.9903C198.258 71.0065 198.478 70.8021 198.473 70.544C198.462 69.8773 198.548 69.1944 198.753 68.5168V68.5114Z"/>
  <path fill="currentColor" d="M217.751 48.4006C210.89 49.8202 209.26 50.3526 207.244 53.6381C204.609 58.042 202.56 64.2742 201.071 69.2105C201.071 69.2159 201.071 69.2267 201.065 69.232C200.764 70.2483 201.458 71.313 202.501 71.5066C205.857 72.1304 208.163 73.2166 209.561 74.8082C210.39 75.7546 210.976 76.615 211.368 77.4377C214.207 76.002 216.713 72.3831 218.09 63.2418C218.896 57.8646 219.391 53.1756 218.601 50.1429C218.428 49.4761 218.133 48.9007 217.756 48.4006H217.751Z"/>
  <path fill="currentColor" d="M161.887 33.9307C161.887 34.1458 162.081 34.3071 162.291 34.2587C163.42 33.9952 166.383 33.4037 169.018 33.4252C171.056 33.4414 173.206 33.6511 175.062 34.1619C175.271 34.2211 175.476 34.0705 175.481 33.8554C175.519 32.823 176.25 31.8282 177.707 31.0754C176.164 29.8333 172.825 28.9729 168.948 28.9729C165.071 28.9729 161.425 29.9193 159.995 31.2528C161.635 32.1939 161.893 33.3177 161.893 33.9361L161.887 33.9307Z"/>
  <path fill="currentColor" d="M178.997 34.7372C183.014 36.2213 187.692 35.9739 191.881 35.3986C193.139 35.1405 194.715 34.8555 195.489 33.8714C195.505 33.4897 194.839 32.995 194.414 32.7422C190.488 30.5806 185.515 30.6343 181.25 31.7421C180.073 32.1077 178.815 32.5594 178.003 33.4144C177.793 33.651 177.75 33.8392 177.782 33.8661C177.965 34.1672 178.535 34.5436 178.997 34.7318V34.7372Z"/>
  <path fill="currentColor" d="M174.356 35.7211C170.84 34.4414 166.807 34.5597 163.285 35.7427C158.945 37.4204 158.811 39.4314 163.462 40.6682C166.28 41.5985 176.502 41.7006 177.674 38.485C177.723 37.3451 175.98 36.3073 174.362 35.7158L174.356 35.7211Z"/>
  <path fill="currentColor" d="M143.099 34.7372C147.116 36.2213 151.794 35.9739 155.983 35.3986C157.241 35.1405 158.817 34.8555 159.591 33.8714C159.607 33.4897 158.94 32.995 158.515 32.7422C154.59 30.5806 149.616 30.6343 145.352 31.7421C144.174 32.1077 142.916 32.5594 142.104 33.4144C141.894 33.651 141.851 33.8392 141.884 33.8661C142.066 34.1672 142.636 34.5436 143.099 34.7318V34.7372Z"/>
  <path fill="currentColor" d="M208.981 35.5436C207.035 34.7908 203.389 34.2208 197.786 33.7476C197.786 33.7906 197.802 33.8282 197.807 33.8713C197.684 36.5115 194.64 37.5762 192.575 38.2698C188.677 39.3883 184.601 39.2592 180.708 38.2483C180.428 38.173 180.165 38.0924 179.906 38.0063C179.944 38.1623 179.971 38.3236 179.987 38.4957C179.95 41.1897 177.186 42.6523 175.051 43.475C171.007 44.9053 166.63 44.7763 162.603 43.4535C158.951 42.2113 157.279 39.9529 157.752 37.9042C157.381 38.044 157.021 38.1677 156.688 38.2806C152.789 39.399 148.713 39.27 144.82 38.2591C139.626 36.861 138.195 33.6131 141.029 31.5644C138.636 31.4945 136.464 31.4354 134.662 31.3924C134.125 31.3816 133.619 31.3762 133.135 31.3762C127.306 31.3762 125.274 32.3226 121.467 36.8879C121.128 37.2966 120.579 38.0601 120.031 38.8506L130.759 36.5545C131.775 36.3663 132.103 37.8827 131.076 38.1139C131.076 38.1139 93.7632 46.7712 70.1895 54.8209C54.5686 60.139 4.63563 73.9908 0.0273438 111.567C33.834 112.728 54.9665 103.065 79.2286 91.9507C106.136 79.6315 136.598 65.6883 191.462 64.1935C192.957 59.1174 194.35 55.8641 196.807 53.3745C203.228 46.8573 215.305 45.9969 215.305 45.9969C215.305 45.9969 214.923 37.8504 208.981 35.549V35.5436Z"/>
  <rect fill="currentColor" x="606" y="84.656" width="42" height="14.6087" rx="7.30435"/>
  <path stroke="#1A9FFF" d="M260.483 2.96045C273.788 6.52544 285.545 14.3809 293.93 25.3086C302.315 36.2363 306.86 49.6255 306.86 63.3996C306.86 77.1736 302.315 90.5628 293.93 101.49C285.545 112.418 273.788 120.274 260.483 123.839M255.028 23.3245C263.85 25.6883 271.645 30.8972 277.205 38.1431C282.765 45.389 285.779 54.2671 285.779 63.4004C285.779 72.5337 282.765 81.4118 277.205 88.6577C271.645 95.9037 263.85 101.113 255.028 103.476M249 45.8168C252.87 46.8539 256.29 49.1391 258.73 52.3181C261.169 55.497 262.491 59.3921 262.491 63.3991C262.491 67.4061 261.169 71.3011 258.73 74.48C256.29 77.659 252.87 79.9442 249 80.9813" stroke-width="5.91935" stroke-linecap="round"/>
  <path stroke="#1A9FFF" d="M591.508 31.242C578.562 31.242 565.978 35.5138 555.707 43.3948C545.436 51.2758 538.053 62.3257 534.702 74.8306C531.352 87.3354 532.221 100.597 537.175 112.557C542.129 124.518 550.892 134.509 562.103 140.982M591.507 51.0568C582.923 51.0568 574.579 53.8893 567.768 59.1151C560.958 64.3408 556.062 71.6677 553.841 79.9595C551.619 88.2512 552.195 97.0444 555.48 104.975C558.765 112.906 564.575 119.531 572.01 123.823M591.508 72.9429C587.742 72.9429 584.081 74.1856 581.093 76.4783C578.106 78.7709 575.958 81.9854 574.983 85.6232C574.008 89.261 574.261 93.1188 575.702 96.5982C577.143 100.078 579.693 102.984 582.954 104.867" stroke-width="5.91935" stroke-linecap="round"/>
  <rect fill="currentColor" x="704" y="90.9604" width="107" height="3" rx="1.5"/>
  <rect fill="currentColor" x="703" y="87.9604" width="16" height="9"/>
  <rect fill="currentColor" x="695" y="90.9604" width="13" height="3"/>
  <path fill="#1A9FFF" d="M662.293 91.2533C661.902 91.6439 661.902 92.277 662.293 92.6676L668.657 99.0315C669.047 99.422 669.681 99.422 670.071 99.0315C670.462 98.641 670.462 98.0078 670.071 97.6173L664.414 91.9605L670.071 86.3036C670.462 85.9131 670.462 85.2799 670.071 84.8894C669.681 84.4989 669.047 84.4989 668.657 84.8894L662.293 91.2533ZM686 91.9604L686 90.9604L663 90.9605L663 91.9605L663 92.9605L686 92.9604L686 91.9604Z"/>
</svg>
