<?xml version="1.0"?>
<svg xmlns="http://www.w3.org/2000/svg" width="720" height="270" viewBox="0 0 970 320" fill="none">
  <path fill="white" d="M160 195.556C179.636 195.556 195.555 179.637 195.555 160C195.555 157.328 195.26 154.724 194.701 152.221C214.299 153.852 233.712 157.278 252.667 162.466C260.339 165.134 266.951 169.994 271.594 176.377C276.236 182.76 278.68 190.353 278.591 198.109L302.222 204.187V249.211L278.512 254.914C277.839 264.542 274.425 273.816 268.635 281.746C262.844 289.676 254.894 295.963 245.633 299.938L221.923 309.468C217.106 311.343 211.764 311.622 206.76 310.261C201.755 308.899 197.38 305.976 194.34 301.964C190.657 296.643 185.52 292.373 179.478 289.611C173.436 286.848 166.717 285.697 160.039 286.281C153.394 285.636 146.689 286.711 140.635 289.393C134.582 292.075 129.407 296.264 125.659 301.514C122.619 305.526 118.244 308.449 113.239 309.81C108.235 311.172 102.893 310.893 98.0762 309.018L74.3659 299.488C65.1051 295.513 57.155 289.225 51.3644 281.296C45.5738 273.366 42.16 264.092 41.4876 254.464L17.7773 248.761V203.737L41.4876 198.109C41.3977 190.353 43.8422 182.76 48.4846 176.377C53.127 169.994 59.7392 165.134 67.4109 162.466C86.34 157.285 105.726 153.861 125.296 152.227C124.738 154.729 124.444 157.33 124.444 160C124.444 179.637 140.363 195.556 160 195.556Z"/>
  <circle fill="#59BF40" cx="160" cy="160" r="17.7778"/>
  <path fill="#59BF40" fill-rule="evenodd" clip-rule="evenodd" d="M175.586 119.154C170.543 116.694 164.989 115.463 159.379 115.561C153.769 115.659 148.261 117.083 143.307 119.717C138.353 122.352 134.092 126.121 130.874 130.717C128.058 134.739 122.516 135.716 118.494 132.9C114.473 130.084 113.496 124.542 116.311 120.52C121.139 113.626 127.53 107.972 134.961 104.021C142.392 100.069 150.653 97.9328 159.069 97.7859C167.484 97.639 175.815 99.4859 183.379 103.175C190.944 106.865 197.528 112.293 202.593 119.014C205.548 122.935 204.765 128.508 200.844 131.463C196.923 134.417 191.35 133.634 188.395 129.713C185.019 125.232 180.629 121.614 175.586 119.154Z"/>
  <path fill="#59BF40" fill-rule="evenodd" clip-rule="evenodd" d="M195.07 79.2076C183.723 73.6732 171.227 70.903 158.604 71.1233C145.981 71.3436 133.589 74.5483 122.442 80.4753C111.295 86.4023 101.709 94.8833 94.4679 105.225C91.6521 109.246 86.1094 110.224 82.0881 107.408C78.0667 104.592 77.0894 99.0494 79.9052 95.0281C88.7557 82.3883 100.472 72.0226 114.096 64.7785C127.72 57.5343 142.866 53.6175 158.294 53.3482C173.722 53.0789 188.994 56.4648 202.863 63.229C216.732 69.9933 228.803 79.9438 238.089 92.267C241.043 96.1876 240.26 101.761 236.339 104.715C232.419 107.67 226.845 106.887 223.891 102.966C216.293 92.8833 206.417 84.742 195.07 79.2076Z"/>
  <path fill="#59BF40" fill-rule="evenodd" clip-rule="evenodd" d="M214.553 39.2612C196.902 30.6522 177.464 26.3429 157.829 26.6856C138.193 27.0284 118.917 32.0134 101.577 41.2332C84.2375 50.453 69.3259 63.6457 58.0616 79.7327C55.2458 83.7541 49.7032 84.7314 45.6818 81.9156C41.6604 79.0998 40.6831 73.5572 43.4989 69.5358C56.3724 51.1506 73.4143 36.0732 93.2313 25.5363C113.048 14.9995 135.078 9.30226 157.518 8.91055C179.959 8.51885 202.174 13.4438 222.347 23.2826C242.519 33.1215 260.077 47.595 273.584 65.5197C276.539 69.4403 275.755 75.0137 271.835 77.9681C267.914 80.9225 262.341 80.1393 259.386 76.2186C247.567 60.5345 232.204 47.8702 214.553 39.2612Z"/>
  <path fill="#59BF40" fill-rule="evenodd" clip-rule="evenodd" d="M823.916 98.0411C819.699 95.9652 815.054 94.926 810.362 95.0087C805.671 95.0913 801.065 96.2934 796.922 98.5166C792.778 100.74 789.215 103.921 786.524 107.8C784.169 111.194 779.534 112.019 776.171 109.643C772.807 107.266 771.99 102.588 774.345 99.1943C778.382 93.3755 783.727 88.6036 789.942 85.2688C796.157 81.9339 803.065 80.1308 810.103 80.0069C817.141 79.8829 824.108 81.4416 830.434 84.5555C836.76 87.6694 842.267 92.2502 846.503 97.9232C848.973 101.232 848.318 105.936 845.04 108.429C841.761 110.923 837.1 110.262 834.629 106.953C831.805 103.171 828.134 100.117 823.916 98.0411Z"/>
  <path fill="#59BF40" fill-rule="evenodd" clip-rule="evenodd" d="M841.008 63.8396C831.387 59.1682 820.792 56.8299 810.089 57.0159C799.387 57.2019 788.881 59.9068 779.429 64.9096C769.978 69.9124 761.85 77.0709 755.711 85.8C753.323 89.1943 748.624 90.0192 745.214 87.6425C741.805 85.2658 740.976 80.5874 743.364 77.1931C750.868 66.5243 760.801 57.7749 772.353 51.6604C783.904 45.5459 796.746 42.2399 809.826 42.0126C822.907 41.7853 835.856 44.6432 847.615 50.3526C859.374 56.0621 869.609 64.461 877.482 74.8626C879.987 78.1719 879.323 82.8762 875.999 85.3699C872.674 87.8636 867.949 87.2025 865.444 83.8932C859.002 75.3828 850.628 68.511 841.008 63.8396Z"/>
  <path fill="#59BF40" fill-rule="evenodd" clip-rule="evenodd" d="M857.422 30.6375C842.454 23.3706 825.97 19.7331 809.318 20.0224C792.667 20.3117 776.32 24.5196 761.616 32.3021C746.911 40.0846 734.266 51.2206 724.713 64.7998C722.326 68.1943 717.625 69.0193 714.215 66.6424C710.805 64.2656 709.976 59.587 712.364 56.1925C723.281 40.6735 737.733 27.9465 754.538 19.0522C771.343 10.158 790.025 5.34893 809.055 5.01829C828.085 4.68765 846.924 8.84481 864.031 17.1499C881.138 25.4549 896.027 37.6721 907.482 52.8025C909.987 56.1119 909.323 60.8165 905.998 63.3103C902.673 65.8042 897.947 65.143 895.441 61.8335C885.419 48.5945 872.391 37.9044 857.422 30.6375Z"/>
  <path fill="white" d="M794 305H826V283H836V315H784V283H794V305ZM850 128C854.418 128 858 131.582 858 136V275H762V136C762 131.582 765.582 128 770 128H782.368C782.368 128.037 782.367 128.075 782.367 128.112C782.367 143.576 794.903 156.112 810.367 156.112C825.831 156.112 838.367 143.576 838.367 128.112C838.367 128.075 838.366 128.037 838.366 128H850Z"/>
  <circle fill="#59BF40" cx="810.367" cy="128.112" r="12"/>
  <path fill="#59BF40" d="M485 119.247C507.091 119.247 525 137.709 525 160.484C525 183.258 507.091 201.721 485 201.721C462.909 201.721 445 183.258 445 160.484C445 137.709 462.909 119.247 485 119.247ZM476.783 168.305L464.995 155.852L455.667 165.707L476.783 187.975L514.333 148.306L505.005 138.491L476.783 168.305Z"/>
  <path fill="#59BF40" d="M287 154.299C290.314 154.299 293 157.068 293 160.484C293 163.9 290.314 166.67 287 166.67C283.686 166.67 281 163.9 281 160.484C281 157.068 283.686 154.299 287 154.299ZM309 154.299C312.314 154.299 315 157.068 315 160.484C315 163.9 312.314 166.67 309 166.67C305.686 166.67 303 163.9 303 160.484C303 157.068 305.686 154.299 309 154.299ZM331 154.299C334.314 154.299 337 157.068 337 160.484C337 163.9 334.314 166.67 331 166.67C327.686 166.67 325 163.9 325 160.484C325 157.068 327.686 154.299 331 154.299ZM353 154.299C356.314 154.299 359 157.068 359 160.484C359 163.9 356.314 166.67 353 166.67C349.686 166.67 347 163.9 347 160.484C347 157.068 349.686 154.299 353 154.299ZM375 154.299C378.314 154.299 381 157.068 381 160.484C381 163.9 378.314 166.67 375 166.67C371.686 166.67 369 163.9 369 160.484C369 157.068 371.686 154.299 375 154.299ZM397 154.299C400.314 154.299 403 157.068 403 160.484C403 163.9 400.314 166.67 397 166.67C393.686 166.67 391 163.9 391 160.484C391 157.068 393.686 154.299 397 154.299ZM419 154.299C422.314 154.299 425 157.068 425 160.484C425 163.9 422.314 166.67 419 166.67C415.686 166.67 413 163.9 413 160.484C413 157.068 415.686 154.299 419 154.299ZM551 154.299C554.314 154.299 557 157.068 557 160.484C557 163.9 554.314 166.67 551 166.67C547.686 166.67 545 163.9 545 160.484C545 157.068 547.686 154.299 551 154.299ZM573 154.299C576.314 154.299 579 157.068 579 160.484C579 163.9 576.314 166.67 573 166.67C569.686 166.67 567 163.9 567 160.484C567 157.068 569.686 154.299 573 154.299ZM595 154.299C598.314 154.299 601 157.068 601 160.484C601 163.9 598.314 166.67 595 166.67C591.686 166.67 589 163.9 589 160.484C589 157.068 591.686 154.299 595 154.299ZM617 154.299C620.314 154.299 623 157.068 623 160.484C623 163.9 620.314 166.67 617 166.67C613.686 166.67 611 163.9 611 160.484C611 157.068 613.686 154.299 617 154.299ZM639 154.299C642.314 154.299 645 157.068 645 160.484C645 163.9 642.314 166.67 639 166.67C635.686 166.67 633 163.9 633 160.484C633 157.068 635.686 154.299 639 154.299ZM661 154.299C664.314 154.299 667 157.068 667 160.484C667 163.9 664.314 166.67 661 166.67C657.686 166.67 655 163.9 655 160.484C655 157.068 657.686 154.299 661 154.299ZM683 154.299C686.314 154.299 689 157.068 689 160.484C689 163.9 686.314 166.67 683 166.67C679.686 166.67 677 163.9 677 160.484C677 157.068 679.686 154.299 683 154.299ZM705 154.299C708.314 154.299 711 157.068 711 160.484C711 163.9 708.314 166.67 705 166.67C701.686 166.67 699 163.9 699 160.484C699 157.068 701.686 154.299 705 154.299ZM727 154.299C730.314 154.299 733 157.068 733 160.484C733 163.9 730.314 166.67 727 166.67C723.686 166.67 721 163.9 721 160.484C721 157.068 723.686 154.299 727 154.299Z"/>
</svg>
