<?xml version="1.0"?>
<svg xmlns="http://www.w3.org/2000/svg" width="1.5em" height="1.5em" viewBox="0 0 30 30" fill="none">
  <path d="M8.33203 9.16602H10.832V5.83301H28.333V24.166H10.832V20.833H8.33203V24.166H1.66602V17.5C3.04662 17.5 4.16584 16.3806 4.16602 15C4.16602 13.6193 3.04673 12.5 1.66602 12.5V5.83301H8.33203V9.16602ZM19.1602 13.125C18.9205 13.562 18.561 13.9215 18.124 14.1611L15.832 15.416L18.124 16.6719C18.5611 16.9115 18.9206 17.2709 19.1602 17.708L20.4229 20L21.6709 17.708H21.6914C21.9263 17.2744 22.2784 16.9156 22.707 16.6719L24.999 15.416L22.707 14.1611C22.268 13.9216 21.9056 13.5624 21.6631 13.125L20.415 10.833L19.1602 13.125ZM8.33203 19.166H10.832V15.833H8.33203V19.166ZM8.33203 14.166H10.832V10.833H8.33203V14.166Z" fill="currentColor"/>
</svg>
