<?xml version="1.0"?>
<svg xmlns="http://www.w3.org/2000/svg" fill="currentColor" viewBox="">
  <path d=""/>
  <path d="" fill="none" stroke="currentColor" stroke-width="8.8"/>
  <path d="M234.5585 297.855h17.6v17.6h-17.6z"/>
  <path d="M201.1585 315.455h83.6s17.6 0 17.6 17.6v13.2s0 17.6-17.6 17.6h-83.6s-17.6 0-17.6-17.6v-13.2s0-17.6 17.6-17.6m18.4602 17.207a4.2429 4.2429 0 108.4857 0 4.2429 4.2429 0 10-8.4857 0m19.0949 0a4.2429 4.2429 0 108.4857 0 4.2429 4.2429 0 10-8.4857 0m16.973 0a4.2429 4.2429 0 108.4857 0 4.2429 4.2429 0 10-8.4857 0" fill-rule="evenodd"/>
  <path d="M232.9977 382.855c.6156 2.298 1.9721 4.328 3.8588 5.776 1.887 1.448 4.199 2.232 6.578 2.232 2.378 0 4.69-.784 6.577-2.232 1.887-1.448 3.244-3.478 3.859-5.776m-34.2254 3.578c1.4032 5.237 4.495 9.864 8.7961 13.164 4.301 3.301 9.5713 5.09 14.9923 5.09s10.691-1.789 14.992-5.09c4.301-3.3 7.393-7.927 8.796-13.164m-59.663 3.239c2.1161 7.897 6.779 14.875 13.2654 19.853 6.4865 4.977 14.434 7.675 22.6096 7.675 8.176 0 16.124-2.698 22.61-7.675 6.487-4.978 11.15-11.956 13.266-19.853" fill="none" stroke="#1A9FFF" stroke-width="5.06467" stroke-linecap="round"/>
</svg>
