<?xml version="1.0"?>
<svg width="22" height="22" viewBox="0 0 22 22" fill="currentColor" xmlns="http://www.w3.org/2000/svg">
  <path d="M10.9998 0C4.92482 0 0 4.94301 0 11.0404C0 16.2179 3.55161 20.5625 8.34267 21.7558V14.4144H6.07452V11.0404H8.34267V9.58661C8.34267 5.82889 10.0371 4.08716 13.7128 4.08716C14.4097 4.08716 15.6122 4.2245 16.1041 4.3614V7.4196C15.8445 7.39221 15.3935 7.37853 14.8334 7.37853C13.0299 7.37853 12.333 8.06435 12.333 9.84716V11.0404H15.9259L15.3086 14.4144H12.333V22C17.7796 21.3398 22 16.6851 22 11.0404C21.9996 4.94301 17.0747 0 10.9998 0Z"/>
</svg>
