<?xml version="1.0"?>
<svg xmlns="http://www.w3.org/2000/svg" viewBox="0 0 36 36" fill="none">
  <path fill="currentColor" d="M14.0423 26.2973L11.2139 29.1258L15.4565 33.3684L18.2849 30.54L14.0423 26.2973Z"/>
  <path fill="currentColor" d="M17.215 5.44693L20.0435 2.61851L24.2861 6.86115L21.4577 9.68957L17.215 5.44693Z"/>
  <path fill="currentColor" d="M21.1041 2.97206L21.8112 2.26495L24.6397 5.09338L23.9326 5.80049L21.1041 2.97206Z"/>
  <path fill="currentColor" d="M11.5674 30.1864L10.8603 30.8935L13.6887 33.722L14.3959 33.0148L11.5674 30.1864Z"/>
  <path fill="currentColor" d="M9.34319 21.9592C10.1223 22.7383 11.3856 22.7383 12.1647 21.9592L22.8024 11.3215C24.4435 9.68038 27.1045 9.67989 28.7458 11.3208C30.3871 12.9621 30.3871 15.6237 28.7458 17.265L14.5761 31.4347L13.1618 30.0205L27.3316 15.8507C28.1918 14.9905 28.1918 13.5953 27.3316 12.735C26.4714 11.8752 25.0767 11.8756 24.2166 12.7357L13.5789 23.3734C12.0188 24.9335 9.48911 24.9335 7.92898 23.3734C6.36747 21.8119 6.37372 19.2787 7.93243 17.72L20.8316 4.82084L22.2458 6.23505L9.34665 19.1342C8.56617 19.9147 8.56555 21.1815 9.34319 21.9592Z"/>
</svg>
