<?xml version="1.0"?>
<svg width="98" height="34" viewBox="0 0 98 34" xmlns="http://www.w3.org/2000/svg" fill="#C30A14">
  <path d="M4.61077 4.15321H19.2526V6.65217H23.617V1.26708H14.6418C14.5362 1.0911 14.4658 0.950311 14.3251 0.809524C13.8675 0.31677 13.1284 0 11.7557 0C10.6646 0 9.85507 0.492754 9.46791 1.26708H0.281574V6.68737H4.61077V4.15321ZM75.6377 0.31677V13.6563H77.0807L76.7288 14.6066C76.6936 14.7474 76.4472 15.1346 76.2008 15.3106C75.9897 15.4865 75.4265 15.5921 74.9689 15.5921H74.4058V18.8654H74.6874C77.2215 18.8654 78.0663 18.9358 78.8054 18.3375C79.2629 17.9855 79.6501 17.5631 80.0021 17.1056V20.3789C80.0021 20.5549 79.8261 20.7309 79.6501 20.7309H56.2091C55.8923 20.7309 55.7516 20.5549 55.7164 20.2381V7.4265H57.6874V19.0062H67.8592C71.2733 19.0062 71.6957 17.3168 71.5901 14.8178V7.4265H73.3147V4.08282H71.6253V0.52795H67.7888V4.08282H61.5942V0.52795H57.6874V4.08282H55.7164V0.52795H51.8095V4.08282H50.8592V7.4265H51.8095V20.6253V21.3644C51.8447 23.3354 52.6542 23.9689 54.6253 23.9689H80.1077C83.1346 23.9689 83.7681 22.4907 83.6625 20.0621V15.029H81.058L81.5507 13.6563H90.7371C91.3354 14.8178 91.7226 15.5569 91.6874 15.4161C91.617 15.3106 91.6522 15.3458 91.7226 15.4513H90.7371V23.9337H94.3975V18.6542C94.8551 19.0062 95.207 19.0414 96.087 19.0414H97.8468V15.4865H96.6149C96.2981 15.4865 95.8406 14.7474 95.6646 14.501C95.6294 14.4658 95.4534 14.1843 95.1718 13.6563C95.5942 13.5859 95.9462 13.4099 96.1574 13.1988C96.8613 12.5652 97.0725 11.8965 97.0725 10.9462V0.31677H75.6377ZM61.559 7.4265H67.7184V15.1346C67.7184 15.3458 67.5424 15.4865 67.3665 15.4865H61.559V7.4265ZM84.4017 10.911H79.5093V8.37681H84.4017V10.911ZM84.4369 5.63147H79.5445V3.09731H84.4369V5.63147ZM93.2008 9.92547C93.2008 10.0663 93.0952 10.4534 92.9545 10.6294C92.7785 10.8054 92.7433 10.911 92.2857 10.911H88.0621V8.37681H93.2008V9.92547ZM93.236 5.63147H88.0973V3.09731H93.236V5.63147ZM23.1594 7.07453H0.63354V9.96066H23.1594V7.07453ZM40.441 17.7391H49.0642V15.0642H39.4203C39.4907 14.4658 39.5963 13.8323 39.6315 13.1988H49.0642V10.5238H39.6315V9.04555H49.0642V6.3354H39.6315V4.75155H49.0642V2.0766H46.7412L47.7267 0.351967H42.9752L41.9897 2.0766H32.8737L31.9586 0.351967H27.6646L28.5797 2.0766H26.0455V4.75155H35.0207C35.0207 5.2795 35.0207 5.80745 35.0207 6.3354H26.0807V9.01035H35.0559C35.0559 9.5383 35.0559 10.0311 35.0559 10.4886H26.0807V13.1636H35.0559C35.0559 13.6915 35.0207 14.0083 35.0207 14.0787C35.0207 14.3954 34.9503 14.7122 34.8799 15.029H26.0807V17.7039H33.648C32.6977 19.0766 30.6563 20.6957 24.5321 20.6957C23.3706 20.6957 21.0476 20.6957 18.6542 20.6957V14.7122H23.441V11.8261H0V14.7122H5.20911L0.0351967 23.7578H4.78675L9.96066 14.7474H14.3954V23.7578H24.4265C30.8323 23.7578 33.7536 22.913 36.1822 20.8012C36.6046 20.4493 36.9917 20.1325 37.3085 19.8157L43.0456 23.7578H50.8592V20.5901H44.6646L40.441 17.7391Z"/>
  <path d="M14.9234 29.2835C14.9234 29.2835 12.6004 29.2835 11.7909 29.2835C11.2629 29.2835 10.9462 29.4947 10.735 29.7059C10.8406 28.7204 11.5445 28.0517 12.4244 27.8405C12.8468 27.7349 13.234 27.6997 13.5859 27.6997C14.4658 27.6997 15.0994 27.9461 15.0994 27.9109C15.1698 27.9461 15.2402 27.9461 15.2754 27.9109C15.3106 27.8757 15.3458 27.8405 15.3458 27.7701V26.6438C15.3458 26.5382 15.2402 26.3974 15.0994 26.3622C15.0994 26.3622 14.2195 26.151 13.058 26.151C12.5652 26.151 12.0021 26.1862 11.4741 26.2918C9.96066 26.6086 8.37681 27.6645 8.30642 29.7411C8.30642 30.1635 8.34162 30.5506 8.41201 30.9026C8.76398 32.4864 10.1015 33.296 11.3333 33.5775C11.8261 33.6831 12.354 33.7183 12.8468 33.7183C14.1491 33.7183 15.2754 33.472 15.2754 33.472C15.3458 33.4368 15.4162 33.4016 15.4162 33.296V32.2753C15.4162 32.2049 15.381 32.0993 15.3106 32.0641C15.2754 32.0289 15.205 32.0289 15.1346 32.0289C15.1346 32.0289 14.2195 32.2753 13.234 32.2753C12.8116 32.2753 12.3892 32.2401 12.0373 32.0993C11.3333 31.8529 10.9814 31.3954 10.8054 30.797H15.0642C15.1698 30.797 15.2402 30.7266 15.2402 30.621V29.5651C15.2402 29.4947 15.205 29.4243 15.1346 29.3539C15.0642 29.3187 14.9938 29.2835 14.9234 29.2835ZM23.4058 28.9668C23.4058 28.6852 23.3706 28.4036 23.3002 28.1221C23.089 27.1366 22.2795 26.3974 20.9068 26.2214C20.3085 26.151 19.5694 26.1158 18.8654 26.1158C17.6335 26.1158 16.5072 26.1862 16.5072 26.1862C16.4017 26.1862 16.3313 26.2566 16.3313 26.3622V33.472C16.3313 33.5423 16.3665 33.6127 16.4017 33.6831C16.4721 33.7535 16.5424 33.7535 16.6128 33.7535H18.2671C18.3727 33.7535 18.4431 33.6831 18.4431 33.5775C18.4431 33.5775 18.4431 28.6852 18.4431 27.5941C18.7598 27.5589 19.0414 27.5589 19.2878 27.5589C19.8861 27.5589 20.3085 27.6293 20.5901 27.7701C20.8364 27.9109 20.9772 28.0517 21.0476 28.3684C21.0828 28.5092 21.0828 28.65 21.0828 28.826C21.0476 29.9875 20.6605 30.2691 19.1118 30.3043C19.0062 30.3043 18.9358 30.3746 18.9358 30.4802C18.9358 31.0434 18.9358 31.2546 18.9358 31.2546C18.9358 31.325 18.971 31.3954 19.0062 31.4657C19.0766 31.5361 19.147 31.5713 19.2174 31.5713C19.2174 31.5713 19.3582 31.5713 19.5694 31.5713H19.6046C20.4141 31.6417 20.8012 32.2753 21.0124 33.0496C21.0476 33.1904 21.0828 33.3664 21.0828 33.5072C21.0828 33.5775 21.118 33.6479 21.1884 33.6831C21.2588 33.7183 21.3292 33.7535 21.3644 33.7535H23.3002C23.4058 33.7535 23.5114 33.6479 23.4762 33.5424C23.4762 33.472 23.441 33.3664 23.441 33.296C23.265 32.5568 22.8427 31.6769 22.2091 31.1138C22.9834 30.6914 23.4058 29.8819 23.4058 28.9668ZM7.91926 28.1573C7.70808 27.1366 6.82816 26.3622 5.45549 26.2214C4.85715 26.151 4.04762 26.1158 3.2733 26.1158C1.90062 26.1158 0.598347 26.1862 0.598347 26.1862C0.492757 26.1862 0.422363 26.2566 0.422363 26.3622V33.472C0.422363 33.5423 0.45756 33.6127 0.492757 33.6831C0.56315 33.7535 0.633543 33.7535 0.703937 33.7535H2.56936C2.67495 33.7535 2.74534 33.6831 2.74534 33.5775C2.74534 33.5775 2.74534 32.6272 2.74534 31.5009C2.78054 31.5361 2.85093 31.5713 2.88613 31.5713C2.88613 31.5713 3.41408 31.6065 4.08282 31.6065C4.61077 31.6065 5.20911 31.5713 5.73706 31.5009C7.14493 31.2546 8.02485 30.2691 8.02485 28.9668C8.02485 28.6852 7.98965 28.4388 7.91926 28.1573ZM5.56108 28.826C5.56108 29.4243 5.3851 29.7059 4.99793 29.9171C4.57557 30.1283 3.87164 30.1987 2.81574 30.1987C2.78054 30.1987 2.78054 30.1987 2.74534 30.1987C2.74534 29.0724 2.74534 28.0165 2.74534 27.5589C3.06211 27.5237 3.34369 27.5237 3.59007 27.5237C4.22361 27.5237 4.71636 27.5941 4.99793 27.7701C5.27951 27.9109 5.42029 28.0869 5.52588 28.4036C5.52588 28.5796 5.56108 28.6852 5.56108 28.826ZM45.5797 26.3622C45.5797 26.3622 44.6998 26.151 43.5383 26.151C43.0456 26.151 42.4824 26.1862 41.9545 26.327C40.441 26.6438 38.8571 27.6997 38.7868 29.7763C38.7868 30.1987 38.822 30.5858 38.8923 30.9378C39.2443 32.5216 40.5818 33.3312 41.8137 33.6127C42.3064 33.7183 42.7992 33.7535 43.3271 33.7535C44.5942 33.7535 45.7557 33.5072 45.7557 33.5072C45.8261 33.472 45.8965 33.4368 45.8965 33.3312V32.3457C45.8965 32.2753 45.8613 32.1697 45.7909 32.1345C45.7205 32.0641 45.6501 32.0641 45.5445 32.0641C45.5445 32.0641 44.6294 32.3105 43.6439 32.2753C43.2215 32.2753 42.7992 32.2401 42.4472 32.0993C41.6729 31.8177 41.3209 31.3953 41.1449 30.6914C41.0745 30.445 41.0745 30.1987 41.0745 29.9171C41.0745 28.826 41.9193 28.0869 42.8344 27.8757C43.2567 27.7701 43.6439 27.7349 43.9959 27.7349C44.8758 27.7349 45.5093 27.9813 45.5093 27.9461C45.5797 27.9813 45.6501 27.9813 45.6853 27.9461C45.7205 27.9109 45.7557 27.8757 45.7557 27.8053V26.679C45.8261 26.5382 45.7205 26.3974 45.5797 26.3622ZM53.5694 26.3974C53.499 26.327 53.4286 26.2918 53.3582 26.2918H46.3892C46.2836 26.2918 46.2133 26.3622 46.2133 26.4678V27.5589C46.2133 27.6293 46.2485 27.6997 46.3188 27.7701C46.3892 27.8405 46.4596 27.8757 46.53 27.8757H48.7826V33.472C48.7826 33.5423 48.8178 33.6127 48.8882 33.6831C48.9586 33.7535 49.029 33.7535 49.0994 33.7535H51C51.1056 33.7535 51.176 33.6831 51.176 33.5775V27.8757H53.5342C53.6398 27.8757 53.7102 27.8053 53.7102 27.6997V26.6086C53.675 26.503 53.6398 26.4326 53.5694 26.3974ZM30.6915 29.2835C30.6915 29.2835 28.2981 29.2835 27.4886 29.2835C26.9607 29.2835 26.6439 29.4947 26.4327 29.7059C26.5031 28.474 27.3126 27.5941 28.5797 27.5941H31.1491C31.2547 27.5941 31.3251 27.5237 31.3251 27.4181V26.4326C31.3251 26.3622 31.2899 26.2918 31.2195 26.2214C31.1491 26.151 31.0787 26.1158 31.0083 26.1158H27.383C25.3768 26.1158 24.0041 27.7701 24.0041 29.6707C24.0041 30.9378 24.0041 33.4368 24.0041 33.4368C24.0041 33.5072 24.0393 33.5775 24.1097 33.6479C24.1801 33.7183 24.2505 33.7183 24.3209 33.7183H26.2567C26.3623 33.7183 26.4327 33.6479 26.4327 33.5424C26.4327 31.7825 26.4327 31.1138 26.4327 30.7618H30.8323C30.9379 30.7618 31.0083 30.6914 31.0083 30.5858V29.5299C31.0083 29.4595 30.9731 29.3891 30.9027 29.3187C30.8323 29.3187 30.7619 29.2835 30.6915 29.2835ZM35.4783 27.8757C35.9006 27.7701 36.2878 27.7349 36.6398 27.7349C37.5197 27.7349 38.1532 27.9813 38.1532 27.9461C38.2236 27.9813 38.294 27.9813 38.3292 27.9461C38.3644 27.9109 38.3996 27.8757 38.3996 27.8053V26.679C38.3996 26.5734 38.294 26.4326 38.1532 26.3974C38.1532 26.3974 37.2733 26.1862 36.1118 26.1862C35.6191 26.1862 35.0559 26.2214 34.528 26.327C33.0145 26.6438 31.4306 27.6997 31.3603 29.7763C31.3603 30.1987 31.3955 30.5858 31.4658 30.973C31.8178 32.5568 33.1553 33.3664 34.3872 33.6479C34.8799 33.7535 35.4079 33.7887 35.9006 33.7887C37.2029 33.7887 38.3292 33.5424 38.3292 33.5424C38.3996 33.5072 38.47 33.472 38.47 33.3664V32.3809C38.47 32.3105 38.4348 32.2049 38.3644 32.1697C38.294 32.0993 38.2236 32.0993 38.118 32.0993C38.118 32.0993 37.2029 32.3457 36.2174 32.3457C35.795 32.3457 35.3375 32.3105 35.0207 32.1697C34.3168 31.9233 33.9296 31.4657 33.7184 30.8674H38.0124C38.118 30.8674 38.1884 30.797 38.1884 30.6914V29.6355C38.1884 29.5651 38.1532 29.4947 38.0828 29.4243C38.0124 29.3539 37.942 29.3539 37.8716 29.3539H34.6687C34.1408 29.3539 33.824 29.5651 33.6128 29.7763C33.8944 28.7556 34.6335 28.0869 35.4783 27.8757Z"/>
  <path d="M75.7433 29.1779C75.3913 27.594 74.1242 26.7845 73.0683 26.5381C72.646 26.4325 72.2588 26.3973 71.8364 26.3973C71.4141 26.3973 71.0269 26.4325 70.6046 26.5381C69.3375 26.8549 67.8944 27.8756 67.8944 30.1282C67.8944 30.5857 67.9296 31.0081 68.0352 31.3601C68.352 32.8031 69.4079 33.5423 70.4286 33.8238C70.9213 33.9646 71.4141 34.035 71.9068 34.035C72.3644 34.035 72.8219 33.9646 73.2795 33.859C74.6522 33.5071 75.8841 32.3104 75.8841 30.269C75.8489 29.8466 75.8137 29.4946 75.7433 29.1779ZM73.4907 30.093C73.4907 31.7824 72.5404 32.5568 71.766 32.5216C71.2029 32.5216 70.5694 32.1344 70.323 31.0785C70.2526 30.8321 70.2174 30.5154 70.2174 30.1634C70.2526 28.6147 71.0621 27.8756 71.9068 27.8756C72.5756 27.8756 73.1387 28.298 73.3851 29.2483C73.4555 29.4946 73.4907 29.7762 73.4907 30.093ZM67.1201 26.6085C67.0497 26.5381 66.9793 26.5381 66.9089 26.5381H65.1491C65.0435 26.5381 64.9379 26.6085 64.9379 26.7141C64.9379 26.7141 64.9379 30.7969 64.9379 31.6768C64.9027 32.1696 64.7267 32.3808 64.1636 32.416C63.6356 32.3808 63.6004 32.3456 63.4948 32.064C63.4948 31.9936 63.4948 31.888 63.4948 31.8176V26.8197C63.4948 26.7493 63.4596 26.6789 63.4244 26.6085C63.354 26.5381 63.2837 26.5381 63.2133 26.5381H61.4886C61.383 26.5381 61.2774 26.6085 61.2774 26.7141V31.8176C61.207 32.24 60.9959 32.3808 60.4679 32.3808C59.9752 32.3456 59.94 32.2752 59.8344 31.9936C59.8344 31.9232 59.8344 31.8528 59.8344 31.7472C59.8344 30.8673 59.8344 26.7845 59.8344 26.7845C59.8344 26.7141 59.7992 26.6437 59.764 26.5733C59.6936 26.5029 59.6232 26.5029 59.5528 26.5029H57.793C57.6874 26.5029 57.5818 26.5733 57.5818 26.6789C57.5818 26.6789 57.5818 29.5298 57.5818 30.9025C57.5818 31.2193 57.5818 31.5361 57.6522 31.8176C57.793 32.3456 58.0393 32.8735 58.5673 33.2607C59.06 33.6479 59.7288 33.8238 60.6087 33.8238C61.383 33.8238 61.9462 33.7534 62.4037 33.6127C62.8613 33.7534 63.4244 33.8238 64.1988 33.8238H64.234C66.4514 33.8238 67.1553 32.4512 67.1553 31.0081C67.1553 29.6354 67.1553 26.7845 67.1553 26.7845C67.2257 26.7493 67.1905 26.6789 67.1201 26.6085ZM89.4348 32.2752C89.0124 32.3456 88.6253 32.416 88.3085 32.416C87.3582 32.3808 86.9358 32.1344 86.7598 31.4657C86.7246 31.3249 86.7246 31.1489 86.7246 30.9377C86.7246 30.0578 86.7246 26.7141 86.7246 26.7141C86.7246 26.6437 86.6894 26.5733 86.6542 26.5029C86.5839 26.4325 86.5135 26.3973 86.4431 26.3973H84.5424C84.4369 26.3973 84.3313 26.4677 84.3313 26.5733C84.3313 26.5733 84.3313 29.565 84.3313 30.9377C84.3313 31.2193 84.3313 31.5009 84.4017 31.7824C84.5424 32.3456 84.824 32.8735 85.352 33.2607C85.8799 33.6479 86.6191 33.859 87.5694 33.859C88.4845 33.859 89.0828 33.7534 89.5756 33.6127C89.646 33.5775 89.7164 33.5423 89.7164 33.4367V32.4864C89.7164 32.416 89.6812 32.3456 89.6108 32.2752C89.5756 32.3104 89.5052 32.2752 89.4348 32.2752ZM81.0932 26.5381C80.4948 26.4677 79.7557 26.4325 79.0518 26.4325C77.8199 26.4325 76.6936 26.5029 76.6936 26.5029C76.588 26.5029 76.5176 26.5733 76.5176 26.6789V33.6479C76.5176 33.7183 76.5176 33.7886 76.588 33.859C76.6584 33.9294 76.7288 33.9294 76.7992 33.9294H78.4534C78.559 33.9294 78.6646 33.859 78.6646 33.7534C78.6646 33.7534 78.6646 28.9667 78.6646 27.9108C78.9814 27.8756 79.2629 27.8756 79.5445 27.8756C80.1429 27.8756 80.5652 27.946 80.8468 28.0868C81.0932 28.2276 81.234 28.3684 81.3044 28.6851C81.3395 28.8259 81.3396 28.9667 81.3396 29.1427C81.3044 30.3042 80.882 30.5505 79.3685 30.5857C79.2629 30.5857 79.1926 30.6561 79.1926 30.7617C79.1926 31.3249 79.1926 31.5361 79.1926 31.5361C79.1926 31.6064 79.2277 31.6768 79.2629 31.712C79.3333 31.7824 79.4037 31.7824 79.4741 31.8176C79.4741 31.8176 79.6149 31.8176 79.8261 31.8176C79.8613 31.8176 79.8965 31.8176 79.9669 31.8176C80.7412 31.888 81.058 32.4512 81.234 33.1551C81.2692 33.3311 81.3044 33.5423 81.3044 33.7183C81.3044 33.7886 81.3395 33.859 81.4099 33.8942C81.4803 33.9294 81.5507 33.9646 81.5859 33.9646H83.5217C83.6273 33.9646 83.7329 33.859 83.6977 33.7534C83.6977 33.6831 83.6625 33.5775 83.6625 33.5071C83.4865 32.8031 83.0642 31.9232 82.4306 31.3601C83.205 30.9377 83.5921 30.1634 83.6273 29.2483C83.6273 28.9667 83.5921 28.6851 83.5569 28.4035C83.2754 27.4532 82.4306 26.6789 81.0932 26.5381ZM94.6087 26.5733C93.94 26.4677 92.9193 26.4325 92.0745 26.4325C91.1946 26.4325 90.4555 26.4677 90.4555 26.4677C90.3499 26.4677 90.2795 26.5381 90.2795 26.6437V26.8901V27.8404V33.5775C90.2795 33.6479 90.2795 33.7183 90.3499 33.7886C90.4203 33.859 90.4907 33.859 90.5611 33.859H92.3209C92.4265 33.859 92.4969 33.7886 92.4969 33.6831C92.4969 33.7183 92.5321 33.7534 92.5673 33.7886C92.6377 33.859 92.7081 33.8942 92.7785 33.8942C92.7785 33.8942 92.8841 33.8942 93.06 33.8942C93.588 33.8942 94.6439 33.859 95.3478 33.6831C96.8261 33.2959 97.882 32.24 97.8468 30.0578C97.8468 29.7058 97.8116 29.3891 97.7412 29.1075C97.2836 27.418 95.8406 26.7493 94.6087 26.5733ZM95.383 29.917C95.383 31.4305 94.7847 32.3808 92.6025 32.4864C92.5321 32.4864 92.4969 32.5216 92.4617 32.592V27.946C92.6377 27.946 92.8137 27.946 92.9545 27.946C94.4679 27.9812 95.1014 28.4036 95.3126 29.3187C95.3478 29.4946 95.383 29.6706 95.383 29.917Z"/>
</svg>
