<?xml version="1.0"?>
<svg xmlns="http://www.w3.org/2000/svg" viewBox="0 0 32 18" fill="none">
  <path fill="currentColor" d="M19.8679 11.355C19.6894 11.7738 19.7809 12.2578 20.099 12.5839L25.068 17.6554C25.2834 17.8742 25.5792 17.999 25.8884 17.999C26.1964 17.999 26.4922 17.8742 26.7087 17.6554L31.6778 12.5839C31.9959 12.259 32.0896 11.7738 31.9088 11.355C31.7336 10.9361 31.3173 10.6643 30.8585 10.6643H27.0324V1.13691C27.0324 0.51142 26.5212 0.00526203 25.8895 0.00526203C25.2578 0.00526203 24.7466 0.51142 24.7466 1.13691V10.6643H20.9204C20.4617 10.6643 20.0465 10.9361 19.8679 11.355Z"/>
  <path fill="currentColor" d="M1.1429 10.1316H15.1635C15.7952 10.1316 16.3064 9.62549 16.3064 9C16.3064 8.37451 15.7952 7.86835 15.1635 7.86835H1.1429C0.511192 7.86835 0 8.37451 0 9C0 9.62549 0.511192 10.1316 1.1429 10.1316Z"/>
  <path fill="currentColor" d="M1.1429 18H11.1322C11.7639 18 12.2751 17.4938 12.2751 16.8684C12.2751 16.2429 11.7639 15.7367 11.1322 15.7367H1.1429C0.511192 15.7367 0 16.2429 0 16.8684C0 17.4938 0.511192 18 1.1429 18Z"/>
  <path fill="currentColor" d="M1.1429 2.2633H19.1939C19.8256 2.2633 20.3368 1.75714 20.3368 1.13165C20.3368 0.506158 19.8256 0 19.1939 0H1.1429C0.511192 0 0 0.506158 0 1.13165C0 1.75714 0.511192 2.2633 1.1429 2.2633Z"/>
</svg>
