<?xml version="1.0"?>
<svg xmlns="http://www.w3.org/2000/svg" width="180" height="180" viewBox="0 0 256 256" fill="none">
  <path fill="#8B929A" d="M111.369 72.8886C109.171 76.1776 107.998 80.0444 107.998 84C107.992 86.6281 108.506 89.2314 109.509 91.6606C110.512 94.0898 111.985 96.2969 113.843 98.1552C115.701 100.014 117.909 101.487 120.338 102.49C122.767 103.493 125.37 104.006 127.998 104C131.954 104 135.821 102.827 139.11 100.629C142.399 98.4318 144.962 95.3082 146.476 91.6537C147.99 87.9992 148.386 83.9778 147.614 80.0982C146.842 76.2186 144.937 72.6549 142.14 69.8579C139.343 67.0608 135.78 65.156 131.9 64.3843C128.02 63.6126 123.999 64.0087 120.345 65.5224C116.69 67.0362 113.566 69.5996 111.369 72.8886Z"/>
  <path fill="#8B929A" d="M102.857 127.747C109.525 121.079 118.568 117.333 127.998 117.333C137.428 117.333 146.472 121.079 153.14 127.747C159.808 134.415 163.554 143.459 163.554 152.889V170.667H149.332L145.776 206.222H110.22L106.665 170.667H92.4427V152.889C92.4427 143.459 96.1887 134.415 102.857 127.747Z"/>
  <path fill="#8B929A" fill-rule="evenodd" clip-rule="evenodd" d="M127.998 0L248.887 49.7789V206.222L127.998 256L7.10938 206.222V49.7789L127.998 0ZM28.4427 197.438V69.4379L127.998 28.4444L227.554 69.4379V197.438L175.011 175.802L171.898 197.592L192.857 206.222L127.998 232.929L63.1392 206.222L84.0987 197.592L80.9859 175.802L28.4427 197.438Z"/>
</svg>
