<?xml version="1.0"?>
<svg xmlns="http://www.w3.org/2000/svg" version="1.1" viewBox="0 0 1200 1200">
  <path d="M531.1,737.1v-443.7h-208.1v537.6s0,75.6,0,75.6h554.1v-155.4h-331.9c-7.7,0-14.1-6.3-14.1-14.1ZM464.3,382.7c0-7.7,6.3-14.1,14.1-14.1s14.1,6.3,14.1,14.1v112.5c0,7.7-6.3,14.1-14.1,14.1s-14.1-6.3-14.1-14.1v-112.5ZM404.5,382.7c0-7.7,6.3-14.1,14.1-14.1s14.1,6.3,14.1,14.1v112.5c0,7.7-6.3,14.1-14.1,14.1s-14.1-6.3-14.1-14.1v-112.5Z"/>
  <path d="M559.2,109.9v613.1h554.1V109.9h-554.1ZM760.3,199.2c0-7.7,6.3-14.1,14.1-14.1s14.1,6.3,14.1,14.1v112.5c0,7.7-6.3,14.1-14.1,14.1s-14.1-6.3-14.1-14.1v-112.5ZM700.5,199.2c0-7.7,6.3-14.1,14.1-14.1s14.1,6.3,14.1,14.1v112.5c0,7.7-6.3,14.1-14.1,14.1s-14.1-6.3-14.1-14.1v-112.5ZM640.8,199.2c0-7.7,6.3-14.1,14.1-14.1s14.1,6.3,14.1,14.1v112.5c0,7.7-6.3,14.1-14.1,14.1s-14.1-6.3-14.1-14.1v-112.5Z"/>
  <path d="M294.8,920.6v-443.7H86.7v539.1s0,74.1,0,74.1h554.1v-155.4h-331.9c-7.7,0-14.1-6.3-14.1-14.1ZM168.3,566.2c0-7.7,6.3-14.1,14.1-14.1s14.1,6.3,14.1,14.1v112.5c0,7.7-6.3,14.1-14.1,14.1s-14.1-6.3-14.1-14.1v-112.5Z"/>
</svg>
