<?xml version="1.0"?>
<svg xmlns="http://www.w3.org/2000/svg" version="1.1" viewBox="0 0 1200 1200">
  <path d="M117.2,140c-19.1,0-34.5,15.4-34.5,34.5s15.4,34.5,34.5,34.5h110l118.6,559.5c4.7,21.1,18.5,38.6,35.9,38.5h575c18.2.3,35-16.3,35-34.5s-16.8-34.8-35-34.5H409.7l-14.7-69h607.7c15.4-.1,30-11.9,33.4-27l80.5-345c4.5-20-12.9-41.9-33.4-42H307.7l-18.7-87.7c-3.3-15.3-18.1-27.3-33.8-27.3H117.2ZM322,324h209.2v103.5h-187.2l-21.9-103.5ZM600.2,324h161v103.5h-161v-103.5ZM830.2,324h209.5l-24.1,103.5h-185.4v-103.5ZM358.7,496.5h172.5v103.5h-150.6l-21.9-103.5ZM600.2,496.5h161v103.5h-161v-103.5ZM830.2,496.5h169.3l-24.1,103.5h-145.2v-103.5ZM496.7,830c-63.1,0-115,51.9-115,115s51.9,115,115,115,115-51.9,115-115-51.9-115-115-115ZM841.7,830c-63.1,0-115,51.9-115,115s51.9,115,115,115,115-51.9,115-115-51.9-115-115-115ZM496.7,899c25.8,0,46,20.2,46,46s-20.2,46-46,46-46-20.2-46-46,20.2-46,46-46ZM841.7,899c25.8,0,46,20.2,46,46s-20.2,46-46,46-46-20.2-46-46,20.2-46,46-46Z"/>
</svg>
