<?xml version="1.0"?>
<svg width="30" height="22" viewBox="0 0 30 22" fill="currentColor" xmlns="http://www.w3.org/2000/svg">
  <path d="M11.9318 6.84835V15.7121L19.7727 11.2801L11.9318 6.84835ZM29.3731 18.5011C29.028 19.7918 28.0114 20.8083 26.7208 21.1533C24.3813 21.7803 14.9999 21.7803 14.9999 21.7803C14.9999 21.7803 5.61873 21.7803 3.27924 21.1533C1.98856 20.8083 0.971973 19.7918 0.626931 18.5011C0 16.1616 0 11.2802 0 11.2802C0 11.2802 0 6.3991 0.626931 4.05945C0.971973 2.76859 1.98843 1.7522 3.27924 1.40697C5.61873 0.780272 14.9999 0.780273 14.9999 0.780273C14.9999 0.780273 24.3813 0.780272 26.7208 1.40697C28.0114 1.7522 29.028 2.76859 29.3731 4.05945C30 6.3991 30 11.2803 30 11.2803C30 11.2803 30 16.1616 29.3731 18.5011Z"/>
</svg>
