<?xml version="1.0"?>
<svg xmlns="http://www.w3.org/2000/svg" viewBox="0 0 36 36" fill="none">
  <g clip-path="">
    <path fill="currentColor" d="M35.2293 0C35.6552 0.000164506 36 0.345701 36 0.771594V35.2293C35.9998 35.655 35.655 35.9998 35.2293 36H0.771594C0.345743 36 0.000232272 35.6551 0 35.2293V0.771594C0 0.3456 0.3456 0 0.771594 0H35.2293ZM18.2267 7.30169C12.1922 7.30187 7.30008 12.1939 7.29992 18.2285C7.29992 24.2631 12.1921 29.1551 18.2267 29.1552C24.2615 29.1552 29.1534 24.2632 29.1534 18.2285C29.1533 12.1939 24.2614 7.30169 18.2267 7.30169Z"/>
    <path fill="#199FFF" d="M26.2788 18.2288C26.2787 13.7823 22.6734 10.1777 18.2268 10.1777C13.7804 10.1778 10.176 13.7824 10.1758 18.2288C10.1758 22.5363 13.5586 26.0544 17.8127 26.2701L18.2268 26.2807C22.5347 26.2807 26.0527 22.8973 26.2681 18.643L26.2788 18.2288Z"/>
  </g>
  <defs>
    <clipPath id="">
      <rect fill="currentColor" width="36" height="36"/>
    </clipPath>
  </defs>
</svg>
