<?xml version="1.0"?>
<svg xmlns="http://www.w3.org/2000/svg" viewBox="0 0 315 221" fill="none">
  <path fill="currentColor" d="M147.501 55.479L147.203 51.644L153.709 54.4552L151.276 57.0934L147.501 55.479Z"/>
  <path fill="currentColor" d="M161.051 45.5972C163.23 45.5972 165 47.4359 165 49.7013C165 51.9666 163.23 53.8055 161.051 53.8055H160.962L157.399 56.4473V56.5892C157.399 58.2861 156.072 59.6739 154.431 59.6739C153 59.6739 151.794 58.6124 151.528 57.1998L147.515 55.4781L152.774 54.0482C153.249 53.7055 153.829 53.5135 154.44 53.5135H154.609L157.102 49.7513V49.7013C157.102 47.436 158.871 45.5972 161.051 45.5972ZM155.296 54.4486C154.749 54.2146 154.169 54.2229 153.655 54.4235L154.982 54.9925C155.819 55.3521 156.212 56.3464 155.867 57.2155C155.521 58.0847 154.556 58.4949 153.728 58.1357H153.719L152.433 57.5834C152.658 58.0766 153.051 58.4864 153.583 58.7204C154.717 59.2136 156.02 58.6535 156.494 57.475C156.719 56.9066 156.727 56.2791 156.494 55.7023C156.269 55.1341 155.843 54.6826 155.296 54.4486ZM161.058 46.9677C159.61 46.9677 158.428 48.1959 158.428 49.7004C158.428 51.205 159.61 52.434 161.058 52.434C162.505 52.434 163.688 51.205 163.688 49.7004C163.688 48.1959 162.505 46.9678 161.058 46.9677ZM161.058 47.6358C162.151 47.6359 163.036 48.5554 163.037 49.692C163.037 50.8289 162.151 51.7491 161.058 51.7492C159.964 51.7492 159.08 50.8289 159.08 49.692C159.08 48.5554 159.964 47.6358 161.058 47.6358Z"/>
  <path fill="currentColor" d="M226.742 4.16121C229.151 -0.999394 239.989 -0.482719 250.311 1.06551C260.632 2.61378 267.685 6.39842 271.642 9.83895C274.807 12.5914 276.401 18.5547 276.803 21.1925C280.759 24.2889 285.231 31.8577 287.296 35.9864C288.947 39.2894 301.746 87.1361 307.939 110.646C310.864 122.688 316.231 152.552 314.305 175.673C311.896 204.572 297.447 211.97 295.382 214.207C293.318 216.443 278.35 222.637 268.545 220.057C258.74 217.476 254.955 209.391 252.891 204.746C250.826 200.101 245.321 190.468 239.645 185.995C235.103 182.417 229.266 181.637 226.915 181.694H89.2925C86.678 181.694 83.7307 182.152 82.5835 182.382C73.6381 184.274 65.8959 194.424 61.5952 204.401C57.2945 214.379 51.9621 222.465 35.4477 220.057C18.9331 217.648 12.0517 209.391 6.03079 198.381C0.00984716 187.371 0.354326 164.319 0.0102782 154.342C-0.264966 146.36 5.05639 118.33 7.75149 105.313L21.5132 54.9103C22.3733 51.4697 24.6785 43.0055 27.0181 36.6749C29.3576 30.3444 35.2181 23.4866 37.8559 20.8487C37.4431 18.7844 39.5184 14.7123 40.6079 12.9347C44.3925 6.22575 55.0583 3.30111 59.187 1.92488C63.3157 0.548663 79.1428 -0.48274 83.7876 1.06551C87.5028 2.30415 88.5465 5.70958 88.604 7.25789L152.427 5.71004L216.249 6.74227L225.883 7.08602L226.742 4.16121ZM81.4761 97.7921C74.5514 96.5764 67.9526 101.204 66.7368 108.129L59.6577 148.449C58.4421 155.374 63.07 161.973 69.9946 163.188L111.985 170.561C118.91 171.776 125.51 167.148 126.726 160.224L133.805 119.903C135.02 112.979 130.392 106.38 123.468 105.164L81.4761 97.7921ZM247.417 108.129C246.201 101.204 239.602 96.5766 232.678 97.7921L190.687 105.164C183.762 106.38 179.134 112.979 180.35 119.903L187.429 160.224C188.644 167.148 195.243 171.776 202.168 170.561L244.159 163.188C251.084 161.973 255.712 155.374 254.496 148.449L247.417 108.129ZM110.764 58.0528C100.217 58.0529 91.6667 66.6029 91.6665 77.1495C91.6665 87.6963 100.217 96.2461 110.764 96.2462C121.31 96.2462 129.86 87.6963 129.86 77.1495C129.86 66.6029 121.31 58.0528 110.764 58.0528ZM202.426 58.0528C191.879 58.0528 183.329 66.6029 183.329 77.1495C183.329 87.6963 191.879 96.2462 202.426 96.2462C212.972 96.246 221.522 87.6962 221.522 77.1495C221.522 66.603 212.972 58.0531 202.426 58.0528ZM254.434 60.2091C248.828 60.2091 244.283 64.753 244.283 70.3585C244.283 75.9639 248.828 80.5079 254.434 80.5079C260.039 80.5077 264.583 75.9638 264.583 70.3585C264.583 64.7532 260.039 60.2093 254.434 60.2091ZM59.9165 27.8663C58.0115 27.8664 54.4622 28.647 52.5561 29.1017C51.7946 29.2835 51.2671 29.9671 51.2671 30.7501V41.629C51.2668 42.5788 50.4971 43.3485 49.5474 43.3487H38.6958C37.9787 43.3488 37.3389 43.7936 37.1333 44.4806C36.6754 46.0106 35.9555 48.9006 35.9556 51.9503C35.9556 54.9999 36.6754 57.8899 37.1333 59.42C37.3389 60.107 37.9787 60.5518 38.6958 60.5519H49.5474C50.4973 60.552 51.2671 61.3226 51.2671 62.2726V73.131C51.2671 73.8431 51.705 74.4804 52.3833 74.6974C53.9695 75.2045 57.0021 76.0342 59.8686 76.0343C62.7349 76.0342 65.7669 75.2045 67.353 74.6974C68.0314 74.4804 68.4692 73.8432 68.4692 73.131V62.2726C68.4692 61.3225 69.2398 60.5519 70.1899 60.5519H81.0571C81.7651 60.5518 82.3984 60.1183 82.6059 59.4415C83.064 57.9464 83.7788 55.1069 83.7788 51.9503C83.7788 48.7939 83.064 45.9552 82.6059 44.4601C82.3985 43.783 81.7652 43.3488 81.0571 43.3487H70.1899C69.24 43.3487 68.4695 42.5789 68.4692 41.629V30.7442C68.4692 29.9638 67.9455 29.2823 67.187 29.0987C65.306 28.6436 61.817 27.8664 59.9165 27.8663ZM157.064 40.9405C150.889 40.9405 145.883 45.9476 145.883 52.1231C145.883 58.2985 150.889 63.3048 157.064 63.3048C163.24 63.3048 168.246 58.2985 168.246 52.1231C168.246 45.9476 163.24 40.9405 157.064 40.9405ZM235.853 41.629C230.247 41.6292 225.703 46.1731 225.703 51.7784C225.703 57.3838 230.247 61.9277 235.853 61.9278C241.458 61.9278 246.003 57.3839 246.003 51.7784C246.003 46.173 241.458 41.629 235.853 41.629ZM272.667 41.629C267.062 41.629 262.518 46.173 262.518 51.7784C262.518 57.3839 267.062 61.9278 272.667 61.9278C278.272 61.9277 282.816 57.3838 282.816 51.7784C282.816 46.1731 278.272 41.6291 272.667 41.629ZM254.087 23.7384C248.481 23.7384 243.937 28.2833 243.937 33.8888C243.937 39.4941 248.482 44.0382 254.087 44.0382C259.692 44.0379 264.236 39.4939 264.236 33.8888C264.236 28.2834 259.692 23.7386 254.087 23.7384Z"/>
</svg>
