<?xml version="1.0"?>
<svg xmlns="http://www.w3.org/2000/svg" viewBox="0 0 689 239" fill="none">
  <path stroke="currentColor" d="M44.9996 201.75L44.9995 148.034C44.9994 104.956 79.9214 70.0336 123 70.0336L344.754 70.0336C363.196 70.0336 378.146 55.0836 378.146 36.6418L378.146 15.2914C378.146 8.64115 383.537 3.25006 390.187 3.25006C396.838 3.25006 402.229 8.6016 402.229 15.2518C402.229 37.2089 402.229 84.7939 402.229 119.667C402.229 126.761 407.98 132.5 415.075 132.5C422.169 132.5 427.92 126.749 427.92 119.655L427.92 16.9869C427.92 9.40023 434.071 3.25005 441.657 3.25003C449.244 3.25001 455.394 9.40019 455.394 16.9868L455.394 119.655C455.394 126.749 461.145 132.5 468.24 132.5C475.334 132.5 481.086 126.765 481.086 119.67C481.086 114.148 481.086 107.384 481.086 100.501C481.086 82.8275 495.413 68.5001 513.086 68.5001L685.499 68.5001" stroke-width="6.50002"/>
  <rect fill="currentColor" x="673" y="55.2498" width="16" height="26"/>
  <path fill="currentColor" d="M74.75 203.25C81.9297 203.25 87.75 209.071 87.75 216.25V226C87.75 233.18 81.9297 239 74.75 239H13C5.8203 239 3.38483e-05 233.18 0 226V216.25C0 209.071 5.82028 203.25 13 203.25H74.75ZM29.7734 212.826C28.0427 212.826 26.6397 214.229 26.6396 215.96C26.6396 217.691 28.0426 219.094 29.7734 219.094C31.5042 219.094 32.9072 217.691 32.9072 215.96C32.9071 214.23 31.5041 212.826 29.7734 212.826ZM43.875 212.826C42.1442 212.826 40.7413 214.229 40.7412 215.96C40.7412 217.691 42.1442 219.094 43.875 219.094C45.6057 219.094 47.0088 217.691 47.0088 215.96C47.0087 214.23 45.6056 212.827 43.875 212.826ZM56.4102 212.826C54.6794 212.826 53.2765 214.229 53.2764 215.96C53.2764 217.691 54.6793 219.094 56.4102 219.094C58.1409 219.094 59.5439 217.691 59.5439 215.96C59.5439 214.229 58.1409 212.826 56.4102 212.826Z"/>
  <rect fill="currentColor" x="39" y="190.25" width="13" height="13"/>
</svg>
