<?xml version="1.0"?>
<svg xmlns="http://www.w3.org/2000/svg" width="100" height="28" viewBox="0 0 100 28" fill="#C30A14">
  <path d="M30.4,15.3h3.5l-1.8-6.8L30.4,15.3z"/>
  <path d="M0.7,0.2c0,0,0,18.2,0,27.2c32.2,0,92.8,0,92.8,0V0.2H0.7z M15.8,21.8h-2.9L8.1,5.8h3.2l3.1,12.1l3-12.1h3.3
	L15.8,21.8z M35.6,21.8l-1.1-4.1h-4.8c0,0-0.8,3.2-1,3.9c-1,0.1-3.3,0-3.3,0L30,5.8h4.3l4.5,16.1H35.6z M56.1,21.8h-9.9V5.8h3.2
	v13.3H56L56.1,21.8L56.1,21.8z M67.7,21.8h-2.9L59.9,5.8h3.3l3.1,11.9l3-11.9h3.3L67.7,21.8z M85.9,7.8h-4.3c0,0,0,1.5,0,2.3
	c1.3,0,2.6,0,4,0c0,0.7,0,1.4,0,2.1c-1.3,0-2.6,0-4,0c0,0.8,0,1.6,0,2.4c1.4,0,4.3,0,4.3,0v2.1h-6.7V5.8h6.7V7.8z"/>
  <g>
    <path d="M94.5,0.4h-0.6V0.2h1.4v0.2h-0.6v1.5h-0.2V0.4z"/>
    <path d="M97.3,0.2v1.7h-0.2V0.6l-0.6,1.3h-0.2l-0.6-1.3v1.3h-0.2V0.2h0.2l0.7,1.4l0.6-1.4H97.3z"/>
  </g>
</svg>
