<?xml version="1.0"?>
<svg xmlns="http://www.w3.org/2000/svg" viewBox="0 0 36 36" fill="none">
  <path fill="currentColor" opacity="0.68" d="M17.9999 19.5781L14.4999 15.0498L5.99988 26.0498H17.9999V33.9971C16.9569 33.9971 15.9116 33.8978 14.8788 33.6924C11.7751 33.075 8.92403 31.5511 6.6864 29.3135C4.44876 27.0758 2.92486 24.2248 2.3075 21.1211C1.69019 18.0175 2.0067 14.8005 3.21765 11.877C4.42865 8.95334 6.48002 6.45439 9.11121 4.69629C11.7423 2.93834 14.8355 2 17.9999 2V19.5781Z"/>
  <path fill="currentColor" d="M18.3936 2.00488C20.3606 2.05328 22.3031 2.46394 24.123 3.21777C26.0642 4.02185 27.8278 5.20081 29.3135 6.68652C30.7992 8.17225 31.9782 9.93577 32.7822 11.877C33.5863 13.8181 34 15.8989 34 18C34 21.1643 33.0617 24.2576 31.3037 26.8887C29.5456 29.5199 27.0467 31.5712 24.123 32.7822C22.1724 33.5902 20.0911 33.9971 18 33.9971V26.0498H28.2197L22 18.0498L19.3994 21.3896L18 19.5781V2L18.3936 2.00488ZM25 10.0498C24.2044 10.0498 23.4415 10.3662 22.8789 10.9287C22.3164 11.4913 22.0001 12.2542 22 13.0498C22 13.6431 22.1762 14.2234 22.5059 14.7168C22.8354 15.2099 23.3036 15.5942 23.8516 15.8213C24.3997 16.0483 25.0031 16.1079 25.585 15.9922C26.1669 15.8764 26.7015 15.5905 27.1211 15.1709C27.5405 14.7515 27.8266 14.2175 27.9424 13.6357C28.0581 13.0539 27.9985 12.4504 27.7715 11.9023C27.5445 11.3543 27.1602 10.8853 26.667 10.5557C26.1737 10.226 25.5933 10.0498 25 10.0498Z"/>
</svg>
