<?xml version="1.0"?>
<svg xmlns="http://www.w3.org/2000/svg" viewBox="0 0 36 36" fill="none">
  <path fill="currentColor" d="M32.7687 5H3.2313C1.4504 5.01034 0.0102603 6.45488 0 8.24129V26.7587C0.0103061 28.5451 1.4504 29.9897 3.2313 30H32.7687C34.5496 29.9897 35.9897 28.5451 36 26.7587V8.24129C35.9897 6.45488 34.5496 5.01029 32.7687 5ZM6.92325 16.1113H10.6149C11.3799 16.1113 11.9996 16.7327 11.9996 17.5002C11.9996 18.2676 11.3801 18.8892 10.6149 18.8892H6.92325C6.1583 18.8892 5.53858 18.2678 5.53858 17.5002C5.53858 16.7329 6.15807 16.1113 6.92325 16.1113ZM19.8472 24.4449H6.92325C6.1583 24.4449 5.53858 23.8235 5.53858 23.0559C5.53858 22.2886 6.15807 21.667 6.92325 21.667H19.8472C20.6105 21.667 21.2318 22.2884 21.2318 23.0559C21.2318 23.8233 20.6105 24.4449 19.8472 24.4449ZM29.0773 24.4449H25.3857C24.6207 24.4449 24.001 23.8235 24.001 23.0559C24.001 22.2886 24.6205 21.667 25.3857 21.667H29.0773C29.8423 21.667 30.462 22.2884 30.462 23.0559C30.462 23.8233 29.8425 24.4449 29.0773 24.4449ZM29.0773 18.8892H16.1534C15.3901 18.8892 14.7688 18.2678 14.7688 17.5003C14.7688 16.733 15.3901 16.1113 16.1534 16.1113H29.0773C29.8423 16.1113 30.462 16.7327 30.462 17.5003C30.462 18.2676 29.8425 18.8892 29.0773 18.8892Z"/>
</svg>
