<?xml version="1.0"?>
<svg xmlns="http://www.w3.org/2000/svg" viewBox="0 0 689 239" fill="none">
  <path stroke="currentColor" d="M44.9996 201.75L44.9995 148.034C44.9994 104.956 79.9214 70.0336 123 70.0336L344.754 70.0336C363.196 70.0336 378.146 55.0836 378.146 36.6418L378.146 15.2914C378.146 8.64115 383.537 3.25006 390.187 3.25006C396.838 3.25006 402.229 8.6016 402.229 15.2518C402.229 37.2089 402.229 84.7939 402.229 119.667C402.229 126.761 407.98 132.5 415.075 132.5C422.169 132.5 427.92 126.749 427.92 119.655L427.92 16.9869C427.92 9.40023 434.071 3.25005 441.657 3.25003C449.244 3.25001 455.394 9.40019 455.394 16.9868L455.394 119.655C455.394 126.749 461.145 132.5 468.24 132.5C475.334 132.5 481.086 126.765 481.086 119.67C481.086 114.148 481.086 107.384 481.086 100.501C481.086 82.8275 495.413 68.5001 513.086 68.5001L685.499 68.5001" stroke-width="6.50002"/>
  <rect fill="currentColor" x="673" y="55.2498" width="16" height="26"/>
  <path fill="currentColor" d="M76.375 203.25C83.5547 203.25 89.375 209.071 89.375 216.25V226C89.375 233.18 83.5547 239 76.375 239H14.625C7.4453 239 1.62503 233.18 1.625 226V216.25C1.625 209.071 7.44528 203.25 14.625 203.25H76.375ZM31.3984 212.826C29.6677 212.826 28.2647 214.229 28.2646 215.96C28.2646 217.691 29.6676 219.094 31.3984 219.094C33.1292 219.094 34.5322 217.691 34.5322 215.96C34.5321 214.23 33.1291 212.826 31.3984 212.826ZM45.5 212.826C43.7692 212.826 42.3663 214.229 42.3662 215.96C42.3662 217.691 43.7692 219.094 45.5 219.094C47.2307 219.094 48.6338 217.691 48.6338 215.96C48.6337 214.23 47.2306 212.827 45.5 212.826ZM58.0352 212.826C56.3044 212.826 54.9015 214.229 54.9014 215.96C54.9014 217.691 56.3043 219.094 58.0352 219.094C59.7659 219.094 61.1689 217.691 61.1689 215.96C61.1689 214.229 59.7659 212.826 58.0352 212.826Z"/>
  <rect fill="currentColor" x="39" y="190.25" width="13" height="13"/>
</svg>
