<?xml version="1.0"?>
<svg fill="currentColor" viewBox="" xmlns="http://www.w3.org/2000/svg">
  <path d="M371.066 30.909c7.264 0 13.152 5.888 13.153 13.152 0 7.264-5.889 13.153-13.153 13.153s-13.153-5.889-13.153-13.153c0-7.264 5.889-13.152 13.153-13.152Zm24.075 23.184c7.264 0 13.153 5.889 13.153 13.153s-5.889 13.152-13.153 13.152c-7.263 0-13.152-5.888-13.152-13.152s5.889-13.153 13.152-13.153Zm-47.704 0c7.264 0 13.153 5.889 13.153 13.153s-5.889 13.152-13.153 13.152-13.152-5.888-13.152-13.152 5.888-13.153 13.152-13.153Zm-102.098-.891c8.002 0 14.489 6.487 14.489 14.49 0 8.002-6.487 14.489-14.489 14.489-8.003 0-14.49-6.487-14.49-14.489 0-8.003 6.487-14.49 14.49-14.49ZM119.446 36.259c2.463 0 6.985 1.007 9.422 1.597.983.238 1.662 1.121 1.662 2.133V54.093c0 1.231.998 2.23 2.229 2.23h14.083c.917 0 1.738.562 2.007 1.439.593 1.938 1.521 5.616 1.521 9.707 0 4.089-.927 7.766-1.52 9.704-.27.878-1.092 1.442-2.01 1.442H132.759c-1.231 0-2.229.998-2.229 2.229V94.918c0 .923-.568 1.748-1.446 2.029-2.055.656-5.985 1.731-9.7 1.731s-7.646-1.074-9.701-1.731c-.879-.281-1.446-1.106-1.446-2.029V80.844c0-1.231-.998-2.229-2.229-2.229H91.9491c-.9299 0-1.7606-.578-2.0273-1.469-.5937-1.983-1.5253-5.727-1.5254-9.677-.0001-3.952.9326-7.698 1.5263-9.68.2667-.89 1.0955-1.466 2.0245-1.466H106.008c1.231 0 2.229-.999 2.229-2.23V39.996c0-1.015.682-1.901 1.669-2.136 2.47-.589 7.071-1.601 9.54-1.601ZM371.513 78.168c7.264 0 13.153 5.89 13.153 13.154s-5.89 13.152-13.153 13.152c-7.264 0-13.153-5.889-13.153-13.152 0-7.264 5.889-13.153 13.153-13.154Zm-67.394-2.793c13.667.001 24.747 11.08 24.747 24.747 0 13.668-11.08 24.747-24.747 24.748-13.667 0-24.747-11.08-24.747-24.748 0-13.667 11.08-24.747 24.747-24.747Zm-118.782 0c13.667 0 24.747 11.08 24.747 24.747 0 13.668-11.08 24.748-24.747 24.748-13.667-.001-24.746-11.08-24.746-24.748 0-13.667 11.079-24.746 24.746-24.747Zm177.087 64.893 9.174 52.25c1.575 8.973-4.422 17.525-13.396 19.101l-54.414 9.553c-8.974 1.576-17.525-4.422-19.101-13.395l-9.173-52.25c-1.576-8.974 4.422-17.525 13.395-19.101l54.414-9.554c8.974-1.575 17.525 4.423 19.101 13.396ZM147.387 126.872l54.414 9.554c8.973 1.576 14.97 10.127 13.395 19.101l-9.174 52.25c-1.575 8.973-10.127 14.971-19.1 13.395l-54.414-9.553c-8.974-1.576-14.971-10.128-13.396-19.101l9.174-52.25c1.576-8.973 10.127-14.971 19.101-13.396ZM335.633 5.539l-1.116 3.79-12.483-.447-82.705-1.337-82.705 2.006c-.074-2.006-1.427-6.42-6.242-8.025-6.019-2.007-26.529-.668-31.879 1.115-5.351 1.783-19.1709 5.573-24.0754 14.267-1.4118 2.303-4.1023 7.579-3.5674 10.255-3.4181 3.418-11.0121 12.305-14.0439 20.508-3.0318 8.204-6.0192 19.173-7.1338 23.631l-17.834 65.317c-3.4925 16.868-10.3879 53.19-10.0312 63.534.4458 12.929-.0004 42.801 7.8017 57.068 7.8024 14.267 16.7196 24.968 38.1202 28.089 21.4008 3.121 28.3118-7.357 33.8848-20.286 5.573-12.93 15.605-26.082 27.197-28.534 1.486-.298 5.306-.892 8.695-.892H335.855c3.047-.074 10.611.936 16.496 5.572 7.357 5.796 14.491 18.281 17.166 24.3 2.676 6.019 7.58 16.496 20.287 19.84 12.706 3.344 32.101-4.681 34.776-7.579s21.4-12.484 24.521-49.936c2.497-29.961-4.458-68.66-8.248-84.265-8.025-30.467-24.611-92.47-26.751-96.75-2.675-5.35-8.471-15.158-13.598-19.171-.52-3.418-2.586-11.147-6.688-14.714-5.127-4.459-14.268-9.363-27.643-11.369-13.375-2.006-27.419-2.675-30.54 4.013ZM371.774 196.976c-.01.107-.021.213-.034.319.013-.106.024-.212.034-.319Zm.032-.358c-.007.085-.014.171-.022.256.008-.085.015-.171.022-.256Zm-4.412 10.027c-.073.079-.148.157-.223.235.075-.078.15-.156.223-.235Zm-.827.824c-.079.074-.16.148-.241.22.081-.072.162-.146.241-.22Zm.277-.262c-.072.069-.144.138-.217.207.073-.069.145-.138.217-.207Zm-81.019 4.332c-.03-.069-.061-.136-.09-.205.029.069.06.136.09.205Zm.559 1.155c-.049-.091-.098-.181-.145-.273.047.092.096.182.145.273Zm.79 1.326c-.047-.071-.094-.142-.14-.214.046.072.093.143.14.214Zm1.228 1.628c-.071-.083-.141-.166-.211-.251.07.085.14.168.211.251Zm.524.582c-.077-.082-.154-.164-.23-.247.076.083.153.165.23.247Zm.299.311c-.086-.087-.171-.175-.255-.264.084.089.169.177.255.264Zm.221.217c-.07-.068-.14-.136-.209-.206.069.07.139.138.209.206Zm-5.947-78.366v.001-.001Zm86.126 65.25c-.171.295-.35.584-.538.867.188-.283.367-.572.538-.867Zm-.868 1.343c-.087.12-.174.239-.264.357.09-.118.177-.237.264-.357Zm-83.912 3.557c.145.65.328 1.283.546 1.898-.218-.615-.401-1.248-.546-1.898Zm76.043 2.37c-.215.076-.432.148-.652.216.22-.068.437-.14.652-.216Zm-75.153.422c-.107-.256-.209-.514-.303-.777.094.263.196.521.303.777Zm74.318-.152c-.467.138-.943.259-1.428.357.485-.098.961-.219 1.428-.357Zm-15.699-78.46-54.415 9.554c-5.742 1.009-9.58 6.48-8.572 12.223l9.174 52.25c1.008 5.742 6.481 9.581 12.224 8.573l54.414-9.554c5.742-1.008 9.581-6.482 8.573-12.224l-9.174-52.249c-1.008-5.743-6.481-9.581-12.224-8.573Zm-55.658 83.261c-.084-.093-.166-.187-.248-.281.082.094.164.188.248.281Zm15.096 5.189h-.001.001Zm-.84.126.006-.001c-.062.007-.123.013-.185.02.06-.007.119-.012.179-.019Zm-4.421-.051c.251.037.504.068.758.093-.254-.025-.507-.056-.758-.093Zm3.906.104c-.187.018-.374.031-.561.042.187-.011.374-.024.561-.042Zm-2.711.027c.254.018.508.032.763.039-.255-.007-.509-.021-.763-.039ZM118.875 195.148c.001-.057.001-.114.002-.171-.001.057-.001.114-.002.171Zm2.153 8.373c-.008-.015-.016-.03-.025-.045.009.015.017.03.025.045Zm3.041 3.867c-.071-.067-.142-.134-.212-.202.07.068.141.135.212.202Zm-1.696-1.861c.062.08.124.159.188.237-.064-.078-.126-.157-.188-.237Zm83.494 3.074c.02-.089.039-.178.058-.267-.019.089-.038.178-.058.267Zm-.097.402c.027-.11.054-.22.08-.33-.026.11-.053.22-.08.33Zm-61.705-82.375h-.001.001Zm-25.111 67.121-.003.026c-.006.066-.012.131-.017.196.006-.074.013-.148.02-.222Zm-.077 1.228c.007-.267.019-.535.039-.804-.02.269-.032.537-.039.804Zm3.212 10.176.007.01c.006.009.013.017.019.025-.008-.011-.017-.023-.026-.035Zm1.768 2.033c-.288-.282-.567-.575-.834-.876.267.301.546.594.834.876Zm82.068 1.148c.039-.185.076-.371.109-.559-.033.188-.07.374-.109.559Zm-.728 2.476c.076-.2.15-.401.219-.605-.069.204-.143.405-.219.605Zm-74.968.235c.218.071.438.139.661.201-.223-.062-.443-.13-.661-.201Zm1.183.338c.228.056.457.109.689.156-.232-.047-.461-.1-.689-.156Zm73.244.689c-.086.181-.176.359-.269.535.093-.176.183-.354.269-.535Zm-70.51-70.778-9.173 52.25c-1.009 5.743 2.83 11.216 8.573 12.225l54.415 9.552c5.742 1.008 11.214-2.83 12.223-8.572l9.173-52.25c1.008-5.742-2.829-11.214-8.572-12.223l-54.415-9.553c-5.742-1.008-11.215 2.829-12.224 8.571Zm53.208 79.945-.42-.067c.494.087.988.149 1.479.19-.352-.029-.705-.07-1.059-.123Zm1.378.147c.208.013.415.023.622.029-.207-.006-.414-.016-.622-.029ZM166.5344 100.122a18.8076 18.8076 0 1 0 37.6152 0a18.8076 18.8076 0 1 0 -37.6152 0M285.3204 100.122a18.8076 18.8076 0 1 0 37.6152 0a18.8076 18.8076 0 1 0 -37.6152 0M251.485 61.14c-1.493 0-2.702 1.208-2.702 2.702 0 1.493 1.209 2.701 2.702 2.701 1.494 0 2.702-1.208 2.703-2.701 0-1.494-1.209-2.702-2.703-2.702Zm0-.879c1.977 0 3.592 1.615 3.592 3.592 0 1.976-1.615 3.591-3.592 3.591s-3.591-1.614-3.591-3.591c0-1.978 1.614-3.592 3.591-3.592Zm-7.869 9.831c.747.307 1.329.9 1.637 1.647.318.758.307 1.582 0 2.328-.648 1.549-2.427 2.285-3.976 1.637-.724-.307-1.263-.845-1.571-1.493l1.758.725h.011c1.131.472 2.449-.066 2.921-1.208.473-1.143-.065-2.45-1.208-2.922l-1.812-.747c.703-.264 1.493-.275 2.24.033Zm7.858-11.632c-2.977 0-5.394 2.416-5.394 5.393v.065l-3.404 4.943h-.231c-.834 0-1.626.253-2.274.703l-7.183 1.878 5.481 2.263c.362 1.856 2.01 3.251 3.965 3.251 2.24 0 4.053-1.823 4.053-4.053v-.186l4.866-3.472h.121c2.976 0 5.392-2.416 5.392-5.392 0-2.977-2.416-5.393-5.392-5.393ZM232.991 71.448l2.572.774 4.618-2.65-7.662-3.162.472 5.038Z"/>
</svg>
