<?xml version="1.0"?>
<svg viewBox="0 0 20 20" fill="none" xmlns="http://www.w3.org/2000/svg">
  <path d="M18.6146 1C18.8276 1.00008 19 1.17285 19 1.3858V18.6146C18.9999 18.8275 18.8275 18.9999 18.6146 19H1.3858C1.17287 19 1.00012 18.8275 1 18.6146V1.3858C1 1.1728 1.1728 1 1.3858 1H18.6146ZM10.1133 4.65085C7.09611 4.65093 4.65004 7.09697 4.64996 10.1142C4.64996 13.1315 7.09606 15.5775 10.1133 15.5776C13.1307 15.5776 15.5767 13.1316 15.5767 10.1142C15.5767 7.09693 13.1307 4.65085 10.1133 4.65085Z" fill="white"/>
  <path d="M14.125 10.1892C14.125 7.98021 12.3338 6.18945 10.1248 6.18945C7.9158 6.1895 6.12509 7.98025 6.125 10.1892C6.125 12.3292 7.80559 14.077 9.91901 14.1842L10.1248 14.1895C12.2649 14.1895 14.0127 12.5085 14.1197 10.395L14.125 10.1892Z" fill="white"/>
</svg>
