<svg width="32" height="32" viewBox="0 0 32 32" fill="none" xmlns="http://www.w3.org/2000/svg">
<path fill-rule="evenodd" clip-rule="evenodd" d="M8.39125 31.4707C7.96678 31.4835 7.53455 31.4912 7.09438 31.4951L2.14125 25.1025C2.27462 24.7172 2.41 24.324 2.54457 23.9258L8.39125 31.4707ZM4.52113 31.4395C4.25547 31.4247 3.99259 31.409 3.73598 31.3906C1.81634 31.2529 0.651125 29.2902 1.30336 27.4795C1.31916 27.4356 1.33427 27.3911 1.35023 27.3467L4.52113 31.4395ZM12.0504 31.2285C11.5538 31.2819 11.0444 31.3268 10.5221 31.3643L3.2057 21.9219C3.36765 21.4174 3.52613 20.915 3.67641 20.4209L12.0504 31.2285ZM15.4772 30.6875C14.9276 30.8057 14.3591 30.9092 13.7711 31.001L4.19398 18.6406C4.3806 17.9638 4.54209 17.3233 4.67152 16.7412L15.4772 30.6875ZM9.60805 18.1484V18.3486H9.76234L18.6266 29.7891C18.0471 30.0019 17.4413 30.1936 16.8082 30.3652L4.96449 15.0781C4.98718 14.8645 4.99965 14.671 4.99965 14.5C4.99964 13.5127 4.83939 12.6054 4.56606 11.6426L9.60805 18.1484ZM21.4489 28.4668C20.865 28.8092 20.2477 29.1217 19.5934 29.4033L11.028 18.3486H13.609L21.4489 28.4668ZM17.112 17.9043V18.3486H17.4557L23.903 26.6689C23.3419 27.1789 22.7399 27.6468 22.0914 28.0713L14.5582 18.3486H15.7506V16.623H13.2204L11.5289 14.4395V10.6992L17.112 17.9043ZM26.1754 24.0439C25.6051 24.8801 24.9716 25.6392 24.2682 26.3252L18.0875 18.3486H21.7623L26.1754 24.0439ZM27.9079 1C29.6 1 30.9613 2.40865 30.8766 4.09863C30.429 13.0084 29.2095 19.4407 26.3219 23.8252L22.0788 18.3486H23.9469V16.6885H20.7926L20.3034 16.0576L21.4371 15.1201C22.195 14.493 22.7578 13.9271 23.1237 13.4219C23.4895 12.9079 23.6724 12.3371 23.6725 11.71C23.6725 10.8562 23.3543 10.1981 22.7184 9.73633C22.0825 9.27474 21.2372 9.04397 20.1832 9.04395C19.591 9.04398 19.033 9.12651 18.5104 9.29199C17.9967 9.45747 17.5389 9.67939 17.1383 9.95801L17.7916 11.3701C18.0616 11.1873 18.3751 11.034 18.7321 10.9121C19.0978 10.7902 19.473 10.7296 19.8561 10.7295C20.3699 10.7295 20.7887 10.847 21.111 11.082C21.442 11.3085 21.607 11.6486 21.6071 12.1016C21.6071 12.3804 21.5424 12.6378 21.4118 12.873C21.2811 13.1082 21.106 13.3301 20.8883 13.5391C20.6793 13.7481 20.3747 14.0228 19.9743 14.3623L19.7516 14.5586L19.3805 14.8662L8.63734 1H27.9079ZM8.31996 1L19.1881 15.0264L17.112 16.7539V17.0889L11.5289 9.88379V9.2002H10.9996L4.64516 1H8.31996ZM20.4762 16.6885H19.5426L20.111 16.2168L20.4762 16.6885ZM12.2721 16.623H11.5289V15.6631L12.2721 16.623ZM9.60805 13.1836V16.5156L3.53383 8.67676C3.00495 7.27863 2.3755 5.62772 1.71938 3.50293C1.65638 3.29881 1.63251 3.09485 1.63637 2.89648L9.60805 13.1836ZM4.01332 1L10.3668 9.2002H9.60805V11.96L1.88539 1.99316C2.21864 1.40903 2.85182 1.00014 3.60316 1H4.01332Z" fill="#0E141B"/>
<path d="M15.7528 18.3695H9.61075V9.22176H11.5318V16.6445H15.7528V18.3695Z" fill="white"/>
<path d="M19.5453 16.7099H23.9493V18.3695H17.1146V16.7752L19.7544 14.5797L19.9766 14.3837C20.3773 14.0439 20.6823 13.7695 20.8913 13.5604C21.1092 13.3513 21.2834 13.1292 21.4141 12.8939C21.5448 12.6587 21.6101 12.4017 21.6101 12.1229C21.6101 11.6699 21.4446 11.3301 21.1135 11.1036C20.7912 10.8684 20.373 10.7507 19.859 10.7507C19.4756 10.7507 19.101 10.8117 18.7351 10.9337C18.3779 11.0557 18.0643 11.2081 17.7942 11.3911L17.1408 9.97972C17.5415 9.70093 17.9989 9.47877 18.5129 9.31324C19.0357 9.14771 19.5932 9.06494 20.1857 9.06494C21.2398 9.06494 22.0849 9.29581 22.7209 9.75756C23.3569 10.2193 23.6749 10.8771 23.6749 11.7309C23.6749 12.3581 23.4919 12.9288 23.126 13.4428C22.7601 13.9481 22.1982 14.5144 21.4402 15.1417L19.5453 16.7099Z" fill="white"/>
</svg>
