<svg width="32" height="32" viewBox="0 0 32 32" fill="none" xmlns="http://www.w3.org/2000/svg">
<path fill-rule="evenodd" clip-rule="evenodd" d="M2.15981 8.20551C1.48118 8.20551 0.930525 8.6688 0.930323 9.24066V23.0209C0.930582 23.5928 1.48122 24.0561 2.15981 24.0561H29.1979C29.8763 24.0559 30.4262 23.5926 30.4264 23.0209V18.7573C30.4796 13.409 20.6117 8.15903 11.6149 8.29535L2.15981 8.20551ZM20.1256 13.0004V19.227H21.5143V20.6069H16.8473V19.227H18.57V14.7602L17.0358 15.434L16.5446 14.2387L18.9459 13.0004H20.1256ZM12.2975 13.0004C13.2996 13.0005 14.0371 13.2103 14.5104 13.6303C14.9837 14.0432 15.2203 14.6226 15.2204 15.3686C15.2204 15.9554 15.095 16.4452 14.8444 16.8364C14.6008 17.2273 14.2565 17.5242 13.8112 17.727L15.5338 20.6069H13.8317L12.36 18.0424H11.0963V20.6069H9.56118V13.0004H12.2975ZM11.0963 14.3588V16.6733H12.2975C12.7011 16.6732 13.0143 16.5679 13.237 16.3578C13.4666 16.1406 13.5816 15.8437 13.5817 15.4672C13.5817 15.0979 13.4703 14.8222 13.2477 14.6411C13.0319 14.4527 12.6831 14.3588 12.2028 14.3588H11.0963Z" fill="#0E141B"/>
<path d="M15.5342 20.6066H13.8322L12.36 18.0421H12.1825H11.0966V20.6066H9.56174V13.0001H12.2974C13.2997 13.0001 14.0376 13.2101 14.5109 13.6303C14.9843 14.0432 15.2209 14.6228 15.2209 15.369C15.2209 15.9558 15.0956 16.4447 14.8451 16.8359C14.6014 17.2271 14.2569 17.5242 13.8114 17.727L15.5342 20.6066ZM11.0966 14.3584V16.6729H12.2974C12.7011 16.6729 13.0143 16.5679 13.2371 16.3578C13.4668 16.1405 13.5817 15.8435 13.5817 15.4668C13.5817 15.0973 13.4703 14.822 13.2475 14.6409C13.0317 14.4526 12.6837 14.3584 12.2034 14.3584H11.0966Z" fill="white"/>
<path d="M20.1262 13.0001V19.2266H21.5149V20.6066H16.8476V19.2266H18.5705V14.7604L17.0356 15.4342L16.5448 14.2388L18.9463 13.0001H20.1262Z" fill="white"/>
</svg>
