<svg width="32" height="32" viewBox="0 0 32 32" fill="none" xmlns="http://www.w3.org/2000/svg">
<path fill-rule="evenodd" clip-rule="evenodd" d="M29.4544 23.9258C29.589 24.3239 29.7244 24.7172 29.8577 25.1025L24.9046 31.4951C24.4644 31.4912 24.0322 31.4835 23.6077 31.4707L29.4544 23.9258ZM30.6966 27.4795C31.3489 29.2903 30.1837 31.2529 28.264 31.3906C28.007 31.409 27.7439 31.4247 27.4779 31.4395L30.6488 27.3467C30.6648 27.3912 30.6808 27.4355 30.6966 27.4795ZM28.3226 20.4209C28.4729 20.915 28.6313 21.4174 28.7933 21.9219L21.4769 31.3643C20.9546 31.3268 20.4452 31.282 19.9486 31.2285L28.3226 20.4209ZM27.3275 16.7412C27.4569 17.3233 27.6184 17.9638 27.805 18.6406L18.2279 31.001C17.6399 30.9092 17.0714 30.8057 16.5218 30.6875L27.3275 16.7412ZM27.4329 11.6426C27.1596 12.6053 27.0003 13.5128 27.0003 14.5C27.0003 14.6709 27.0118 14.8645 27.0345 15.0781L15.1907 30.3652C14.5577 30.1936 13.9519 30.0019 13.3724 29.7891L22.4593 18.0615H23.1263V17.2012L27.4329 11.6426ZM21.1947 18.0615L12.4056 29.4033C11.7514 29.1217 11.134 28.8092 10.5501 28.4668L18.6126 18.0615H21.1947ZM20.1751 11.0801C20.2792 11.1258 20.3765 11.1795 20.4652 11.2441C20.7755 11.4567 20.931 11.7753 20.931 12.2002C20.931 12.4617 20.8699 12.7032 20.7474 12.9238C20.6249 13.1443 20.4613 13.3528 20.2572 13.5488C20.061 13.7449 19.7746 14.0027 19.3988 14.3213L19.1898 14.5049L16.7132 16.5654V18.0615H17.6644L9.90755 28.0713C9.25913 27.6468 8.65706 27.1789 8.09602 26.6689L14.7669 18.0615H15.4525L15.1468 17.5703L20.1751 11.0801ZM13.4544 18.0615H14.1351L7.73079 26.3252C7.0275 25.6392 6.39386 24.8801 5.82356 24.0439L12.1497 15.8789L13.4544 18.0615ZM15.055 11.7217C14.9738 11.084 14.7083 10.5727 14.2513 10.1895C13.6955 9.71539 12.8286 9.47856 11.6517 9.47852H8.43879V18.0615H10.1429L5.67708 23.8252C2.78972 19.4407 1.57093 13.0081 1.12336 4.09863C1.03869 2.40865 2.39995 1 4.09211 1H23.3626L15.055 11.7217ZM12.012 15.6484L10.2415 17.9346V15.167H11.7249L12.012 15.6484ZM20.7972 9.46191C20.4351 9.37628 20.0347 9.33111 19.595 9.33105C19.0393 9.33105 18.5151 9.40823 18.0247 9.56348C17.5426 9.71875 17.1135 9.92799 16.7376 10.1895L17.3509 11.5137C17.6042 11.3421 17.8987 11.1984 18.2337 11.084C18.5769 10.9697 18.9289 10.9131 19.2884 10.9131C19.4168 10.9131 19.5389 10.9208 19.6546 10.9365L14.8656 17.1182L13.43 14.8115C13.9528 14.5827 14.3579 14.2478 14.6439 13.8066C14.938 13.3653 15.0852 12.8133 15.0853 12.1514C15.0853 12.1324 15.0826 12.1135 15.0823 12.0947L23.68 1H27.3548L20.7972 9.46191ZM30.3626 2.89648C30.3665 3.09486 30.3436 3.2988 30.2806 3.50293C29.6244 5.62789 28.9941 7.27856 28.4652 8.67676L22.4017 16.5039H19.8197L21.3519 14.5254C21.7769 14.1343 22.1118 13.7727 22.3538 13.4385C22.5007 13.2321 22.6136 13.015 22.6976 12.7891L30.3626 2.89648ZM11.5413 11.0107C12.1052 11.0108 12.5145 11.1166 12.7679 11.3291C13.0293 11.5335 13.1595 11.845 13.1595 12.2617C13.1594 12.6865 13.0247 13.0215 12.7552 13.2666C12.4937 13.5036 12.1256 13.622 11.6517 13.6221H10.2415V11.0107H11.5413ZM28.3968 1C29.148 1.00013 29.7803 1.40925 30.1136 1.99316L22.8333 11.3887C22.7402 10.7997 22.4543 10.33 21.973 9.98047C21.7731 9.83543 21.5498 9.71753 21.306 9.62109L27.9866 1H28.3968Z" fill="#0E141B"/>
<path d="M15.4525 18.0611H13.4539L11.7251 15.1674H11.5166H10.2414V18.0611H8.43901V9.47807H11.6515C12.8286 9.47807 13.6951 9.71512 14.2509 10.1892C14.8068 10.6552 15.0847 11.3091 15.0847 12.1511C15.0847 12.8132 14.9376 13.3649 14.6433 13.8064C14.3572 14.2478 13.9526 14.5829 13.4294 14.8118L15.4525 18.0611ZM10.2414 11.0107V13.6224H11.6515C12.1256 13.6224 12.4935 13.5039 12.755 13.2669C13.0248 13.0216 13.1597 12.6865 13.1597 12.2614C13.1597 11.8445 13.0289 11.5339 12.7673 11.3295C12.5139 11.117 12.1052 11.0107 11.5412 11.0107H10.2414Z" fill="white"/>
<path d="M18.9936 16.5039H23.1257V18.0611H16.7129V16.5652L19.1898 14.5053L19.3982 14.3213C19.7742 14.0025 20.0603 13.745 20.2565 13.5489C20.4609 13.3527 20.6243 13.1442 20.747 12.9235C20.8696 12.7028 20.9309 12.4617 20.9309 12.2001C20.9309 11.775 20.7756 11.4562 20.4649 11.2437C20.1625 11.023 19.7701 10.9127 19.2878 10.9127C18.9282 10.9127 18.5767 10.9699 18.2334 11.0843C17.8982 11.1988 17.6039 11.3418 17.3505 11.5135L16.7375 10.1892C17.1135 9.92766 17.5426 9.71921 18.0249 9.5639C18.5154 9.40859 19.0385 9.33093 19.5944 9.33093C20.5835 9.33093 21.3764 9.54755 21.9731 9.98079C22.5698 10.414 22.8682 11.0312 22.8682 11.8323C22.8682 12.4208 22.6965 12.9562 22.3532 13.4385C22.0099 13.9126 21.4826 14.444 20.7715 15.0325L18.9936 16.5039Z" fill="white"/>
</svg>
