<svg width="32" height="32" viewBox="0 0 32 32" fill="none" xmlns="http://www.w3.org/2000/svg">
<g clip-path="url(#clip0_8547_780)">
<path d="M15.7132 30.6068C13.1339 31.3616 9.65441 31.2032 6.62531 30.8041C6.29766 30.7609 5.98072 30.693 5.67413 30.6068H15.7132ZM19.47 27.6078C19.1817 28.1021 18.897 28.522 18.6204 28.8568H2.73468C2.36809 28.4801 2.04651 28.0604 1.77277 27.6078H19.47ZM20.9407 24.6078C20.7108 25.1393 20.4808 25.6406 20.2552 26.1078H1.08624C0.928707 25.6262 0.817844 25.1239 0.760071 24.6078H20.9407ZM22.1536 21.6088C21.9232 22.2121 21.6913 22.7964 21.4632 23.3578H0.724915C0.734542 23.1695 0.748187 22.9802 0.77179 22.7904C0.819456 22.4072 0.870614 22.0129 0.92218 21.6088H22.1536ZM23.2591 18.6088C23.0155 19.2877 22.7723 19.9566 22.5296 20.6088H1.05109C1.13556 19.9609 1.22452 19.2924 1.31769 18.6088H23.2591ZM4.6839 15.6097V17.0004H11.264V15.6097H11.9612C12.3407 16.0634 12.7862 16.4206 13.3011 16.6781C14.029 17.0327 14.8137 17.2103 15.6536 17.2103C16.4562 17.2103 17.1936 17.079 17.8655 16.8177C18.5373 16.5471 19.093 16.1884 19.5316 15.7406V15.6097H24.3187C24.0554 16.3631 23.7908 17.1154 23.5267 17.8588H1.42023C1.52236 17.1219 1.62935 16.3702 1.74054 15.6097H4.6839ZM25.4944 12.2504C25.164 13.1907 24.8286 14.1491 24.4935 15.1097H19.5316V12.2504H25.4944ZM15.1634 12.2504V12.9125H17.5716V14.7181C17.3753 14.8836 17.1543 15.0126 16.9105 15.1097H14.6429C14.3183 14.9698 14.0298 14.76 13.7776 14.4799C13.3118 13.9436 13.0684 13.2004 13.0413 12.2504H15.1634ZM10.8538 12.2504C10.8625 13.341 11.0846 14.2574 11.5237 14.9984C11.5468 15.0365 11.5723 15.0727 11.596 15.1097H6.74152V12.2504H10.8538ZM4.6839 12.2504V15.1097H1.81378C1.95385 14.1636 2.10239 13.2066 2.25519 12.2504H4.6839ZM10.64 0.98864C22.9072 0.946202 33.6521 0.809483 31.0003 1.00036C29.5679 1.10377 27.6394 6.15834 25.5823 12.0004H19.5316V11.2601H15.1634V12.0004H13.0374C13.0491 10.9997 13.3047 10.2296 13.806 9.69176C14.3285 9.14147 15.019 8.86666 15.8773 8.86657C16.7732 8.86657 17.5858 9.11314 18.3138 9.60778L19.3216 8.09606C18.8923 7.76941 18.3832 7.50354 17.7952 7.29821C17.2073 7.08363 16.5398 6.97594 15.7933 6.97594C14.8694 6.976 14.034 7.17721 13.2874 7.57848C12.5409 7.97048 11.9477 8.55829 11.5091 9.34216C11.0949 10.0825 10.8797 10.9687 10.8568 12.0004H6.74152V7.20055H4.6839V12.0004H2.29523C2.56868 10.3012 2.85867 8.60802 3.1673 6.98962C3.84564 3.43298 7.01924 1.00136 10.64 0.98864Z" fill="#0E141B"/>
<path d="M11.2638 16.9999H4.68377V7.19988H6.74177V15.1519H11.2638V16.9999ZM15.7937 6.97588C16.5403 6.97588 17.2077 7.08321 17.7957 7.29788C18.3837 7.50321 18.8923 7.76921 19.3217 8.09588L18.3137 9.60788C17.5857 9.11321 16.7737 8.86588 15.8777 8.86588C15.019 8.86588 14.3283 9.14121 13.8057 9.69188C13.2923 10.2425 13.0357 11.0359 13.0357 12.0719C13.0357 13.1079 13.283 13.9105 13.7777 14.4799C14.2817 15.0399 14.9303 15.3199 15.7237 15.3199C16.4797 15.3199 17.0957 15.1192 17.5717 14.7179V12.9119H15.1637V11.2599H19.5317V15.7399C19.093 16.1879 18.5377 16.5472 17.8657 16.8179C17.1937 17.0792 16.4563 17.2099 15.6537 17.2099C14.8137 17.2099 14.0297 17.0325 13.3017 16.6779C12.5737 16.3139 11.981 15.7539 11.5237 14.9979C11.0757 14.2419 10.8517 13.3039 10.8517 12.1839C10.8517 11.0732 11.071 10.1259 11.5097 9.34188C11.9483 8.55788 12.541 7.96988 13.2877 7.57788C14.0343 7.17654 14.8697 6.97588 15.7937 6.97588Z" fill="white"/>
</g>
<defs>
<clipPath id="clip0_8547_780">
<rect width="32" height="32" fill="white"/>
</clipPath>
</defs>
</svg>
