<svg width="32" height="32" viewBox="0 0 32 32" fill="none" xmlns="http://www.w3.org/2000/svg">
<g clip-path="url(#clip0_8547_796)">
<path d="M16.2844 30.606C18.864 31.3619 22.3449 31.2026 25.3752 30.8033C25.7042 30.7599 26.0226 30.6927 26.3303 30.606H16.2844ZM12.5295 27.607C12.8179 28.1015 13.1034 28.5211 13.3801 28.856H29.2658C29.6323 28.4794 29.9532 28.0595 30.2268 27.607H12.5295ZM11.0598 24.607C11.2897 25.1385 11.5197 25.6398 11.7453 26.107H30.9133C31.0708 25.6253 31.1818 25.1232 31.2395 24.607H11.0598ZM9.84788 21.608C10.0783 22.2112 10.3093 22.7957 10.5373 23.357H31.2756C31.266 23.1688 31.2514 22.9793 31.2278 22.7896C31.1801 22.4064 31.1289 22.0121 31.0774 21.608H9.84788ZM8.74143 18.608C8.98501 19.2869 9.22821 19.9558 9.47092 20.608H30.9485C30.864 19.9601 30.775 19.2916 30.6819 18.608H8.74143ZM7.68089 15.6089C7.94417 16.3624 8.20967 17.1145 8.47385 17.858H30.5793C30.4772 17.1211 30.3702 16.3694 30.259 15.6089H28.3996V15.7398C27.961 16.1877 27.4055 16.5473 26.7336 16.8179C26.0617 17.0792 25.3242 17.2095 24.5217 17.2095C23.6818 17.2095 22.8981 17.0319 22.1701 16.6773C21.655 16.4197 21.2091 16.0628 20.8293 15.6089H18.9582L19.8235 16.9996H17.5412L16.7102 15.6089H13.8733V16.9996H11.8157V15.6089H7.68089ZM28.3996 15.1089H30.1867C30.0467 14.1627 29.8972 13.2059 29.7444 12.2496H28.3996V15.1089ZM21.9094 12.2496C21.9365 13.1997 22.18 13.9428 22.6457 14.4791C22.8971 14.7584 23.1846 14.9687 23.508 15.1089H25.7805C26.0236 15.0117 26.2439 14.8824 26.4397 14.7173V12.9117H24.0315V12.2496H21.9094ZM18.8235 12.2496C18.5025 12.6999 18.0671 13.0475 17.5139 13.2896L18.6467 15.1089H20.4641C20.4404 15.0719 20.4148 15.0356 20.3918 14.9976C19.9528 14.2566 19.7306 13.3403 19.7219 12.2496H18.8235ZM13.8733 15.1089H16.4114L15.5676 13.6959H13.8733V15.1089ZM6.50608 12.2496C6.83653 13.1899 7.17188 14.1483 7.50706 15.1089H11.8157V12.2496H6.50608ZM21.3596 0.988821C9.09168 0.946381 -1.65308 0.808644 1.00022 0.999563C2.4326 1.10313 4.36119 6.15777 6.41819 11.9996H11.8157V7.19976H15.4836C16.8273 7.19976 17.8167 7.47017 18.4514 8.01128C19.086 8.54323 19.4035 9.29031 19.4035 10.2515C19.4035 10.9385 19.2631 11.5207 18.9856 11.9996H19.7248C19.7479 10.968 19.9639 10.0816 20.3782 9.34136C20.8167 8.5577 21.4091 7.96961 22.1555 7.57769C22.902 7.17646 23.7376 6.97522 24.6614 6.97515C25.408 6.97515 26.0763 7.08277 26.6643 7.29742C27.252 7.50267 27.7605 7.76879 28.1897 8.09527L27.1819 9.60796C26.454 9.11344 25.6421 8.86586 24.7463 8.86577C23.8877 8.86578 23.1967 9.14137 22.674 9.69195C22.1728 10.2297 21.9173 10.9991 21.9055 11.9996H24.0315V11.2593H28.3996V11.9996H29.7043C29.4309 10.3004 29.1409 8.60713 28.8323 6.98882C28.1537 3.43229 24.9803 1.00135 21.3596 0.988821ZM13.8733 11.9312H15.4836C16.0248 11.9312 16.4447 11.7964 16.7434 11.5259C17.0513 11.2459 17.2053 10.8628 17.2053 10.3775C17.2052 9.90165 17.0566 9.54633 16.758 9.31304C16.4687 9.07045 16.0015 8.94976 15.3576 8.94976H13.8733V11.9312Z" fill="#0E141B"/>
<path d="M19.8236 16.9999H17.5416L15.5676 13.6959H15.3296H13.8736V16.9999H11.8156V7.19988H15.4836C16.8276 7.19988 17.817 7.47054 18.4516 8.01188C19.0863 8.54388 19.4036 9.29054 19.4036 10.2519C19.4036 11.0079 19.2356 11.6379 18.8996 12.1419C18.573 12.6459 18.111 13.0285 17.5136 13.2899L19.8236 16.9999ZM13.8736 8.94988V11.9319H15.4836C16.025 11.9319 16.445 11.7965 16.7436 11.5259C17.0516 11.2459 17.2056 10.8632 17.2056 10.3779C17.2056 9.90188 17.0563 9.54721 16.7576 9.31388C16.4683 9.07121 16.0016 8.94988 15.3576 8.94988H13.8736ZM24.6619 6.97588C25.4085 6.97588 26.0759 7.08321 26.6639 7.29788C27.2519 7.50321 27.7605 7.76921 28.1899 8.09588L27.1819 9.60788C26.4539 9.11321 25.6419 8.86588 24.7459 8.86588C23.8872 8.86588 23.1965 9.14121 22.6739 9.69188C22.1605 10.2425 21.9039 11.0359 21.9039 12.0719C21.9039 13.1079 22.1512 13.9105 22.6459 14.4799C23.1499 15.0399 23.7985 15.3199 24.5919 15.3199C25.3479 15.3199 25.9639 15.1192 26.4399 14.7179V12.9119H24.0319V11.2599H28.3999V15.7399C27.9612 16.1879 27.4059 16.5472 26.7339 16.8179C26.0619 17.0792 25.3245 17.2099 24.5219 17.2099C23.6819 17.2099 22.8979 17.0325 22.1699 16.6779C21.4419 16.3139 20.8492 15.7539 20.3919 14.9979C19.9439 14.2419 19.7199 13.3039 19.7199 12.1839C19.7199 11.0732 19.9392 10.1259 20.3779 9.34188C20.8165 8.55788 21.4092 7.96988 22.1559 7.57788C22.9025 7.17654 23.7379 6.97588 24.6619 6.97588Z" fill="white"/>
</g>
<defs>
<clipPath id="clip0_8547_796">
<rect width="32" height="32" fill="white" transform="matrix(-1 0 0 1 32 0)"/>
</clipPath>
</defs>
</svg>
